<svg width="14" height="16" viewBox="0 0 14 16" fill="none" xmlns="http://www.w3.org/2000/svg">
<path d="M2.5 2C2.5 1.46957 2.71071 0.960859 3.08579 0.585786C3.46086 0.210714 3.96957 0 4.5 0H8.086C8.48369 0.000350104 8.86497 0.158615 9.146 0.44L13.061 4.354C13.342 4.6352 13.4999 5.01645 13.5 5.414V12C13.5 12.5304 13.2893 13.0391 12.9142 13.4142C12.5391 13.7893 12.0304 14 11.5 14H4.5C3.96957 14 3.46086 13.7893 3.08579 13.4142C2.71071 13.0391 2.5 12.5304 2.5 12V2ZM4.5 1C4.23478 1 3.98043 1.10536 3.79289 1.29289C3.60536 1.48043 3.5 1.73478 3.5 2V12C3.5 12.2652 3.60536 12.5196 3.79289 12.7071C3.98043 12.8946 4.23478 13 4.5 13H11.5C11.7652 13 12.0196 12.8946 12.2071 12.7071C12.3946 12.5196 12.5 12.2652 12.5 12V6H9C8.60218 6 8.22064 5.84196 7.93934 5.56066C7.65804 5.27936 7.5 4.89782 7.5 4.5V1H4.5ZM8.5 1.207V4.5C8.5 4.63261 8.55268 4.75979 8.64645 4.85355C8.74021 4.94732 8.86739 5 9 5H12.293L8.5 1.207ZM0.5 3C0.5 2.73478 0.605357 2.48043 0.792893 2.29289C0.98043 2.10536 1.23478 2 1.5 2V12C1.5 12.7956 1.81607 13.5587 2.37868 14.1213C2.94129 14.6839 3.70435 15 4.5 15H11.5C11.5 15.2652 11.3946 15.5196 11.2071 15.7071C11.0196 15.8946 10.7652 16 10.5 16H4.44C3.39505 16 2.39289 15.5849 1.654 14.846C0.915106 14.1071 0.5 13.105 0.5 12.06V3Z" fill="#1B1D21"/>
</svg>
