<svg width="30" height="30" viewBox="0 0 30 30" fill="none" xmlns="http://www.w3.org/2000/svg">
<path d="M22 5H8C7.20435 5 6.44129 5.31607 5.87868 5.87868C5.31607 6.44129 5 7.20435 5 8V22C5 22.7956 5.31607 23.5587 5.87868 24.1213C6.44129 24.6839 7.20435 25 8 25H22C22.7956 25 23.5587 24.6839 24.1213 24.1213C24.6839 23.5587 25 22.7956 25 22V8C25 7.20435 24.6839 6.44129 24.1213 5.87868C23.5587 5.31607 22.7956 5 22 5ZM23 22C23 22.2652 22.8946 22.5196 22.7071 22.7071C22.5196 22.8946 22.2652 23 22 23H8C7.73478 23 7.48043 22.8946 7.29289 22.7071C7.10536 22.5196 7 22.2652 7 22V8C7 7.73478 7.10536 7.48043 7.29289 7.29289C7.48043 7.10536 7.73478 7 8 7H22C22.2652 7 22.5196 7.10536 22.7071 7.29289C22.8946 7.48043 23 7.73478 23 8V22ZM16.58 9C16.8754 9.01604 17.1596 9.1191 17.3966 9.29621C17.6336 9.47332 17.8129 9.71658 17.912 9.99537C18.0111 10.2742 18.0256 10.576 17.9535 10.863C17.8815 11.15 17.7262 11.4093 17.5072 11.6082C17.2881 11.8071 17.0152 11.9368 16.7226 11.981C16.43 12.0252 16.1309 11.9818 15.8629 11.8564C15.595 11.731 15.37 11.5291 15.2165 11.2762C15.0629 11.0233 14.9876 10.7306 15 10.435C15.0083 10.2366 15.0559 10.0419 15.1401 9.86206C15.2242 9.68223 15.3432 9.52089 15.4902 9.38741C15.6372 9.25392 15.8092 9.15094 15.9963 9.08444C16.1833 9.01794 16.3817 8.98924 16.58 9ZM12.465 15.1C12.465 15.1 15.595 12.93 16.615 13.355C17.635 13.78 16.255 16.455 16.155 16.855C16.055 17.255 15.405 20.28 17.54 18.6C17.54 18.6 18.605 17.935 17.08 19.475C15.555 21.015 13.62 21.5 13.39 20.345C13.215 19.47 14.13 16.295 14.31 15.1C14.37 14.71 13.85 15.1 13.85 15.1C13.85 15.1 12.35 16.1 12.005 15.54C11.95 15.45 12.32 15.175 12.465 15.1Z" fill="#97B7EF"/>
</svg>
