<svg width="13" height="15" viewBox="0 0 13 15" fill="none" xmlns="http://www.w3.org/2000/svg">
<path d="M9.46669 8.35561C10.2682 8.35561 11.0369 8.67402 11.6037 9.24079C12.1705 9.80757 12.4889 10.5763 12.4889 11.3778V14.1734C12.4889 14.2335 12.465 14.2912 12.4225 14.3337C12.38 14.3762 12.3224 14.4 12.2622 14.4H0.626691C0.566575 14.4 0.508922 14.3762 0.466414 14.3337C0.423905 14.2912 0.400024 14.2335 0.400024 14.1734V11.3778C0.400024 10.5763 0.718436 9.80757 1.28521 9.24079C1.85199 8.67402 2.6207 8.35561 3.42225 8.35561H9.46669ZM6.44447 0.800049C7.34621 0.800049 8.21101 1.15826 8.84863 1.79589C9.48626 2.43351 9.84447 3.29831 9.84447 4.20005C9.84447 5.10179 9.48626 5.96659 8.84863 6.60421C8.21101 7.24184 7.34621 7.60005 6.44447 7.60005C5.54273 7.60005 4.67793 7.24184 4.04031 6.60421C3.40268 5.96659 3.04447 5.10179 3.04447 4.20005C3.04447 3.29831 3.40268 2.43351 4.04031 1.79589C4.67793 1.15826 5.54273 0.800049 6.44447 0.800049Z" fill="#97B7EF"/>
<path d="M6.56016 12.75L7.48571 11.6424C7.51446 11.608 7.53521 11.5677 7.54645 11.5243C7.55769 11.4809 7.55914 11.4355 7.55069 11.3915L6.99309 8.47811C6.98641 8.44358 6.96788 8.41245 6.94071 8.39011C6.91354 8.36776 6.87942 8.3556 6.84425 8.35571H6.04487C6.00969 8.3556 5.97557 8.36776 5.9484 8.39011C5.92123 8.41245 5.90271 8.44358 5.89602 8.47811L5.33842 11.3915C5.32998 11.4355 5.33143 11.4809 5.34266 11.5243C5.3539 11.5677 5.37465 11.608 5.4034 11.6424L6.32896 12.75C6.34314 12.7669 6.36084 12.7804 6.38081 12.7897C6.40077 12.799 6.42253 12.8038 6.44456 12.8038C6.46658 12.8038 6.48834 12.799 6.50831 12.7897C6.52828 12.7804 6.54597 12.7669 6.56016 12.75Z" fill="white"/>
</svg>
