<svg width="16" height="16" viewBox="0 0 16 16" fill="none" xmlns="http://www.w3.org/2000/svg">
<path d="M11.4667 8.35561C12.2682 8.35561 13.0369 8.67402 13.6037 9.24079C14.1705 9.80757 14.4889 10.5763 14.4889 11.3778V14.1734C14.4889 14.2335 14.465 14.2912 14.4225 14.3337C14.38 14.3762 14.3224 14.4 14.2622 14.4H2.62669C2.56658 14.4 2.50892 14.3762 2.46641 14.3337C2.42391 14.2912 2.40002 14.2335 2.40002 14.1734V11.3778C2.40002 10.5763 2.71844 9.80757 3.28521 9.24079C3.85199 8.67402 4.6207 8.35561 5.42225 8.35561H11.4667ZM8.44447 0.800049C9.34621 0.800049 10.211 1.15826 10.8486 1.79589C11.4863 2.43351 11.8445 3.29831 11.8445 4.20005C11.8445 5.10179 11.4863 5.96659 10.8486 6.60421C10.211 7.24184 9.34621 7.60005 8.44447 7.60005C7.54273 7.60005 6.67793 7.24184 6.04031 6.60421C5.40268 5.96659 5.04447 5.10179 5.04447 4.20005C5.04447 3.29831 5.40268 2.43351 6.04031 1.79589C6.67793 1.15826 7.54273 0.800049 8.44447 0.800049Z" fill="#0049C6"/>
<path d="M8.56016 12.75L9.48571 11.6424C9.51446 11.608 9.53521 11.5677 9.54645 11.5243C9.55769 11.4809 9.55914 11.4355 9.55069 11.3915L8.99309 8.47811C8.98641 8.44358 8.96788 8.41245 8.94071 8.39011C8.91354 8.36776 8.87942 8.3556 8.84425 8.35571H8.04487C8.00969 8.3556 7.97557 8.36776 7.9484 8.39011C7.92123 8.41245 7.90271 8.44358 7.89602 8.47811L7.33842 11.3915C7.32998 11.4355 7.33143 11.4809 7.34266 11.5243C7.3539 11.5677 7.37465 11.608 7.4034 11.6424L8.32896 12.75C8.34314 12.7669 8.36084 12.7804 8.38081 12.7897C8.40077 12.799 8.42253 12.8038 8.44456 12.8038C8.46658 12.8038 8.48834 12.799 8.50831 12.7897C8.52828 12.7804 8.54597 12.7669 8.56016 12.75Z" fill="white"/>
</svg>
