<svg width="21" height="14" viewBox="0 0 21 14" fill="none" xmlns="http://www.w3.org/2000/svg">
<path d="M19.9136 0H6.26693C5.669 0 5.18318 0.479652 5.18318 1.07325C5.18318 1.66686 5.669 2.14651 6.26693 2.14651H19.9163C20.5142 2.14651 21 1.66686 21 1.07325C20.9973 0.479652 20.5115 0 19.9136 0ZM2.38205 0H1.08375C0.485819 0 0 0.479652 0 1.07325C0 1.66686 0.485819 2.14651 1.08375 2.14651H2.38205C2.97998 2.14651 3.4658 1.66686 3.4658 1.07325C3.4658 0.479652 2.97998 0 2.38205 0ZM19.9136 5.92807H6.26693C5.669 5.92807 5.18318 6.40772 5.18318 7.00132C5.18318 7.59493 5.669 8.07458 6.26693 8.07458H19.9163C20.5142 8.07458 21 7.59493 21 7.00132C20.9973 6.40772 20.5115 5.92807 19.9136 5.92807ZM19.9136 11.8535H6.26693C5.669 11.8535 5.18318 12.3331 5.18318 12.9267C5.18318 13.5203 5.669 14 6.26693 14H19.9163C20.5142 14 21 13.5203 21 12.9267C20.9973 12.3358 20.5115 11.8535 19.9136 11.8535ZM2.38205 5.92807H1.08375C0.485819 5.92807 0 6.40772 0 7.00132C0 7.59493 0.485819 8.07458 1.08375 8.07458H2.38205C2.97998 8.07458 3.4658 7.59493 3.4658 7.00132C3.4658 6.40772 2.97998 5.92807 2.38205 5.92807ZM2.38205 11.8535H1.08375C0.485819 11.8535 0 12.3331 0 12.9267C0 13.5203 0.485819 14 1.08375 14H2.38205C2.97998 14 3.4658 13.5203 3.4658 12.9267C3.4658 12.3358 2.97998 11.8535 2.38205 11.8535Z" fill="#B5B7CF"/>
</svg>
