<svg width="30" height="30" viewBox="0 0 30 30" fill="none" xmlns="http://www.w3.org/2000/svg">
<path fill-rule="evenodd" clip-rule="evenodd" d="M22.5005 5.49988C22.5005 4.67138 21.8291 4 21.0007 4H8.99985C8.1714 4 7.50005 4.67138 7.50005 5.49988V7.04795C7.49992 7.34259 7.58658 7.63074 7.7492 7.87644L9.65647 10.7571C8.13095 11.8828 6.99984 13.4615 6.42448 15.268C5.84912 17.0745 5.85889 19.0166 6.45241 20.8172C7.04592 22.6179 8.19286 24.1851 9.72964 25.2953C11.2664 26.4056 13.1145 27.0022 15.0104 27C16.9062 26.9978 18.7529 26.397 20.2871 25.2832C21.8213 24.1694 22.9647 22.5996 23.5541 20.7976C24.1434 18.9956 24.1487 17.0535 23.5692 15.2483C22.9897 13.4431 21.855 11.867 20.3269 10.7449L22.2476 7.88012C22.4121 7.63218 22.5005 7.34252 22.5005 7.04549V5.49988ZM13.8159 10.5939C14.2037 10.5362 14.6014 10.5067 15.0088 10.5067C15.3255 10.5067 15.6419 10.5251 15.9563 10.562C17.0509 10.701 18.101 11.0812 19.0308 11.6752C19.187 11.7783 19.3393 11.8872 19.4874 12.0017L19.4923 11.9943C20.7542 12.9375 21.6871 14.2541 22.1587 15.7574C22.6302 17.2607 22.6164 18.8743 22.1193 20.3693C21.6222 21.8643 20.6669 23.1648 19.3891 24.0863C18.1112 25.0078 16.5757 25.5035 15.0003 25.503C13.1164 25.4986 11.3031 24.7855 9.92073 23.5055C8.53838 22.2255 7.68814 20.4723 7.53895 18.5942C7.38975 16.7161 7.95253 14.8506 9.11545 13.3684C10.2784 11.8862 11.9563 10.8958 13.8159 10.5939ZM8.99862 5.49988H11.9994V9.50273C11.6325 9.63038 11.2753 9.78258 10.9255 9.95932L8.99862 7.04917V5.49988ZM17.9998 5.49988H21.0007V7.04549L19.0529 9.95441C18.7117 9.7789 18.3607 9.62793 17.9998 9.50028V5.49988ZM13.5005 5.49988H16.5V9.12224L16.5 9.12223C16.3883 9.10505 16.2767 9.08787 16.1638 9.0756C15.2962 8.96306 14.4169 8.9767 13.5532 9.1161L13.5005 9.1247V5.49988ZM15.5782 14.9802V17.456C16.3482 17.5954 17.0176 17.9494 17.4648 18.4646C17.8532 18.9121 18.0406 19.4594 17.9926 20.0055C17.9326 20.6897 17.5267 21.3023 16.8499 21.7304C16.4765 21.9667 16.0416 22.1312 15.5782 22.216V22.8887C15.5782 23.2263 15.3067 23.5 14.9719 23.5C14.6371 23.5 14.3655 23.2263 14.3655 22.8887V22.2553C13.461 22.151 12.6523 21.7497 12.1642 21.1531C11.9511 20.8928 11.9878 20.5075 12.2461 20.2926C12.5043 20.0777 12.8865 20.1148 13.0997 20.3751C13.3642 20.6983 13.8316 20.9329 14.3655 21.0212V18.5433C13.6192 18.3969 12.9714 18.0479 12.5352 17.5454C12.1468 17.0978 11.9594 16.5506 12.0074 16.0044C12.0674 15.3202 12.4733 14.7076 13.1501 14.2795C13.5086 14.0528 13.9231 13.8923 14.3655 13.8048V13.1113C14.3655 12.7737 14.6371 12.5 14.9719 12.5C15.3067 12.5 15.5782 12.7737 15.5782 13.1113V13.7489C16.5036 13.8427 17.335 14.2469 17.8335 14.8541C18.047 15.1141 18.011 15.4994 17.753 15.7147C17.4951 15.9299 17.1129 15.8936 16.8994 15.6335C16.6254 15.2998 16.1345 15.0606 15.5782 14.9802ZM13.2153 16.1125C13.1961 16.3295 13.2744 16.5408 13.4477 16.7406C13.6613 16.9866 13.9847 17.1758 14.3655 17.2867V15.0629C14.1569 15.124 13.9631 15.2086 13.7947 15.3152C13.4468 15.5353 13.241 15.8184 13.2153 16.1125ZM16.2053 20.6949C16.5532 20.4748 16.759 20.1917 16.7847 19.8976C16.8037 19.6808 16.7254 19.4693 16.5523 19.2695C16.3283 19.0114 15.9835 18.816 15.5782 18.7077V20.9631C15.8082 20.9012 16.0219 20.811 16.2053 20.6949Z" fill="#97B7EF"/>
<path d="M7.50005 7.04795L7.70005 7.04803V7.04795H7.50005ZM7.7492 7.87644L7.58242 7.98682L7.58244 7.98685L7.7492 7.87644ZM9.65647 10.7571L9.77522 10.9181L9.92816 10.8052L9.82323 10.6467L9.65647 10.7571ZM6.42448 15.268L6.61505 15.3287L6.42448 15.268ZM6.45241 20.8172L6.64235 20.7546L6.45241 20.8172ZM15.0104 27L15.0101 26.8L15.0104 27ZM20.2871 25.2832L20.1696 25.1213L20.2871 25.2832ZM23.5541 20.7976L23.7441 20.8597L23.5541 20.7976ZM23.5692 15.2483L23.7596 15.1871L23.5692 15.2483ZM20.3269 10.7449L20.1607 10.6335L20.054 10.7926L20.2085 10.9061L20.3269 10.7449ZM22.2476 7.88012L22.4137 7.9915L22.4143 7.99067L22.2476 7.88012ZM15.0088 10.5067V10.7067H15.0089L15.0088 10.5067ZM13.8159 10.5939L13.7865 10.396L13.7838 10.3965L13.8159 10.5939ZM15.9563 10.562L15.9815 10.3636L15.9796 10.3633L15.9563 10.562ZM19.0308 11.6752L19.141 11.5083L19.1385 11.5067L19.0308 11.6752ZM19.4874 12.0017L19.365 12.1599L19.5348 12.2912L19.6538 12.1126L19.4874 12.0017ZM19.4923 11.9943L19.612 11.8341L19.4429 11.7078L19.3259 11.8834L19.4923 11.9943ZM22.1587 15.7574L22.3495 15.6975V15.6975L22.1587 15.7574ZM22.1193 20.3693L22.3091 20.4324L22.1193 20.3693ZM15.0003 25.503L14.9998 25.703H15.0002L15.0003 25.503ZM7.53895 18.5942L7.73832 18.5784L7.53895 18.5942ZM9.11545 13.3684L9.2728 13.4919L9.11545 13.3684ZM11.9994 5.49988H12.1994V5.29988H11.9994V5.49988ZM8.99862 5.49988V5.29988H8.79862V5.49988H8.99862ZM11.9994 9.50273L12.0651 9.69163L12.1994 9.64492V9.50273H11.9994ZM10.9255 9.95932L10.7588 10.0697L10.857 10.218L11.0157 10.1378L10.9255 9.95932ZM8.99862 7.04917H8.79862V7.10938L8.83186 7.15959L8.99862 7.04917ZM21.0007 5.49988H21.2007V5.29988H21.0007V5.49988ZM17.9998 5.49988V5.29988H17.7998V5.49988H17.9998ZM21.0007 7.04549L21.1668 7.15677L21.2007 7.10627V7.04549H21.0007ZM19.0529 9.95441L18.9614 10.1323L19.1199 10.2138L19.2191 10.0657L19.0529 9.95441ZM17.9998 9.50028H17.7998V9.64167L17.9331 9.68883L17.9998 9.50028ZM16.5 5.49988H16.7V5.29988H16.5V5.49988ZM13.5005 5.49988V5.29988H13.3005V5.49988H13.5005ZM16.5 9.12224L16.4686 9.31976L16.7 9.35658V9.12224H16.5ZM16.5 9.12223L16.5314 8.92471L16.5304 8.92456L16.5 9.12223ZM16.1638 9.0756L16.138 9.27398L16.1421 9.27443L16.1638 9.0756ZM13.5532 9.1161L13.5214 8.91866L13.5211 8.9187L13.5532 9.1161ZM13.5005 9.1247H13.3005V9.35989L13.5326 9.3221L13.5005 9.1247ZM15.5782 17.456H15.3782V17.623L15.5425 17.6528L15.5782 17.456ZM15.5782 14.9802L15.6068 14.7822L15.3782 14.7492V14.9802H15.5782ZM17.4648 18.4646L17.6158 18.3335L17.6158 18.3335L17.4648 18.4646ZM17.9926 20.0055L18.1919 20.023L17.9926 20.0055ZM16.8499 21.7304L16.743 21.5614L16.743 21.5614L16.8499 21.7304ZM15.5782 22.216L15.5422 22.0192L15.3782 22.0493V22.216H15.5782ZM14.3655 22.2553H14.5655V22.0771L14.3885 22.0566L14.3655 22.2553ZM12.1642 21.1531L12.319 21.0265L12.319 21.0264L12.1642 21.1531ZM12.2461 20.2926L12.374 20.4463H12.374L12.2461 20.2926ZM13.0997 20.3751L13.2545 20.2485L13.2544 20.2484L13.0997 20.3751ZM14.3655 21.0212L14.3329 21.2185L14.5655 21.2569V21.0212H14.3655ZM14.3655 18.5433H14.5655V18.3787L14.404 18.347L14.3655 18.5433ZM12.5352 17.5454L12.3842 17.6765L12.5352 17.5454ZM12.0074 16.0044L11.8081 15.9869V15.9869L12.0074 16.0044ZM13.1501 14.2795L13.0432 14.1105V14.1105L13.1501 14.2795ZM14.3655 13.8048L14.4043 14.001L14.5655 13.9692V13.8048H14.3655ZM15.5782 13.7489H15.3782V13.9296L15.558 13.9479L15.5782 13.7489ZM17.8335 14.8541L17.6789 14.981L17.6789 14.9811L17.8335 14.8541ZM17.753 15.7147L17.6248 15.5611L17.6248 15.5611L17.753 15.7147ZM16.8994 15.6335L17.054 15.5066L17.054 15.5066L16.8994 15.6335ZM13.4477 16.7406L13.2967 16.8717L13.2967 16.8717L13.4477 16.7406ZM13.2153 16.1125L13.4145 16.1301L13.4145 16.13L13.2153 16.1125ZM14.3655 17.2867L14.3096 17.4787L14.5655 17.5533V17.2867H14.3655ZM14.3655 15.0629H14.5655V14.7959L14.3093 14.871L14.3655 15.0629ZM13.7947 15.3152L13.9016 15.4843L13.9016 15.4842L13.7947 15.3152ZM16.7847 19.8976L16.984 19.915L16.984 19.915L16.7847 19.8976ZM16.2053 20.6949L16.0984 20.5259L16.0983 20.5259L16.2053 20.6949ZM16.5523 19.2695L16.7034 19.1385L16.7033 19.1384L16.5523 19.2695ZM15.5782 18.7077L15.6298 18.5145L15.3782 18.4473V18.7077H15.5782ZM15.5782 20.9631H15.3782V21.224L15.6301 21.1562L15.5782 20.9631ZM21.0007 4.2C21.7186 4.2 22.3005 4.78183 22.3005 5.49988H22.7005C22.7005 4.56094 21.9396 3.8 21.0007 3.8V4.2ZM8.99985 4.2H21.0007V3.8H8.99985V4.2ZM7.70005 5.49988C7.70005 4.78183 8.28187 4.2 8.99985 4.2V3.8C8.06093 3.8 7.30005 4.56094 7.30005 5.49988H7.70005ZM7.70005 7.04795V5.49988H7.30005V7.04795H7.70005ZM7.91598 7.76605C7.77504 7.55312 7.69994 7.30339 7.70005 7.04803L7.30005 7.04786C7.29991 7.38179 7.39812 7.70836 7.58242 7.98682L7.91598 7.76605ZM9.82323 10.6467L7.91596 7.76603L7.58244 7.98685L9.4897 10.8675L9.82323 10.6467ZM6.61505 15.3287C7.17762 13.5623 8.2836 12.0187 9.77522 10.9181L9.53772 10.5962C7.9783 11.7469 6.82206 13.3606 6.23391 15.2073L6.61505 15.3287ZM6.64235 20.7546C6.06203 18.994 6.05247 17.0951 6.61505 15.3287L6.23391 15.2073C5.64576 17.054 5.65576 19.0392 6.26246 20.8798L6.64235 20.7546ZM9.84676 25.1332C8.34414 24.0476 7.22268 22.5152 6.64235 20.7546L6.26246 20.8798C6.86916 22.7205 8.04159 24.3225 9.61251 25.4575L9.84676 25.1332ZM15.0101 26.8C13.1564 26.8021 11.3494 26.2188 9.84676 25.1332L9.61251 25.4575C11.1834 26.5924 13.0726 27.2022 15.0106 27.2L15.0101 26.8ZM20.1696 25.1213C18.6695 26.2104 16.8638 26.7979 15.0101 26.8L15.0106 27.2C16.9486 27.1978 18.8363 26.5836 20.4046 25.445L20.1696 25.1213ZM23.364 20.7354C22.7877 22.4973 21.6698 24.0323 20.1696 25.1213L20.4046 25.445C21.9729 24.3065 23.1417 22.7018 23.7441 20.8597L23.364 20.7354ZM23.3788 15.3094C23.9454 17.0745 23.9402 18.9734 23.364 20.7354L23.7441 20.8597C24.3466 19.0177 24.352 17.0324 23.7596 15.1871L23.3788 15.3094ZM20.2085 10.9061C21.7026 12.0033 22.8121 13.5443 23.3788 15.3094L23.7596 15.1871C23.1673 13.3418 22.0073 11.7307 20.4452 10.5837L20.2085 10.9061ZM22.0815 7.76874L20.1607 10.6335L20.493 10.8562L22.4137 7.9915L22.0815 7.76874ZM22.3005 7.04549C22.3005 7.30269 22.224 7.55398 22.081 7.76956L22.4143 7.99067C22.6002 7.71039 22.7005 7.38235 22.7005 7.04549H22.3005ZM22.3005 5.49988V7.04549H22.7005V5.49988H22.3005ZM15.0088 10.3067C14.5917 10.3067 14.1842 10.3369 13.7865 10.3961L13.8453 10.7917C14.2232 10.7355 14.611 10.7067 15.0088 10.7067V10.3067ZM15.9796 10.3633C15.6574 10.3255 15.3332 10.3067 15.0088 10.3067L15.0089 10.7067C15.3177 10.7067 15.6263 10.7246 15.9331 10.7606L15.9796 10.3633ZM19.1385 11.5067C18.1837 10.8967 17.1055 10.5063 15.9815 10.3636L15.9312 10.7604C16.9964 10.8956 18.0183 11.2657 18.9231 11.8438L19.1385 11.5067ZM19.6097 11.8435C19.4577 11.7259 19.3013 11.6141 19.141 11.5083L18.9206 11.8421C19.0727 11.9425 19.2209 12.0485 19.365 12.1599L19.6097 11.8435ZM19.3259 11.8834L19.321 11.8908L19.6538 12.1126L19.6587 12.1053L19.3259 11.8834ZM22.3495 15.6975C21.8654 14.1542 20.9076 12.8025 19.612 11.8341L19.3725 12.1545C20.6008 13.0726 21.5089 14.3541 21.9678 15.8173L22.3495 15.6975ZM22.3091 20.4324C22.8195 18.8975 22.8336 17.2409 22.3495 15.6975L21.9678 15.8173C22.4268 17.2805 22.4134 18.851 21.9295 20.3062L22.3091 20.4324ZM19.5061 24.2485C20.818 23.3024 21.7987 21.9673 22.3091 20.4324L21.9295 20.3062C21.4457 21.7613 20.5159 23.0272 19.2721 23.9241L19.5061 24.2485ZM15.0002 25.703C16.6176 25.7035 18.1941 25.1946 19.5061 24.2485L19.2721 23.9241C18.0283 24.821 16.5337 25.3035 15.0003 25.303L15.0002 25.703ZM9.78485 23.6523C11.204 24.9664 13.0657 25.6985 14.9998 25.703L15.0007 25.303C13.1671 25.2987 11.4021 24.6046 10.0566 23.3588L9.78485 23.6523ZM7.33957 18.61C7.49275 20.5382 8.36565 22.3381 9.78485 23.6523L10.0566 23.3588C8.71112 22.1129 7.88354 20.4064 7.73832 18.5784L7.33957 18.61ZM8.9581 13.245C7.76418 14.7667 7.1864 16.6819 7.33957 18.61L7.73832 18.5784C7.5931 16.7503 8.14088 14.9346 9.2728 13.4919L8.9581 13.245ZM13.7838 10.3965C11.8747 10.7064 10.152 11.7232 8.9581 13.245L9.2728 13.4919C10.4047 12.0492 12.0379 11.0851 13.8479 10.7913L13.7838 10.3965ZM11.9994 5.29988H8.99862V5.69988H11.9994V5.29988ZM12.1994 9.50273V5.49988H11.7994V9.50273H12.1994ZM11.0157 10.1378C11.3578 9.96498 11.7068 9.81628 12.0651 9.69163L11.9337 9.31384C11.5581 9.44448 11.1928 9.60018 10.8353 9.78082L11.0157 10.1378ZM8.83186 7.15959L10.7588 10.0697L11.0923 9.84891L9.16538 6.93876L8.83186 7.15959ZM8.79862 5.49988V7.04917H9.19862V5.49988H8.79862ZM21.0007 5.29988H17.9998V5.69988H21.0007V5.29988ZM21.2007 7.04549V5.49988H20.8007V7.04549H21.2007ZM19.2191 10.0657L21.1668 7.15677L20.8345 6.93422L18.8867 9.84314L19.2191 10.0657ZM17.9331 9.68883C18.2857 9.81353 18.6284 9.96095 18.9614 10.1323L19.1444 9.77657C18.795 9.59685 18.4357 9.44232 18.0665 9.31173L17.9331 9.68883ZM17.7998 5.49988V9.50028H18.1998V5.49988H17.7998ZM16.5 5.29988H13.5005V5.69988H16.5V5.29988ZM16.7 9.12224V5.49988H16.3V9.12224H16.7ZM16.4686 9.31975L16.4686 9.31976L16.5315 8.92473L16.5314 8.92472L16.4686 9.31975ZM16.1421 9.27443C16.2499 9.28614 16.3572 9.30262 16.4696 9.31991L16.5304 8.92456C16.4194 8.90749 16.3034 8.8896 16.1854 8.87677L16.1421 9.27443ZM13.5851 9.31355C14.4297 9.17722 15.2896 9.16388 16.138 9.27394L16.1895 8.87726C15.3028 8.76224 14.4041 8.77618 13.5214 8.91866L13.5851 9.31355ZM13.5326 9.3221L13.5854 9.31351L13.5211 8.9187L13.4683 8.9273L13.5326 9.3221ZM13.3005 5.49988V9.1247H13.7005V5.49988H13.3005ZM15.7782 17.456V14.9802H15.3782V17.456H15.7782ZM17.6158 18.3335C17.1338 17.7782 16.4206 17.4053 15.6138 17.2592L15.5425 17.6528C16.2758 17.7856 16.9014 18.1206 17.3137 18.5957L17.6158 18.3335ZM18.1919 20.023C18.245 19.4182 18.0366 18.8183 17.6158 18.3335L17.3137 18.5956C17.6698 19.0059 17.8362 19.5005 17.7934 19.988L18.1919 20.023ZM16.9568 21.8994C17.6765 21.4443 18.1254 20.7802 18.1919 20.023L17.7934 19.988C17.7397 20.5993 17.377 21.1604 16.743 21.5614L16.9568 21.8994ZM15.6142 22.4127C16.1005 22.3237 16.5598 22.1506 16.9569 21.8994L16.743 21.5614C16.3931 21.7828 15.9828 21.9386 15.5422 22.0192L15.6142 22.4127ZM15.7782 22.8887V22.216H15.3782V22.8887H15.7782ZM14.9719 23.7C15.4186 23.7 15.7782 23.3352 15.7782 22.8887H15.3782C15.3782 23.1173 15.1947 23.3 14.9719 23.3V23.7ZM14.1655 22.8887C14.1655 23.3352 14.5251 23.7 14.9719 23.7V23.3C14.749 23.3 14.5655 23.1173 14.5655 22.8887H14.1655ZM14.1655 22.2553V22.8887H14.5655V22.2553H14.1655ZM12.0095 21.2798C12.5368 21.9244 13.3974 22.345 14.3426 22.454L14.3885 22.0566C13.5246 21.957 12.7678 21.575 12.319 21.0265L12.0095 21.2798ZM12.1182 20.1389C11.7754 20.4241 11.7269 20.9346 12.0095 21.2798L12.319 21.0264C12.1753 20.8509 12.2003 20.5909 12.374 20.4463L12.1182 20.1389ZM13.2544 20.2484C12.9712 19.9024 12.4621 19.8527 12.1182 20.1389L12.374 20.4463C12.5466 20.3028 12.8019 20.3271 12.9449 20.5018L13.2544 20.2484ZM14.3982 20.8238C13.8958 20.7408 13.4791 20.5229 13.2545 20.2485L12.9449 20.5018C13.2493 20.8737 13.7674 21.125 14.3329 21.2185L14.3982 20.8238ZM14.1655 18.5433V21.0212H14.5655V18.5433H14.1655ZM12.3842 17.6765C12.8544 18.2182 13.5448 18.5861 14.3271 18.7395L14.404 18.347C13.6937 18.2077 13.0884 17.8777 12.6863 17.4143L12.3842 17.6765ZM11.8081 15.9869C11.755 16.5917 11.9634 17.1916 12.3842 17.6765L12.6863 17.4143C12.3302 17.004 12.1638 16.5094 12.2066 16.0219L11.8081 15.9869ZM13.0432 14.1105C12.3235 14.5657 11.8746 15.2298 11.8081 15.9869L12.2066 16.0219C12.2603 15.4106 12.623 14.8495 13.257 14.4486L13.0432 14.1105ZM14.3267 13.6086C13.8623 13.7005 13.4243 13.8694 13.0432 14.1105L13.257 14.4486C13.5928 14.2361 13.9839 14.0842 14.4043 14.001L14.3267 13.6086ZM14.1655 13.1113V13.8048H14.5655V13.1113H14.1655ZM14.9719 12.3C14.5251 12.3 14.1655 12.6648 14.1655 13.1113H14.5655C14.5655 12.8827 14.749 12.7 14.9719 12.7V12.3ZM15.7782 13.1113C15.7782 12.6648 15.4186 12.3 14.9719 12.3V12.7C15.1947 12.7 15.3782 12.8827 15.3782 13.1113H15.7782ZM15.7782 13.7489V13.1113H15.3782V13.7489H15.7782ZM17.9881 14.7272C17.4495 14.0712 16.5651 13.6479 15.5983 13.5499L15.558 13.9479C16.442 14.0375 17.2205 14.4226 17.6789 14.981L17.9881 14.7272ZM17.8811 15.8682C18.2237 15.5824 18.2711 15.0718 17.988 14.7272L17.6789 14.9811C17.8229 15.1563 17.7983 15.4163 17.6248 15.5611L17.8811 15.8682ZM16.7448 15.7604C17.0286 16.1062 17.5377 16.1549 17.8811 15.8682L17.6248 15.5611C17.4524 15.705 17.1972 15.6811 17.054 15.5066L16.7448 15.7604ZM15.5496 15.1781C16.0734 15.2539 16.5119 15.4767 16.7448 15.7604L17.054 15.5066C16.7389 15.1228 16.1955 14.8674 15.6068 14.7822L15.5496 15.1781ZM13.5988 16.6095C13.4528 16.4412 13.4011 16.2818 13.4145 16.1301L13.016 16.095C12.9911 16.3773 13.096 16.6404 13.2967 16.8717L13.5988 16.6095ZM14.4215 17.0947C14.0677 16.9916 13.7811 16.8196 13.5988 16.6095L13.2967 16.8717C13.5414 17.1537 13.9018 17.3599 14.3096 17.4787L14.4215 17.0947ZM14.1655 15.0629V17.2867H14.5655V15.0629H14.1655ZM13.9016 15.4842C14.0522 15.3889 14.2285 15.3115 14.4218 15.2548L14.3093 14.871C14.0854 14.9366 13.874 15.0283 13.6877 15.1462L13.9016 15.4842ZM13.4145 16.13C13.4329 15.9201 13.5843 15.6849 13.9016 15.4843L13.6877 15.1462C13.3093 15.3856 13.0492 15.7167 13.016 16.0951L13.4145 16.13ZM16.5855 19.8801C16.5671 20.09 16.4157 20.3252 16.0984 20.5259L16.3123 20.8639C16.6907 20.6245 16.9508 20.2935 16.984 19.915L16.5855 19.8801ZM16.4011 19.4005C16.547 19.5688 16.5988 19.7286 16.5855 19.8802L16.984 19.915C17.0086 19.633 16.9039 19.3698 16.7034 19.1385L16.4011 19.4005ZM15.5265 18.9009C15.9039 19.0018 16.2099 19.1801 16.4012 19.4006L16.7033 19.1384C16.4467 18.8428 16.063 18.6303 15.6298 18.5145L15.5265 18.9009ZM15.7782 20.9631V18.7077H15.3782V20.9631H15.7782ZM16.0983 20.5259C15.9343 20.6298 15.7397 20.7125 15.5262 20.77L15.6301 21.1562C15.8767 21.0899 16.1095 20.9923 16.3123 20.8639L16.0983 20.5259Z" fill="#97B7EF"/>
</svg>
