<svg width="24" height="24" viewBox="0 0 24 24" fill="none" xmlns="http://www.w3.org/2000/svg">
<path d="M18.2638 16.0079L16.2843 14.865L17.8965 12.0726L19.9747 11.5473C20.0481 11.5287 20.1174 11.4958 20.1786 11.4505C20.2399 11.4051 20.2918 11.3482 20.3315 11.2829C20.3712 11.2176 20.3979 11.1453 20.4101 11.07C20.4223 10.9947 20.4196 10.918 20.4024 10.8443C20.3852 10.7705 20.3537 10.7011 20.3096 10.64C20.2656 10.5789 20.21 10.5274 20.1459 10.4883C20.0818 10.4493 20.0105 10.4235 19.9361 10.4124C19.8617 10.4013 19.7857 10.4051 19.7123 10.4236L17.5085 10.9813L10.128 6.72014L9.50821 4.53299C9.48759 4.46021 9.45289 4.39246 9.4061 4.33362C9.35932 4.27478 9.30136 4.22599 9.23553 4.19005C9.16971 4.1541 9.09731 4.1317 9.02247 4.12413C8.94763 4.11656 8.87182 4.12396 8.79936 4.14591C8.7269 4.16786 8.65921 4.20393 8.60016 4.25206C8.5411 4.30019 8.49185 4.35944 8.45519 4.42643C8.41854 4.49341 8.39521 4.56682 8.38654 4.64247C8.37787 4.71811 8.38402 4.7945 8.40464 4.86729L8.98852 6.93027L7.37634 9.72265L5.39685 8.57979C5.2656 8.50401 5.10908 8.48443 4.96172 8.52534C4.81436 8.56625 4.68823 8.6643 4.61108 8.79793C4.53393 8.93157 4.51207 9.08983 4.55032 9.2379C4.58857 9.38597 4.6838 9.51173 4.81505 9.58751L6.79453 10.7304L6.45534 11.3179C5.9739 12.1517 5.74392 13.0609 5.74194 13.9547L2.71634 14.7197C2.5681 14.7572 2.43977 14.8523 2.35957 14.9841C2.27937 15.116 2.25386 15.2737 2.28867 15.4228C2.32348 15.5718 2.41574 15.6998 2.54517 15.7787C2.6746 15.8575 2.83059 15.8808 2.97882 15.8434L5.86895 15.113C6.13754 16.3201 6.82705 17.3835 7.81269 18.1109L11.2875 12.0923C11.3647 11.9587 11.4908 11.8606 11.6382 11.8197C11.7855 11.7788 11.942 11.7984 12.0733 11.8741C12.2045 11.9499 12.2998 12.0757 12.338 12.2238C12.3763 12.3718 12.3544 12.5301 12.2773 12.6637L8.80243 18.6823C9.92529 19.1717 11.1908 19.2371 12.3706 18.8667L13.1831 21.7348C13.2296 21.8761 13.3287 21.9929 13.4597 22.0608C13.5907 22.1288 13.7434 22.1426 13.886 22.0994C14.0285 22.0562 14.1499 21.9594 14.2247 21.8291C14.2995 21.6988 14.322 21.5452 14.2874 21.4003L13.4367 18.3972C14.2353 17.9333 14.9003 17.2649 15.363 16.4607L15.7025 15.8727L17.682 17.0156C17.8133 17.0914 17.9698 17.1109 18.1171 17.07C18.2645 17.0291 18.3906 16.9311 18.4678 16.7974C18.5449 16.6638 18.5668 16.5055 18.5285 16.3575C18.4903 16.2094 18.3951 16.0836 18.2638 16.0079ZM17.0198 9.01964C17.4056 8.35148 17.5149 7.56018 17.3236 6.81981C17.1323 6.07945 16.6562 5.45066 16 5.07178C15.3437 4.6929 14.5611 4.59496 13.8243 4.79951C13.0875 5.00406 12.4569 5.49434 12.0711 6.1625L11.8771 6.49857L16.8258 9.35571L17.0198 9.01964Z" fill="#97B7EF"/>
</svg>
