<svg width="20" height="20" viewBox="0 0 20 20" fill="none" xmlns="http://www.w3.org/2000/svg">
<path d="M15.2632 1.57895H17.1063C18.7053 1.57895 20 2.87474 20 4.47605V17.1026C20 18.7029 18.7047 20 17.1063 20H2.89368C1.29474 20 0 18.7042 0 17.1029V4.47632C0 2.87605 1.29526 1.57895 2.89368 1.57895H4.73684V0.789474C4.73684 0.580092 4.82002 0.379287 4.96807 0.231232C5.11613 0.0831766 5.31693 0 5.52632 0C5.7357 0 5.9365 0.0831766 6.08456 0.231232C6.23261 0.379287 6.31579 0.580092 6.31579 0.789474V1.57895H13.6842V0.789474C13.6842 0.580092 13.7674 0.379287 13.9154 0.231232C14.0635 0.0831766 14.2643 0 14.4737 0C14.6831 0 14.8839 0.0831766 15.0319 0.231232C15.18 0.379287 15.2632 0.580092 15.2632 0.789474V1.57895ZM15.2632 3.15789V3.94737C15.2632 4.15675 15.18 4.35756 15.0319 4.50561C14.8839 4.65367 14.6831 4.73684 14.4737 4.73684C14.2643 4.73684 14.0635 4.65367 13.9154 4.50561C13.7674 4.35756 13.6842 4.15675 13.6842 3.94737V3.15789H6.31579V3.94737C6.31579 4.15675 6.23261 4.35756 6.08456 4.50561C5.9365 4.65367 5.7357 4.73684 5.52632 4.73684C5.31693 4.73684 5.11613 4.65367 4.96807 4.50561C4.82002 4.35756 4.73684 4.15675 4.73684 3.94737V3.15789H2.89368C2.7208 3.1581 2.54965 3.19236 2.39001 3.25872C2.23037 3.32508 2.08537 3.42224 1.96328 3.54464C1.84119 3.66705 1.74441 3.81231 1.67847 3.97212C1.61252 4.13193 1.57871 4.30317 1.57895 4.47605V17.1026C1.5785 17.2756 1.61217 17.4469 1.67804 17.6068C1.7439 17.7668 1.84067 17.9121 1.9628 18.0346C2.08492 18.1571 2.23001 18.2542 2.38974 18.3206C2.54948 18.3869 2.72073 18.421 2.89368 18.4211H17.1063C17.2792 18.4208 17.4503 18.3866 17.61 18.3202C17.7696 18.2539 17.9146 18.1567 18.0367 18.0343C18.1588 17.9119 18.2556 17.7666 18.3215 17.6068C18.3875 17.447 18.4213 17.2758 18.4211 17.1029V4.47632C18.4215 4.30336 18.3878 4.13202 18.322 3.9721C18.2561 3.81218 18.1593 3.66682 18.0372 3.54435C17.9151 3.42188 17.77 3.32471 17.6103 3.25839C17.4505 3.19208 17.2793 3.15793 17.1063 3.15789H15.2632ZM15 8.68421C15.2094 8.68421 15.4102 8.76739 15.5582 8.91544C15.7063 9.0635 15.7895 9.2643 15.7895 9.47368C15.7895 9.68307 15.7063 9.88387 15.5582 10.0319C15.4102 10.18 15.2094 10.2632 15 10.2632H5C4.79062 10.2632 4.58981 10.18 4.44176 10.0319C4.2937 9.88387 4.21053 9.68307 4.21053 9.47368C4.21053 9.2643 4.2937 9.0635 4.44176 8.91544C4.58981 8.76739 4.79062 8.68421 5 8.68421H15ZM11.8421 12.6316C12.0515 12.6316 12.2523 12.7148 12.4003 12.8628C12.5484 13.0109 12.6316 13.2117 12.6316 13.4211C12.6316 13.6304 12.5484 13.8312 12.4003 13.9793C12.2523 14.1273 12.0515 14.2105 11.8421 14.2105H5C4.79062 14.2105 4.58981 14.1273 4.44176 13.9793C4.2937 13.8312 4.21053 13.6304 4.21053 13.4211C4.21053 13.2117 4.2937 13.0109 4.44176 12.8628C4.58981 12.7148 4.79062 12.6316 5 12.6316H11.8421Z" fill="#B5B7CF"/>
</svg>
