<svg width="88" height="88" viewBox="0 0 88 88" fill="none" xmlns="http://www.w3.org/2000/svg">
<path d="M52.8 55.7331H32.2667V35.1998H45.4667V32.2665H32.2667C30.6534 32.2665 29.3334 33.5865 29.3334 35.1998V55.7331C29.3334 57.3465 30.6534 58.6665 32.2667 58.6665H52.8C54.4134 58.6665 55.7334 57.3465 55.7334 55.7331V42.5331H52.8V55.7331ZM41.3747 51.0838L38.5 47.6225L34.4667 52.7998H50.6L45.408 45.8918L41.3747 51.0838ZM55.7334 32.2665V27.8665H52.8V32.2665H48.4C48.4147 32.2811 48.4 35.1998 48.4 35.1998H52.8V39.5851C52.8147 39.5998 55.7334 39.5851 55.7334 39.5851V35.1998H60.1334V32.2665H55.7334Z" fill="#E4E4E4"/>
<circle cx="44" cy="44" r="43.1373" stroke="#E4E4E4"/>
</svg>
