<svg width="40" height="40" viewBox="0 0 40 40" fill="none" xmlns="http://www.w3.org/2000/svg">
<circle cx="20" cy="20" r="20" fill="#3F8CFF"/>
<path d="M25.9199 22.3203C25.6599 22.5703 25.5399 22.9393 25.6009 23.2903L26.4899 28.2103C26.5609 28.6303 26.3909 29.0493 26.0399 29.2903C25.6999 29.5403 25.2499 29.5703 24.8699 29.3703L20.4409 27.0603C20.2799 26.9803 20.1099 26.9293 19.9409 26.9293H19.6699C19.5699 26.9393 19.4809 26.9803 19.3999 27.0193L14.9699 29.3403C14.7499 29.4503 14.4999 29.4903 14.2599 29.4503C13.6599 29.3303 13.2709 28.7693 13.3699 28.1793L14.2599 23.2593C14.3199 22.9003 14.1999 22.5403 13.9409 22.2803L10.3299 18.7803C10.0299 18.4803 9.91989 18.0493 10.0609 17.6503C10.1909 17.2593 10.5299 16.9693 10.9499 16.9003L15.9199 16.1793C16.2999 16.1393 16.6299 15.9103 16.7999 15.5703L18.9899 11.0803C19.0399 10.9803 19.1099 10.8893 19.1909 10.8103L19.2799 10.7403C19.3199 10.6893 19.3799 10.6503 19.4409 10.6103L19.5499 10.5703L19.7199 10.5003H20.1409C20.5209 10.5403 20.8509 10.7693 21.0209 11.0993L23.2399 15.5703C23.3999 15.9003 23.7099 16.1203 24.0699 16.1793L29.0399 16.9003C29.4599 16.9603 29.8109 17.2503 29.9499 17.6503C30.0799 18.0493 29.9699 18.4903 29.6599 18.7803L25.9199 22.3203Z" fill="white"/>
</svg>
