<svg width="16" height="16" viewBox="0 0 16 16" fill="none" xmlns="http://www.w3.org/2000/svg">
<g clip-path="url(#clip0_2404_881)">
<path d="M13.545 2.99469C12.525 2.53469 11.4317 2.19469 10.2883 2.00136C10.2781 1.9994 10.2676 2.00066 10.2582 2.00496C10.2487 2.00926 10.2409 2.01639 10.2357 2.02536C10.0957 2.27136 9.93965 2.59202 9.83032 2.84536C8.61772 2.66418 7.38492 2.66418 6.17232 2.84536C6.05054 2.5646 5.91322 2.29084 5.76099 2.02536C5.75583 2.01628 5.74802 2.00899 5.73861 2.00446C5.7292 1.99994 5.71863 1.99839 5.70832 2.00002C4.56565 2.19336 3.47232 2.53336 2.45165 2.99402C2.44287 2.99771 2.43543 3.00399 2.43032 3.01202C0.355654 6.06202 -0.213013 9.03669 0.0663204 11.974C0.0670977 11.9812 0.0693308 11.9882 0.0728837 11.9945C0.0764366 12.0008 0.0812351 12.0063 0.0869871 12.0107C1.29792 12.8923 2.64855 13.5639 4.08232 13.9974C4.09232 14.0004 4.10301 14.0004 4.113 13.9973C4.12299 13.9942 4.13181 13.9882 4.13832 13.98C4.44632 13.5667 4.72099 13.13 4.95565 12.6714C4.96965 12.6447 4.95632 12.6127 4.92832 12.602C4.49766 12.4398 4.08038 12.2441 3.68032 12.0167C3.67313 12.0126 3.66707 12.0068 3.66269 11.9997C3.65831 11.9927 3.65574 11.9847 3.65521 11.9765C3.65468 11.9682 3.65621 11.9599 3.65966 11.9524C3.66312 11.9449 3.66838 11.9383 3.67499 11.9334C3.75899 11.8714 3.84299 11.8067 3.92299 11.742C3.93019 11.7362 3.93886 11.7325 3.94804 11.7313C3.95722 11.7302 3.96655 11.7315 3.97499 11.7354C6.59299 12.9114 9.42832 12.9114 12.0157 11.7354C12.0241 11.7313 12.0335 11.7297 12.0428 11.7308C12.0522 11.7319 12.061 11.7355 12.0683 11.7414C12.1483 11.8067 12.2317 11.8714 12.3163 11.9334C12.323 11.9382 12.3283 11.9447 12.3319 11.9522C12.3355 11.9596 12.3371 11.9678 12.3367 11.9761C12.3363 11.9844 12.3339 11.9924 12.3296 11.9995C12.3254 12.0065 12.3194 12.0125 12.3123 12.0167C11.9137 12.246 11.499 12.44 11.0637 12.6014C11.057 12.6038 11.0509 12.6076 11.0458 12.6126C11.0407 12.6175 11.0367 12.6235 11.0341 12.6302C11.0316 12.6368 11.0304 12.6439 11.0308 12.651C11.0312 12.6581 11.033 12.665 11.0363 12.6714C11.2763 13.1294 11.551 13.5654 11.853 13.9794C11.8593 13.9879 11.868 13.9942 11.878 13.9975C11.8881 14.0009 11.8989 14.0011 11.909 13.998C13.3452 13.5658 14.6981 12.8939 15.9103 12.0107C15.9162 12.0066 15.9212 12.0012 15.9249 11.995C15.9286 11.9888 15.9309 11.9819 15.9317 11.9747C16.265 8.57869 15.373 5.62802 13.5657 3.01336C13.5612 3.00486 13.5539 2.99824 13.545 2.99469ZM5.34699 10.1854C4.55899 10.1854 3.90899 9.47269 3.90899 8.59869C3.90899 7.72402 4.54632 7.01202 5.34699 7.01202C6.15365 7.01202 6.79765 7.73002 6.78499 8.59869C6.78499 9.47336 6.14765 10.1854 5.34699 10.1854ZM10.6637 10.1854C9.87499 10.1854 9.22565 9.47269 9.22565 8.59869C9.22565 7.72402 9.86232 7.01202 10.6637 7.01202C11.4703 7.01202 12.1143 7.73002 12.1017 8.59869C12.1017 9.47336 11.471 10.1854 10.6637 10.1854Z" fill="#808191"/>
</g>
<defs>
<clipPath id="clip0_2404_881">
<rect width="16" height="16" fill="white"/>
</clipPath>
</defs>
</svg>
