<svg width="16" height="12" viewBox="0 0 16 12" fill="none" xmlns="http://www.w3.org/2000/svg">
<path d="M13.5447 0.994812C12.5247 0.534812 11.4314 0.194812 10.2881 0.0014785C10.2779 -0.000476227 10.2674 0.000783468 10.2579 0.00508338C10.2485 0.0093833 10.2406 0.0165107 10.2354 0.0254785C10.0954 0.271478 9.93941 0.592145 9.83008 0.845478C8.61747 0.664303 7.38468 0.664303 6.17208 0.845478C6.0503 0.564719 5.91297 0.290961 5.76074 0.0254785C5.75558 0.0164003 5.74778 0.00911167 5.73837 0.00458525C5.72896 5.88285e-05 5.71839 -0.00149016 5.70808 0.000145101C4.56541 0.193478 3.47208 0.533479 2.45141 0.994145C2.44263 0.997828 2.43518 1.00411 2.43008 1.01215C0.35541 4.06214 -0.213257 7.03681 0.0660763 9.97414C0.0668536 9.98134 0.0690866 9.9883 0.0726396 9.9946C0.0761925 10.0009 0.080991 10.0064 0.0867429 10.0108C1.29767 10.8924 2.6483 11.564 4.08208 11.9975C4.09207 12.0006 4.10276 12.0005 4.11275 11.9975C4.12274 11.9944 4.13157 11.9883 4.13808 11.9801C4.44608 11.5668 4.72074 11.1301 4.95541 10.6715C4.96941 10.6448 4.95608 10.6128 4.92808 10.6021C4.49741 10.44 4.08013 10.2443 3.68008 10.0168C3.67289 10.0127 3.66683 10.0069 3.66245 9.99986C3.65806 9.99284 3.65549 9.98484 3.65497 9.97658C3.65444 9.96832 3.65597 9.96006 3.65942 9.95254C3.66287 9.94501 3.66814 9.93846 3.67474 9.93348C3.75874 9.87148 3.84274 9.80681 3.92274 9.74214C3.92994 9.73633 3.93862 9.73263 3.9478 9.73145C3.95698 9.73027 3.96631 9.73167 3.97474 9.73548C6.59274 10.9115 9.42808 10.9115 12.0154 9.73548C12.0239 9.73144 12.0333 9.72986 12.0426 9.73092C12.0519 9.73199 12.0607 9.73564 12.0681 9.74148C12.1481 9.80681 12.2314 9.87148 12.3161 9.93348C12.3227 9.93836 12.3281 9.94482 12.3317 9.95228C12.3352 9.95974 12.3369 9.96796 12.3365 9.97622C12.3361 9.98448 12.3337 9.99251 12.3294 9.99959C12.3251 10.0067 12.3192 10.0126 12.3121 10.0168C11.9134 10.2461 11.4987 10.4401 11.0634 10.6015C11.0567 10.6039 11.0506 10.6077 11.0455 10.6127C11.0405 10.6177 11.0365 10.6237 11.0339 10.6303C11.0313 10.6369 11.0302 10.644 11.0305 10.6511C11.0309 10.6582 11.0328 10.6652 11.0361 10.6715C11.2761 11.1295 11.5507 11.5655 11.8527 11.9795C11.859 11.988 11.8678 11.9943 11.8778 11.9977C11.8878 12.001 11.8986 12.0012 11.9087 11.9981C13.345 11.5659 14.6978 10.894 15.9101 10.0108C15.916 10.0067 15.921 10.0013 15.9246 9.99512C15.9283 9.98891 15.9306 9.98199 15.9314 9.97481C16.2647 6.57881 15.3727 3.62814 13.5654 1.01348C13.561 1.00498 13.5536 0.998358 13.5447 0.994812ZM5.34674 8.18548C4.55874 8.18548 3.90874 7.47281 3.90874 6.59881C3.90874 5.72414 4.54608 5.01214 5.34674 5.01214C6.15341 5.01214 6.79741 5.73014 6.78474 6.59881C6.78474 7.47348 6.14741 8.18548 5.34674 8.18548ZM10.6634 8.18548C9.87474 8.18548 9.22541 7.47281 9.22541 6.59881C9.22541 5.72414 9.86208 5.01214 10.6634 5.01214C11.4701 5.01214 12.1141 5.73014 12.1014 6.59881C12.1014 7.47348 11.4707 8.18548 10.6634 8.18548Z" fill="#838AEF"/>
</svg>
