<svg width="14" height="14" viewBox="0 0 14 14" fill="none" xmlns="http://www.w3.org/2000/svg">
<path fill-rule="evenodd" clip-rule="evenodd" d="M13.9602 1.99754C13.9337 1.87513 13.8992 1.76803 13.8567 1.67622C13.7081 1.3702 13.4984 1.07693 13.2277 0.796416C12.957 0.515898 12.7102 0.319535 12.4873 0.207328C12.3812 0.156325 12.2564 0.110422 12.1131 0.0696194C11.9698 0.0288168 11.8212 0.00586538 11.6673 0.00076505C11.5134 -0.00433528 11.3568 0.016066 11.1975 0.0619689C11.0383 0.107872 10.8844 0.186927 10.7358 0.299134C10.619 0.39094 10.4731 0.515898 10.2979 0.674008C10.1227 0.832118 9.97148 0.967277 9.84409 1.07948L12.8217 3.94077C12.896 3.87956 12.9756 3.80816 13.0605 3.72655C13.1348 3.65515 13.2224 3.57354 13.3233 3.48174C13.4241 3.38993 13.5382 3.28282 13.6656 3.16042C13.7824 3.03801 13.8673 2.9105 13.9204 2.77789C13.9735 2.64528 14 2.51268 14 2.38007C14 2.24746 13.9867 2.11995 13.9602 1.99754ZM1.89851 8.70702C1.66497 8.93653 1.51636 9.08189 1.45267 9.1431C1.30405 9.28591 1.18994 9.41596 1.11032 9.53327C1.03071 9.65058 0.959055 9.78064 0.895363 9.92345C0.842286 10.0153 0.773286 10.1836 0.688364 10.4284C0.603441 10.6732 0.515864 10.941 0.425634 11.2317C0.335404 11.5224 0.250481 11.8029 0.170866 12.0732C0.0912509 12.3436 0.0408282 12.5501 0.0195975 12.6929C-0.0228638 12.9581 0.00367456 13.1469 0.0992126 13.2591C0.194751 13.3713 0.385827 13.4121 0.672441 13.3815C0.81044 13.3611 1.02009 13.3152 1.3014 13.2438C1.58271 13.1724 1.87994 13.0882 2.19309 12.9913C2.50624 12.8944 2.80612 12.7949 3.09274 12.6929C3.37935 12.5909 3.59697 12.5042 3.74558 12.4328C3.8942 12.3716 4.0375 12.29 4.1755 12.188C4.3135 12.086 4.43558 11.9891 4.54173 11.8973C4.58419 11.8667 4.71688 11.7443 4.93981 11.53C5.16273 11.3158 5.44404 11.043 5.78373 10.7114C6.12342 10.3799 6.50557 10.0153 6.93018 9.61743L8.20402 8.37805L11.6275 5.08834L8.64987 2.21176L5.22642 5.50147L3.93666 6.74084L2.77428 7.85782C2.42397 8.19444 2.13205 8.4775 1.89851 8.70702ZM5.09083 12.7828C4.73938 12.7828 4.45447 13.0553 4.45447 13.3915C4.45447 13.7276 4.73938 14.0002 5.09083 14.0002L13.3636 14.0002C13.715 14.0002 13.9999 13.7276 13.9999 13.3915C13.9999 13.0553 13.715 12.7828 13.3636 12.7828L5.09083 12.7828Z" fill="#3F5170"/>
</svg>
