<svg width="68" height="14" viewBox="0 0 68 14" fill="none" xmlns="http://www.w3.org/2000/svg">
<path d="M15.0267 2.28467L8.55557 8.72911C8.38902 8.89467 8.16373 8.9876 7.9289 8.9876C7.69407 8.9876 7.46878 8.89467 7.30223 8.72911L0.888899 2.33356C0.869183 2.40602 0.85873 2.48069 0.857788 2.55578V11.4447C0.857788 11.6804 0.951439 11.9065 1.11814 12.0732C1.28484 12.2399 1.51093 12.3336 1.74668 12.3336H14.1911C14.4269 12.3336 14.653 12.2399 14.8197 12.0732C14.9864 11.9065 15.08 11.6804 15.08 11.4447V2.55578C15.0765 2.46318 15.0585 2.37171 15.0267 2.28467ZM2.35557 11.4447H1.73779V10.8091L4.9689 7.60467L5.59557 8.23134L2.35557 11.4447ZM14.1822 11.4447H13.56L10.32 8.23134L10.9467 7.60467L14.1778 10.8091L14.1822 11.4447Z" fill="#80829F"/>
<path d="M27.024 3.352V6.616H30.864V8.104H27.024V11.512H31.344V13H25.2V1.864H31.344V3.352H27.024ZM44.2626 4.04C44.956 4.04 45.5746 4.184 46.1186 4.472C46.6733 4.76 47.1053 5.18667 47.4146 5.752C47.7346 6.31733 47.8946 7 47.8946 7.8V13H46.0866V8.072C46.0866 7.28267 45.8893 6.68 45.4946 6.264C45.1 5.83733 44.5613 5.624 43.8786 5.624C43.196 5.624 42.652 5.83733 42.2466 6.264C41.852 6.68 41.6546 7.28267 41.6546 8.072V13H39.8466V8.072C39.8466 7.28267 39.6493 6.68 39.2546 6.264C38.86 5.83733 38.3213 5.624 37.6386 5.624C36.956 5.624 36.412 5.83733 36.0066 6.264C35.612 6.68 35.4146 7.28267 35.4146 8.072V13H33.5906V4.184H35.4146V5.192C35.7133 4.82933 36.092 4.54667 36.5506 4.344C37.0093 4.14133 37.5 4.04 38.0226 4.04C38.7266 4.04 39.356 4.18933 39.9106 4.488C40.4653 4.78667 40.892 5.21867 41.1906 5.784C41.4573 5.25067 41.8733 4.82933 42.4386 4.52C43.004 4.2 43.612 4.04 44.2626 4.04ZM49.6076 8.552C49.6076 7.66667 49.789 6.88267 50.1516 6.2C50.525 5.51733 51.0263 4.98933 51.6556 4.616C52.2956 4.232 52.9996 4.04 53.7676 4.04C54.461 4.04 55.0636 4.17867 55.5756 4.456C56.0983 4.72267 56.5143 5.05867 56.8236 5.464V4.184H58.6636V13H56.8236V11.688C56.5143 12.104 56.093 12.4507 55.5596 12.728C55.0263 13.0053 54.4183 13.144 53.7356 13.144C52.9783 13.144 52.285 12.952 51.6556 12.568C51.0263 12.1733 50.525 11.6293 50.1516 10.936C49.789 10.232 49.6076 9.43733 49.6076 8.552ZM56.8236 8.584C56.8236 7.976 56.6956 7.448 56.4396 7C56.1943 6.552 55.869 6.21067 55.4636 5.976C55.0583 5.74133 54.621 5.624 54.1516 5.624C53.6823 5.624 53.245 5.74133 52.8396 5.976C52.4343 6.2 52.1036 6.536 51.8476 6.984C51.6023 7.42133 51.4796 7.944 51.4796 8.552C51.4796 9.16 51.6023 9.69333 51.8476 10.152C52.1036 10.6107 52.4343 10.9627 52.8396 11.208C53.2556 11.4427 53.693 11.56 54.1516 11.56C54.621 11.56 55.0583 11.4427 55.4636 11.208C55.869 10.9733 56.1943 10.632 56.4396 10.184C56.6956 9.72533 56.8236 9.192 56.8236 8.584ZM61.9874 3.016C61.6567 3.016 61.3794 2.904 61.1554 2.68C60.9314 2.456 60.8194 2.17867 60.8194 1.848C60.8194 1.51733 60.9314 1.24 61.1554 1.016C61.3794 0.791999 61.6567 0.679999 61.9874 0.679999C62.3074 0.679999 62.5794 0.791999 62.8034 1.016C63.0274 1.24 63.1394 1.51733 63.1394 1.848C63.1394 2.17867 63.0274 2.456 62.8034 2.68C62.5794 2.904 62.3074 3.016 61.9874 3.016ZM62.8834 4.184V13H61.0594V4.184H62.8834ZM67.1021 1.16V13H65.2781V1.16H67.1021Z" fill="#80829F"/>
</svg>
