;<svg width="16" height="16" viewBox="0 0 16 16" fill="none" xmlns="http://www.w3.org/2000/svg">
  <path
    fillRule="evenodd"
    clipRule="evenodd"
    d="M15 5.66667V1.77778C15 1.5715 14.9181 1.37367 14.7722 1.22781C14.6263 1.08194 14.4285 1 14.2222 1H10.3333C9.90378 1 9.55556 1.34822 9.55556 1.77778C9.55556 2.20733 9.90378 2.55556 10.3333 2.55556H12.3444L9.00565 5.89454C8.70196 6.19825 8.70197 6.69063 9.00567 6.99433C9.30936 7.29803 9.80175 7.29804 10.1055 6.99435L13.4444 3.65563V5.66667C13.4444 6.09622 13.7927 6.44444 14.2222 6.44444C14.6518 6.44444 15 6.09622 15 5.66667ZM1.77778 9.55556C1.34822 9.55556 1 9.90378 1 10.3333V14.2222C1 14.4285 1.08194 14.6263 1.22781 14.7722C1.37367 14.9181 1.5715 15 1.77778 15H5.66667C6.09622 15 6.44444 14.6518 6.44444 14.2222C6.44444 13.7927 6.09622 13.4444 5.66667 13.4444H3.65563L6.99435 10.1055C7.29804 9.80175 7.29803 9.30936 6.99433 9.00567C6.69063 8.70197 6.19825 8.70196 5.89454 9.00565L2.55556 12.3444V10.3333C2.55556 9.90378 2.20733 9.55556 1.77778 9.55556Z"
    fill="#97B7EF"
  />
</svg>
