<svg width="36" height="36" viewBox="0 0 36 36" fill="none" xmlns="http://www.w3.org/2000/svg">
<path d="M18 36C8.0586 36 0 27.9414 0 18C0 8.0586 8.0586 0 18 0C27.9414 0 36 8.0586 36 18C36 27.9414 27.9414 36 18 36ZM9 27H12.6C12.6 25.5678 13.1689 24.1943 14.1816 23.1816C15.1943 22.1689 16.5678 21.6 18 21.6C19.4322 21.6 20.8057 22.1689 21.8184 23.1816C22.8311 24.1943 23.4 25.5678 23.4 27H27C27 25.8181 26.7672 24.6478 26.3149 23.5558C25.8626 22.4639 25.1997 21.4718 24.364 20.636C23.5282 19.8003 22.5361 19.1374 21.4442 18.6851C20.3522 18.2328 19.1819 18 18 18C16.8181 18 15.6478 18.2328 14.5558 18.6851C13.4639 19.1374 12.4718 19.8003 11.636 20.636C10.8003 21.4718 10.1374 22.4639 9.68508 23.5558C9.23279 24.6478 9 25.8181 9 27ZM10.8 16.2C11.5161 16.2 12.2028 15.9155 12.7092 15.4092C13.2155 14.9028 13.5 14.2161 13.5 13.5C13.5 12.7839 13.2155 12.0972 12.7092 11.5908C12.2028 11.0845 11.5161 10.8 10.8 10.8C10.0839 10.8 9.39716 11.0845 8.89081 11.5908C8.38446 12.0972 8.1 12.7839 8.1 13.5C8.1 14.2161 8.38446 14.9028 8.89081 15.4092C9.39716 15.9155 10.0839 16.2 10.8 16.2ZM25.2 16.2C25.9161 16.2 26.6028 15.9155 27.1092 15.4092C27.6155 14.9028 27.9 14.2161 27.9 13.5C27.9 12.7839 27.6155 12.0972 27.1092 11.5908C26.6028 11.0845 25.9161 10.8 25.2 10.8C24.4839 10.8 23.7972 11.0845 23.2908 11.5908C22.7845 12.0972 22.5 12.7839 22.5 13.5C22.5 14.2161 22.7845 14.9028 23.2908 15.4092C23.7972 15.9155 24.4839 16.2 25.2 16.2Z" fill="#D4D7E2"/>
</svg>
