<svg width="87" height="50" viewBox="0 0 87 50" fill="none" xmlns="http://www.w3.org/2000/svg">
<path d="M71 0C79.8366 0 87 7.16344 87 16V34C87 42.8366 79.8366 50 71 50H16C7.16344 50 0 42.8366 0 34V16C0 7.16344 7.16344 0 16 0H71Z" fill="url(#paint0_linear_80_2427)"/>
<path d="M82 32C81.6667 37 78.5 45 68 45" stroke="#82D3E0" stroke-opacity="0.49" stroke-width="1.5" stroke-linecap="round"/>
<path d="M6 18C6 12 10 5 20 5" stroke="#82D3E0" stroke-opacity="0.49" stroke-width="1.5" stroke-linecap="round"/>
<path d="M45.9386 23.0352C45.8822 22.5079 45.6448 22.0974 45.2262 21.8036C44.8117 21.5098 44.2724 21.3629 43.6083 21.3629C43.1415 21.3629 42.741 21.4334 42.407 21.5742C42.0729 21.7151 41.8174 21.9062 41.6403 22.1477C41.4632 22.3892 41.3726 22.6649 41.3686 22.9748C41.3686 23.2324 41.427 23.4557 41.5437 23.6449C41.6644 23.834 41.8274 23.995 42.0327 24.1278C42.2379 24.2566 42.4653 24.3653 42.7148 24.4538C42.9644 24.5424 43.2159 24.6168 43.4695 24.6772L44.6286 24.967C45.0954 25.0756 45.5442 25.2225 45.9748 25.4077C46.4094 25.5928 46.7978 25.8262 47.1399 26.108C47.486 26.3897 47.7597 26.7298 47.9609 27.1282C48.1622 27.5266 48.2628 27.9935 48.2628 28.5288C48.2628 29.2532 48.0777 29.8911 47.7074 30.4425C47.3371 30.9898 46.8018 31.4184 46.1016 31.7283C45.4053 32.0342 44.5621 32.1871 43.5721 32.1871C42.6102 32.1871 41.7751 32.0382 41.0668 31.7404C40.3625 31.4426 39.8111 31.0079 39.4126 30.4364C39.0182 29.8649 38.8049 29.1687 38.7727 28.3477H40.9762C41.0084 28.7783 41.1412 29.1365 41.3746 29.4222C41.6081 29.708 41.9119 29.9213 42.2862 30.0621C42.6645 30.203 43.0871 30.2734 43.554 30.2734C44.041 30.2734 44.4676 30.201 44.8338 30.0561C45.2041 29.9072 45.4938 29.7019 45.7031 29.4403C45.9124 29.1747 46.0191 28.8648 46.0231 28.5107C46.0191 28.1887 45.9245 27.9231 45.7393 27.7138C45.5542 27.5005 45.2946 27.3234 44.9606 27.1825C44.6306 27.0376 44.2442 26.9089 43.8015 26.7962L42.3949 26.4339C41.3767 26.1723 40.5717 25.7759 39.9801 25.2447C39.3925 24.7094 39.0987 23.9991 39.0987 23.1136C39.0987 22.3852 39.2959 21.7473 39.6903 21.1999C40.0888 20.6526 40.6301 20.228 41.3143 19.9261C41.9985 19.6203 42.7732 19.4673 43.6385 19.4673C44.5159 19.4673 45.2846 19.6203 45.9446 19.9261C46.6087 20.228 47.1299 20.6486 47.5082 21.1879C47.8865 21.7231 48.0817 22.3389 48.0938 23.0352H45.9386ZM54.4491 32H50.2595V19.6364H54.5336C55.7612 19.6364 56.8156 19.8839 57.697 20.3789C58.5824 20.8699 59.2626 21.5762 59.7375 22.4979C60.2124 23.4195 60.4498 24.5223 60.4498 25.8061C60.4498 27.094 60.2104 28.2008 59.7314 29.1264C59.2565 30.0521 58.5703 30.7624 57.6729 31.2575C56.7794 31.7525 55.7048 32 54.4491 32ZM52.4992 30.0621H54.3405C55.2017 30.0621 55.9201 29.9052 56.4956 29.5913C57.0712 29.2733 57.5038 28.8004 57.7936 28.1726C58.0834 27.5407 58.2283 26.7519 58.2283 25.8061C58.2283 24.8603 58.0834 24.0755 57.7936 23.4517C57.5038 22.8239 57.0752 22.355 56.5077 22.0451C55.9443 21.7312 55.244 21.5742 54.4069 21.5742H52.4992V30.0621ZM62.5779 32V19.6364H64.8176V25.3171H64.9685L69.792 19.6364H72.5267L67.7455 25.1843L72.569 32H69.8765L66.1879 26.6996L64.8176 28.3175V32H62.5779Z" fill="white"/>
<path fill-rule="evenodd" clip-rule="evenodd" d="M17 32.443V18.557C17 18.2493 17.2487 17.9998 17.5556 18H35.4444C35.7513 18 36 18.2493 36 18.557V32.443C36 32.7507 35.7513 33 35.4444 33H17.5556C17.2487 33 17 32.7507 17 32.443ZM34.6398 21.4116V19.3636H18.3602V21.4116H34.6398ZM18.3602 22.7753V31.6362H34.6398V22.7753H18.3602ZM20 26.9051L22.5807 24.263C22.6605 24.1811 22.7902 24.1811 22.8702 24.2628L23.5571 24.9661C23.5761 24.9855 23.5912 25.0086 23.6015 25.0341C23.6118 25.0595 23.6171 25.0867 23.6171 25.1143C23.6171 25.1418 23.6118 25.1691 23.6015 25.1945C23.5912 25.2199 23.5761 25.243 23.5571 25.2625L21.9527 26.9051L23.5571 28.5478C23.5761 28.5672 23.5912 28.5903 23.6015 28.6158C23.6118 28.6412 23.6171 28.6685 23.6171 28.696C23.6171 28.7235 23.6118 28.7508 23.6015 28.7762C23.5912 28.8016 23.5761 28.8247 23.5571 28.8442L22.8702 29.5475C22.8512 29.5669 22.8287 29.5824 22.8038 29.5929C22.779 29.6035 22.7524 29.6089 22.7255 29.6089C22.6986 29.6089 22.672 29.6035 22.6471 29.5929C22.6223 29.5824 22.5997 29.5669 22.5807 29.5475L20 26.9051ZM31.0473 26.9051L29.4429 25.2625C29.3629 25.1808 29.3629 25.048 29.4427 24.9663L30.1296 24.263C30.1486 24.2435 30.1711 24.2281 30.196 24.2175C30.2208 24.207 30.2474 24.2016 30.2743 24.2016C30.3012 24.2016 30.3278 24.207 30.3527 24.2175C30.3775 24.2281 30.4001 24.2435 30.4191 24.263L33 26.9051L30.4193 29.5475C30.4003 29.5669 30.3777 29.5824 30.3529 29.5929C30.328 29.6035 30.3014 29.6089 30.2745 29.6089C30.2476 29.6089 30.221 29.6035 30.1962 29.5929C30.1713 29.5824 30.1488 29.5669 30.1298 29.5475L29.4429 28.8442C29.4239 28.8247 29.4088 28.8016 29.3985 28.7762C29.3882 28.7508 29.3829 28.7235 29.3829 28.696C29.3829 28.6685 29.3882 28.6412 29.3985 28.6158C29.4088 28.5903 29.4239 28.5672 29.4429 28.5478L31.0473 26.9051ZM25.7333 29.9826L24.8424 29.5868C24.7386 29.5406 24.6909 29.4171 24.736 29.3109L26.9332 24.1263C26.978 24.0201 27.0986 23.9712 27.2024 24.0174L28.0933 24.4132C28.1971 24.4592 28.2448 24.5826 28.1997 24.6889L26.0025 29.8737C25.9577 29.9799 25.8371 30.0288 25.7333 29.9826Z" fill="white"/>
<path d="M14 37C26.5 37 58.6 37 67 37C75.4 37 76.8333 29.6667 76.5 26.5V18L68 9.5C55 9.5 27.3 9.5 20.5 9.5C13.7 9.5 11.6667 15.1667 11.5 18V30.5M6 24.5V34.5L17 45.5H61.5" stroke="#64BAD4" stroke-width="1.5" stroke-linecap="round"/>
<path d="M26.5 4.5H71L82 15.5V26.5" stroke="#64BAD4" stroke-width="1.5" stroke-linecap="round"/>
<path d="M20.5 14H51" stroke="#64BAD4" stroke-width="1.5" stroke-linecap="round"/>
<path d="M57.5 14H66.5" stroke="#64BAD4" stroke-width="1.5" stroke-linecap="round"/>
<path d="M19.5 41.5H40.5" stroke="#64BAD4" stroke-width="1.5" stroke-linecap="round"/>
<path d="M48.5 41.5H61" stroke="#64BAD4" stroke-width="1.5" stroke-linecap="round"/>
<defs>
<linearGradient id="paint0_linear_80_2427" x1="35.5" y1="33.4375" x2="75.1915" y2="64.2659" gradientUnits="userSpaceOnUse">
<stop stop-color="#48A1C8"/>
<stop offset="0.337689" stop-color="#08B7CF"/>
<stop offset="1" stop-color="#1D428A"/>
</linearGradient>
</defs>
</svg>
