<svg width="30" height="30" viewBox="0 0 30 30" fill="none" xmlns="http://www.w3.org/2000/svg">
<path fill-rule="evenodd" clip-rule="evenodd" d="M24 12.4139C24 7.77444 20.1869 4 15.5 4C10.8131 4 7 7.77444 7 12.4139C7 15.4999 8.7316 18.3558 11.4451 19.8195L11.4452 23.3837C11.4452 24.8263 12.7762 26 14.412 26H16.5879C18.2238 26 19.5548 24.8263 19.5548 23.3837V19.8195C22.2684 18.3557 24 15.4998 24 12.4139ZM18.5247 18.7424C18.5161 18.7464 18.5083 18.7515 18.5006 18.7565C18.4951 18.7601 18.4896 18.7637 18.4837 18.7669L18.4777 18.7703C18.4566 18.782 18.4357 18.7936 18.4161 18.8074C18.3994 18.8192 18.3844 18.8322 18.3692 18.8454L18.3623 18.8513L18.356 18.8568C18.3407 18.8699 18.3256 18.8829 18.3117 18.8975C18.2956 18.9143 18.2815 18.9323 18.2674 18.9505L18.2661 18.9522L18.2633 18.9557C18.2503 18.9722 18.2375 18.9886 18.2261 19.0064C18.2142 19.025 18.2044 19.0444 18.1944 19.0641L18.1931 19.0665L18.1915 19.0697C18.1815 19.0894 18.1715 19.1089 18.1634 19.1296C18.1557 19.1492 18.1501 19.1692 18.1444 19.1894L18.1425 19.196L18.1399 19.2053C18.1346 19.2238 18.1293 19.2423 18.1258 19.2616C18.1214 19.2861 18.1197 19.3108 18.1181 19.3358L18.1177 19.3411C18.1173 19.3476 18.1164 19.354 18.1155 19.3603L18.1155 19.3603C18.1143 19.3691 18.1131 19.3779 18.1131 19.387V23.3837C18.1131 24.0284 17.4146 24.573 16.588 24.573H14.4121C13.5854 24.573 12.887 24.0284 12.887 23.3837L12.8868 19.387C12.8868 19.3778 12.8856 19.369 12.8844 19.3603L12.8844 19.3602C12.8835 19.3539 12.8826 19.3475 12.8821 19.341L12.8818 19.3356L12.8818 19.3356C12.8801 19.3108 12.8785 19.2861 12.8741 19.2618C12.8705 19.2422 12.8652 19.2235 12.8599 19.2048L12.8598 19.2047L12.8573 19.1957L12.8553 19.1888C12.8497 19.1689 12.8442 19.1491 12.8366 19.1298C12.8284 19.1089 12.8184 19.0893 12.8083 19.0695L12.8082 19.0695L12.8066 19.0663L12.8049 19.063C12.7952 19.0438 12.7855 19.0248 12.7739 19.0066C12.7621 18.9882 12.7488 18.9713 12.7354 18.9542L12.7337 18.952L12.7328 18.9509C12.7185 18.9326 12.7045 18.9145 12.6883 18.8976C12.6743 18.8829 12.659 18.8698 12.6437 18.8566L12.6377 18.8515L12.6306 18.8453L12.6306 18.8453C12.6155 18.8322 12.6004 18.8191 12.5837 18.8074C12.5643 18.7936 12.5435 18.7821 12.5225 18.7705L12.517 18.7674C12.5111 18.7641 12.5055 18.7605 12.4999 18.7568C12.492 18.7517 12.4841 18.7466 12.4753 18.7424C10.025 17.5901 8.44165 15.1061 8.44165 12.4139C8.44165 8.56139 11.608 5.4271 15.5 5.4271C19.3919 5.4271 22.5583 8.56139 22.5583 12.4139C22.5583 15.106 20.975 17.5901 18.5247 18.7424ZM20.9052 11.3269C20.531 9.41104 19.1016 7.81396 17.0817 7.05472C16.6861 6.90611 16.2292 7.07059 16.0617 7.42241C15.8942 7.77423 16.0794 8.18008 16.4754 8.3289C18.0056 8.90407 19.0883 10.1133 19.3716 11.5635C19.4194 11.8095 19.4434 12.0587 19.4434 12.3083C19.4434 12.6903 19.7919 13 20.2217 13C20.6515 13 21 12.6903 21 12.3083C21 11.979 20.9682 11.6488 20.9052 11.3269ZM14 20.5744C14 20.2572 14.329 20 14.7347 20H17.2653C17.6711 20 18 20.2572 18 20.5744C18 20.8916 17.671 21.1488 17.2653 21.1488H14.7347C14.329 21.1488 14 20.8916 14 20.5744ZM14 22.4256C14 22.1084 14.329 21.8512 14.7347 21.8512H17.2653C17.6711 21.8512 18 22.1084 18 22.4256C18 22.7428 17.671 23 17.2653 23H14.7347C14.329 23 14 22.7428 14 22.4256Z" fill="#97B7EF"/>
<path d="M11.4451 19.8195L11.6451 19.8195L11.6451 19.7001L11.5401 19.6435L11.4451 19.8195ZM11.4452 23.3837H11.6452V23.3837L11.4452 23.3837ZM19.5548 19.8195L19.4598 19.6434L19.3548 19.7001V19.8195H19.5548ZM18.5006 18.7565L18.3915 18.5889L18.3915 18.5889L18.5006 18.7565ZM18.5247 18.7424L18.6097 18.9234L18.6098 18.9234L18.5247 18.7424ZM18.4837 18.7669L18.3867 18.592L18.3867 18.592L18.4837 18.7669ZM18.4777 18.7703L18.5747 18.9452L18.5747 18.9452L18.4777 18.7703ZM18.4161 18.8074L18.5315 18.9707L18.5315 18.9707L18.4161 18.8074ZM18.3692 18.8454L18.5001 18.9966L18.5002 18.9965L18.3692 18.8454ZM18.3623 18.8513L18.4929 19.0028L18.4931 19.0026L18.3623 18.8513ZM18.356 18.8568L18.4864 19.0084L18.4866 19.0083L18.356 18.8568ZM18.3117 18.8975L18.1671 18.7593L18.1671 18.7593L18.3117 18.8975ZM18.2674 18.9505L18.1097 18.8275L18.1096 18.8276L18.2674 18.9505ZM18.2661 18.9522L18.4234 19.0756L18.4238 19.0751L18.2661 18.9522ZM18.2633 18.9557L18.4207 19.0791L18.4207 19.0791L18.2633 18.9557ZM18.2261 19.0064L18.0577 18.8986L18.0575 18.8988L18.2261 19.0064ZM18.1944 19.0641L18.3727 19.1546L18.3727 19.1546L18.1944 19.0641ZM18.1931 19.0665L18.3712 19.1576L18.3715 19.1571L18.1931 19.0665ZM18.1915 19.0697L18.3696 19.1608L18.3696 19.1608L18.1915 19.0697ZM18.1634 19.1296L17.9772 19.0565L17.9771 19.0566L18.1634 19.1296ZM18.1444 19.1894L18.3369 19.2435L18.3369 19.2435L18.1444 19.1894ZM18.1425 19.196L18.3349 19.2507L18.335 19.2502L18.1425 19.196ZM18.1399 19.2053L18.3322 19.2601L18.3323 19.2599L18.1399 19.2053ZM18.1258 19.2616L18.3226 19.2975L18.3227 19.2972L18.1258 19.2616ZM18.1181 19.3358L18.3177 19.349L18.3177 19.349L18.1181 19.3358ZM18.1177 19.3411L17.9182 19.3279L17.9182 19.328L18.1177 19.3411ZM18.1155 19.3603L17.9174 19.3325L17.9171 19.3355L18.1155 19.3603ZM18.1155 19.3603L18.3136 19.3881L18.314 19.3851L18.1155 19.3603ZM12.887 23.3837H13.087V23.3837L12.887 23.3837ZM12.8868 19.387H12.6868V19.387L12.8868 19.387ZM12.8844 19.3603L13.0825 19.3324L13.0816 19.3274L12.8844 19.3603ZM12.8844 19.3602L12.6862 19.3881L12.6871 19.3931L12.8844 19.3602ZM12.8821 19.341L13.0817 19.3279L13.0817 19.3277L12.8821 19.341ZM12.8818 19.3356L12.6819 19.3447L12.6822 19.3489L12.8818 19.3356ZM12.8818 19.3356L13.0816 19.3265L13.0813 19.3223L12.8818 19.3356ZM12.8741 19.2618L12.6772 19.2971L12.6773 19.2976L12.8741 19.2618ZM12.8599 19.2048L13.0522 19.1499L13.0514 19.1473L12.8599 19.2048ZM12.8598 19.2047L12.6675 19.2595L12.6683 19.2622L12.8598 19.2047ZM12.8573 19.1957L12.6648 19.25L12.6649 19.2505L12.8573 19.1957ZM12.8553 19.1888L12.6628 19.243L12.6628 19.2431L12.8553 19.1888ZM12.8366 19.1298L13.0228 19.0569L13.0228 19.0569L12.8366 19.1298ZM12.8083 19.0695L12.6294 19.1589L12.6302 19.1606L12.8083 19.0695ZM12.8082 19.0695L12.9871 18.98L12.9863 18.9784L12.8082 19.0695ZM12.8066 19.0663L12.6284 19.1571L12.6286 19.1574L12.8066 19.0663ZM12.8049 19.063L12.6267 19.1538L12.6267 19.1538L12.8049 19.063ZM12.7739 19.0066L12.9425 18.8991L12.9423 18.8987L12.7739 19.0066ZM12.7354 18.9542L12.5781 19.0777L12.5781 19.0777L12.7354 18.9542ZM12.7337 18.952L12.5759 19.075L12.5764 19.0755L12.7337 18.952ZM12.7328 18.9509L12.575 19.0738L12.575 19.0738L12.7328 18.9509ZM12.6883 18.8976L12.5437 19.0357L12.5437 19.0358L12.6883 18.8976ZM12.6437 18.8566L12.5132 19.0082L12.5133 19.0083L12.6437 18.8566ZM12.6377 18.8515L12.5068 19.0027L12.5072 19.003L12.6377 18.8515ZM12.6306 18.8453L12.7618 18.6938L12.7506 18.6853L12.6306 18.8453ZM12.6306 18.8453L12.4996 18.9964L12.505 19.0011L12.5106 19.0053L12.6306 18.8453ZM12.5837 18.8074L12.4681 18.9706L12.4685 18.9708L12.5837 18.8074ZM12.5225 18.7705L12.4256 18.9454L12.4256 18.9454L12.5225 18.7705ZM12.517 18.7674L12.4198 18.9422L12.42 18.9423L12.517 18.7674ZM12.4999 18.7568L12.3909 18.9245L12.3909 18.9245L12.4999 18.7568ZM12.4753 18.7424L12.5604 18.5615L12.5604 18.5614L12.4753 18.7424ZM22.5583 12.4139H22.3583V12.4139L22.5583 12.4139ZM17.0817 7.05472L17.1521 6.8675L17.152 6.86749L17.0817 7.05472ZM20.9052 11.3269L20.7089 11.3653L20.709 11.3653L20.9052 11.3269ZM16.0617 7.42241L16.2423 7.50838L16.2423 7.50837L16.0617 7.42241ZM16.4754 8.3289L16.5458 8.14169L16.5458 8.14169L16.4754 8.3289ZM19.3716 11.5635L19.5679 11.5253L19.5679 11.5251L19.3716 11.5635ZM19.4434 12.3083L19.2434 12.3083V12.3083H19.4434ZM15.5 4.2C20.0784 4.2 23.8 7.88681 23.8 12.4139H24.2C24.2 7.66206 20.2955 3.8 15.5 3.8V4.2ZM7.2 12.4139C7.2 7.88681 10.9216 4.2 15.5 4.2V3.8C10.7046 3.8 6.8 7.66206 6.8 12.4139H7.2ZM11.5401 19.6435C8.89022 18.2141 7.2 15.4252 7.2 12.4139H6.8C6.8 15.5746 8.57297 18.4974 11.3502 19.9955L11.5401 19.6435ZM11.6452 23.3837L11.6451 19.8195L11.2451 19.8195L11.2452 23.3837L11.6452 23.3837ZM14.412 25.8C12.8623 25.8 11.6452 24.693 11.6452 23.3837H11.2452C11.2452 24.9597 12.6901 26.2 14.412 26.2V25.8ZM16.5879 25.8H14.412V26.2H16.5879V25.8ZM19.3548 23.3837C19.3548 24.693 18.1377 25.8 16.5879 25.8V26.2C18.3099 26.2 19.7548 24.9597 19.7548 23.3837H19.3548ZM19.3548 19.8195V23.3837H19.7548V19.8195H19.3548ZM23.8 12.4139C23.8 15.4251 22.1098 18.214 19.4598 19.6434L19.6497 19.9955C22.427 18.4974 24.2 15.5745 24.2 12.4139H23.8ZM18.6097 18.9242L18.6097 18.9234L18.4396 18.5614C18.4166 18.5722 18.3976 18.5849 18.3915 18.5889L18.6097 18.9242ZM18.5807 18.9419C18.5937 18.9346 18.6051 18.9271 18.6097 18.9242L18.3915 18.5889C18.3885 18.5908 18.3872 18.5917 18.3862 18.5923C18.3854 18.5928 18.3857 18.5926 18.3867 18.592L18.5807 18.9419ZM18.5747 18.9452L18.5807 18.9418L18.3867 18.592L18.3807 18.5954L18.5747 18.9452ZM18.5315 18.9707C18.5407 18.9642 18.5519 18.9578 18.5747 18.9452L18.3808 18.5953C18.3613 18.6061 18.3306 18.6229 18.3006 18.6441L18.5315 18.9707ZM18.5002 18.9965C18.5164 18.9824 18.5242 18.9759 18.5315 18.9707L18.3006 18.6441C18.2746 18.6625 18.2523 18.682 18.2383 18.6942L18.5002 18.9965ZM18.4931 19.0026L18.5001 18.9966L18.2384 18.6941L18.2315 18.7001L18.4931 19.0026ZM18.4866 19.0083L18.4929 19.0028L18.2317 18.6998L18.2254 18.7053L18.4866 19.0083ZM18.4562 19.0357C18.4623 19.0293 18.47 19.0225 18.4864 19.0084L18.2255 18.7052C18.2114 18.7173 18.1889 18.7365 18.1671 18.7593L18.4562 19.0357ZM18.4251 19.0735C18.4402 19.0541 18.4483 19.044 18.4563 19.0357L18.1671 18.7593C18.1429 18.7846 18.1229 18.8106 18.1097 18.8275L18.4251 19.0735ZM18.4238 19.0751L18.4251 19.0734L18.1096 18.8276L18.1083 18.8293L18.4238 19.0751ZM18.4207 19.0791L18.4234 19.0756L18.1087 18.8288L18.1059 18.8323L18.4207 19.0791ZM18.3946 19.1142C18.3999 19.1058 18.4068 19.0969 18.4207 19.0791L18.1059 18.8323C18.0939 18.8476 18.0751 18.8714 18.0577 18.8986L18.3946 19.1142ZM18.3727 19.1546C18.3834 19.1336 18.389 19.123 18.3947 19.114L18.0575 18.8988C18.0395 18.9271 18.0253 18.9553 18.0161 18.9735L18.3727 19.1546ZM18.3715 19.1571L18.3727 19.1546L18.0161 18.9735L18.0148 18.9759L18.3715 19.1571ZM18.3696 19.1608L18.3712 19.1576L18.0151 18.9755L18.0134 18.9787L18.3696 19.1608ZM18.3495 19.2027C18.3535 19.1927 18.3588 19.1818 18.3696 19.1608L18.0134 18.9787C18.0041 18.9969 17.9895 19.0251 17.9772 19.0565L18.3495 19.2027ZM18.3369 19.2435C18.343 19.2217 18.3461 19.2113 18.3496 19.2026L17.9771 19.0566C17.9652 19.087 17.9571 19.1167 17.9518 19.1353L18.3369 19.2435ZM18.335 19.2502L18.3369 19.2435L17.9519 19.1352L17.95 19.1419L18.335 19.2502ZM18.3323 19.2599L18.3349 19.2507L17.9501 19.1414L17.9475 19.1506L18.3323 19.2599ZM18.3227 19.2972C18.3241 19.2892 18.3265 19.2801 18.3322 19.2601L17.9476 19.1504C17.9427 19.1675 17.9346 19.1954 17.929 19.226L18.3227 19.2972ZM18.3177 19.349C18.3194 19.3221 18.3205 19.3088 18.3226 19.2975L17.9291 19.2257C17.9222 19.2633 17.9201 19.2995 17.9185 19.3226L18.3177 19.349ZM18.3173 19.3544L18.3177 19.349L17.9185 19.3225L17.9182 19.3279L18.3173 19.3544ZM18.3136 19.388C18.3143 19.3829 18.3163 19.3693 18.3173 19.3543L17.9182 19.328C17.9183 19.3265 17.9184 19.3259 17.9183 19.3267C17.9181 19.3277 17.918 19.329 17.9175 19.3325L18.3136 19.388ZM18.314 19.3851L18.314 19.3851L17.9171 19.3355L17.9171 19.3355L18.314 19.3851ZM18.3131 19.387C18.3131 19.3913 18.3128 19.3941 18.3128 19.3942C18.3128 19.3943 18.3128 19.394 18.3129 19.3929C18.3131 19.3917 18.3133 19.3904 18.3136 19.3881L17.9175 19.3325C17.9165 19.3393 17.9131 19.3617 17.9131 19.387H18.3131ZM18.3131 23.3837V19.387H17.9131V23.3837H18.3131ZM16.588 24.773C17.044 24.773 17.469 24.6231 17.7835 24.3778C18.0975 24.133 18.3131 23.782 18.3131 23.3837H17.9131C17.9131 23.6301 17.7794 23.8737 17.5375 24.0624C17.2962 24.2505 16.9586 24.373 16.588 24.373V24.773ZM14.4121 24.773H16.588V24.373H14.4121V24.773ZM12.687 23.3837C12.687 23.782 12.9025 24.133 13.2165 24.3778C13.5311 24.6231 13.9561 24.773 14.4121 24.773V24.373C14.0414 24.373 13.7038 24.2505 13.4625 24.0624C13.2206 23.8737 13.087 23.6301 13.087 23.3837H12.687ZM12.6868 19.387L12.687 23.3837L13.087 23.3837L13.0868 19.387L12.6868 19.387ZM12.6863 19.3881C12.6866 19.3904 12.6868 19.3917 12.687 19.3929C12.6871 19.394 12.6871 19.3943 12.6871 19.3942C12.6871 19.3941 12.6868 19.3913 12.6868 19.387H13.0868C13.0868 19.3616 13.0834 19.3392 13.0824 19.3324L12.6863 19.3881ZM12.6871 19.3931L12.6871 19.3931L13.0816 19.3274L13.0816 19.3274L12.6871 19.3931ZM12.6826 19.3541C12.6836 19.3692 12.6856 19.3829 12.6863 19.3881L13.0824 19.3324C13.0819 19.3289 13.0817 19.3276 13.0816 19.3266C13.0815 19.3257 13.0816 19.3264 13.0817 19.3279L12.6826 19.3541ZM12.6822 19.3489L12.6826 19.3543L13.0817 19.3277L13.0813 19.3223L12.6822 19.3489ZM12.682 19.3447L12.682 19.3447L13.0816 19.3265L13.0816 19.3265L12.682 19.3447ZM12.6773 19.2976C12.6793 19.3089 12.6804 19.3221 12.6822 19.3488L13.0813 19.3223C13.0798 19.2994 13.0776 19.2634 13.0708 19.2259L12.6773 19.2976ZM12.6675 19.2597C12.6733 19.2799 12.6758 19.289 12.6772 19.2971L13.0709 19.2264C13.0653 19.1954 13.0571 19.1672 13.0522 19.1499L12.6675 19.2597ZM12.6683 19.2622L12.6683 19.2622L13.0514 19.1473L13.0514 19.1473L12.6683 19.2622ZM12.6649 19.2505L12.6675 19.2595L13.0522 19.15L13.0496 19.141L12.6649 19.2505ZM12.6628 19.2431L12.6648 19.25L13.0498 19.1415L13.0478 19.1345L12.6628 19.2431ZM12.6503 19.2026C12.6537 19.2113 12.6568 19.2215 12.6628 19.243L13.0478 19.1346C13.0427 19.1162 13.0346 19.0869 13.0228 19.0569L12.6503 19.2026ZM12.6302 19.1606C12.6411 19.1819 12.6464 19.1926 12.6503 19.2026L13.0228 19.0569C13.0104 19.0252 12.9957 18.9967 12.9863 18.9784L12.6302 19.1606ZM12.6294 19.1589L12.6294 19.1589L12.9871 18.9801L12.9871 18.98L12.6294 19.1589ZM12.6286 19.1574L12.6302 19.1606L12.9863 18.9784L12.9846 18.9751L12.6286 19.1574ZM12.6267 19.1538L12.6284 19.1571L12.9848 18.9754L12.9831 18.9722L12.6267 19.1538ZM12.6052 19.114C12.6108 19.1228 12.6163 19.1333 12.6267 19.1538L12.9831 18.9722C12.974 18.9544 12.9602 18.9268 12.9425 18.8991L12.6052 19.114ZM12.5781 19.0777C12.5925 19.096 12.5997 19.1055 12.6055 19.1145L12.9423 18.8987C12.9245 18.8709 12.9052 18.8466 12.8927 18.8307L12.5781 19.0777ZM12.5764 19.0755L12.5781 19.0777L12.8927 18.8307L12.891 18.8285L12.5764 19.0755ZM12.575 19.0738L12.5759 19.075L12.8914 18.8291L12.8905 18.8279L12.575 19.0738ZM12.5437 19.0358C12.5517 19.0442 12.5598 19.0543 12.575 19.0738L12.8906 18.828C12.8773 18.8109 12.8572 18.7848 12.8329 18.7594L12.5437 19.0358ZM12.5133 19.0083C12.5299 19.0225 12.5376 19.0293 12.5437 19.0357L12.8329 18.7595C12.811 18.7365 12.7882 18.7171 12.7741 18.705L12.5133 19.0083ZM12.5072 19.003L12.5132 19.0082L12.7742 18.705L12.7682 18.6999L12.5072 19.003ZM12.4997 18.9966L12.5068 19.0027L12.7686 18.7002L12.7615 18.6941L12.4997 18.9966ZM12.5106 19.0053L12.5106 19.0053L12.7506 18.6853L12.7506 18.6853L12.5106 19.0053ZM12.4685 18.9708C12.4756 18.9759 12.4833 18.9823 12.4996 18.9964L12.7616 18.6942C12.7476 18.6821 12.7252 18.6624 12.699 18.6439L12.4685 18.9708ZM12.4256 18.9454C12.4482 18.9579 12.4592 18.9643 12.4681 18.9706L12.6993 18.6442C12.6694 18.6229 12.6388 18.6062 12.6195 18.5955L12.4256 18.9454ZM12.42 18.9423L12.4256 18.9454L12.6195 18.5956L12.6139 18.5925L12.42 18.9423ZM12.3909 18.9245C12.3955 18.9275 12.4068 18.935 12.4198 18.9422L12.6142 18.5926C12.6151 18.5931 12.6153 18.5933 12.6144 18.5927C12.6133 18.592 12.612 18.5911 12.6089 18.5892L12.3909 18.9245ZM12.3902 18.9234C12.3867 18.9217 12.3846 18.9205 12.3848 18.9206C12.3854 18.921 12.3864 18.9216 12.3909 18.9245L12.6089 18.5892C12.6027 18.5851 12.5836 18.5723 12.5604 18.5615L12.3902 18.9234ZM8.24165 12.4139C8.24165 15.1841 9.87025 17.7384 12.3902 18.9234L12.5604 18.5614C10.1797 17.4419 8.64165 15.028 8.64165 12.4139H8.24165ZM15.5 5.2271C11.4995 5.2271 8.24165 8.44902 8.24165 12.4139H8.64165C8.64165 8.67377 11.7166 5.6271 15.5 5.6271V5.2271ZM22.7583 12.4139C22.7583 8.44902 19.5004 5.2271 15.5 5.2271V5.6271C19.2834 5.6271 22.3583 8.67377 22.3583 12.4139H22.7583ZM18.6098 18.9234C21.1297 17.7383 22.7583 15.1841 22.7583 12.4139L22.3583 12.4139C22.3583 15.028 20.8203 17.4418 18.4396 18.5614L18.6098 18.9234ZM17.0113 7.24193C18.9745 7.97983 20.3496 9.52567 20.7089 11.3653L21.1015 11.2886C20.7124 9.29642 19.2287 7.64808 17.1521 6.8675L17.0113 7.24193ZM16.2423 7.50837C16.3593 7.26244 16.7 7.12496 17.0114 7.24194L17.152 6.86749C16.6722 6.68726 16.099 6.87875 15.8811 7.33646L16.2423 7.50837ZM16.5458 8.14169C16.2426 8.02776 16.1326 7.73886 16.2423 7.50838L15.8811 7.33645C15.6559 7.8096 15.9162 8.33241 16.4051 8.51612L16.5458 8.14169ZM19.5679 11.5251C19.2697 9.99862 18.1326 8.73817 16.5458 8.14169L16.4051 8.51612C17.8785 9.06997 18.9069 10.228 19.1753 11.6018L19.5679 11.5251ZM19.6434 12.3083C19.6434 12.0458 19.6182 11.7838 19.5679 11.5253L19.1752 11.6017C19.2206 11.8351 19.2434 12.0715 19.2434 12.3083L19.6434 12.3083ZM20.2217 12.8C19.8795 12.8 19.6434 12.5583 19.6434 12.3083H19.2434C19.2434 12.8223 19.7043 13.2 20.2217 13.2V12.8ZM20.8 12.3083C20.8 12.5583 20.5639 12.8 20.2217 12.8V13.2C20.7391 13.2 21.2 12.8223 21.2 12.3083H20.8ZM20.709 11.3653C20.7694 11.6744 20.8 11.9918 20.8 12.3083H21.2C21.2 11.9662 21.167 11.6232 21.1015 11.2885L20.709 11.3653ZM14.7347 19.8C14.2671 19.8 13.8 20.1037 13.8 20.5744H14.2C14.2 20.4107 14.3908 20.2 14.7347 20.2V19.8ZM17.2653 19.8H14.7347V20.2H17.2653V19.8ZM18.2 20.5744C18.2 20.1037 17.7329 19.8 17.2653 19.8V20.2C17.6092 20.2 17.8 20.4107 17.8 20.5744H18.2ZM17.2653 21.3488C17.7329 21.3488 18.2 21.0451 18.2 20.5744H17.8C17.8 20.7381 17.6092 20.9488 17.2653 20.9488V21.3488ZM14.7347 21.3488H17.2653V20.9488H14.7347V21.3488ZM13.8 20.5744C13.8 21.0451 14.2671 21.3488 14.7347 21.3488V20.9488C14.3908 20.9488 14.2 20.7381 14.2 20.5744H13.8ZM14.7347 21.6512C14.2671 21.6512 13.8 21.9549 13.8 22.4256H14.2C14.2 22.2619 14.3908 22.0512 14.7347 22.0512V21.6512ZM17.2653 21.6512H14.7347V22.0512H17.2653V21.6512ZM18.2 22.4256C18.2 21.9549 17.7329 21.6512 17.2653 21.6512V22.0512C17.6092 22.0512 17.8 22.2619 17.8 22.4256H18.2ZM17.2653 23.2C17.7329 23.2 18.2 22.8963 18.2 22.4256H17.8C17.8 22.5893 17.6092 22.8 17.2653 22.8V23.2ZM14.7347 23.2H17.2653V22.8H14.7347V23.2ZM13.8 22.4256C13.8 22.8963 14.2671 23.2 14.7347 23.2V22.8C14.3908 22.8 14.2 22.5893 14.2 22.4256H13.8Z" fill="#97B7EF"/>
</svg>
