<svg width="16" height="16" viewBox="0 0 16 16" fill="none" xmlns="http://www.w3.org/2000/svg">
<g clip-path="url(#clip0_484_170)">
<path d="M10.2065 5.79348C12.0736 7.66252 12.048 10.659 10.2178 12.4994C10.2143 12.5032 10.2103 12.5072 10.2065 12.511L8.10652 14.611C6.25433 16.4632 3.24092 16.4629 1.38902 14.611C-0.463169 12.7591 -0.463169 9.74536 1.38902 7.89348L2.54858 6.73392C2.85608 6.42642 3.38564 6.6308 3.40152 7.06536C3.42177 7.61917 3.52108 8.17558 3.70433 8.71289C3.76639 8.89483 3.72205 9.09608 3.58611 9.23202L3.17714 9.64098C2.30133 10.5168 2.27386 11.9429 3.14105 12.8272C4.0168 13.7203 5.45624 13.7256 6.33871 12.8432L8.4387 10.7435C9.31967 9.86251 9.31599 8.43858 8.4387 7.5613C8.32305 7.44586 8.20655 7.35617 8.11555 7.29352C8.05117 7.24931 7.99802 7.19067 7.96032 7.12227C7.92263 7.05387 7.90145 6.97762 7.89846 6.89958C7.88608 6.56936 8.00308 6.22908 8.26402 5.96814L8.92196 5.31017C9.09449 5.13764 9.36514 5.11645 9.56521 5.25608C9.79432 5.41606 10.0089 5.59589 10.2065 5.79348ZM14.6107 1.38905C12.7588 -0.462891 9.74542 -0.463141 7.89324 1.38905L5.79324 3.48905C5.78949 3.4928 5.78542 3.49686 5.78199 3.50061C3.9518 5.34098 3.92614 8.33752 5.79324 10.2065C5.99082 10.4041 6.20541 10.5839 6.43452 10.7439C6.63458 10.8835 6.90527 10.8623 7.07777 10.6898L7.73571 10.0319C7.99664 9.77092 8.11364 9.43064 8.10127 9.10042C8.09828 9.02238 8.07709 8.94613 8.0394 8.87773C8.00171 8.80933 7.94855 8.75069 7.88417 8.70648C7.79317 8.64383 7.67667 8.55414 7.56102 8.4387C6.68374 7.56142 6.68005 6.13748 7.56102 5.25652L9.66102 3.15683C10.5435 2.27436 11.9829 2.27967 12.8587 3.17277C13.7259 4.05714 13.6984 5.4832 12.8226 6.35902L12.4136 6.76798C12.2777 6.90392 12.2333 7.10517 12.2954 7.28711C12.4786 7.82442 12.578 8.38083 12.5982 8.93464C12.6141 9.3692 13.1436 9.57358 13.4511 9.26608L14.6107 8.10651C16.4629 6.25467 16.4629 3.24092 14.6107 1.38905Z" fill="#B5B7CF"/>
</g>
<defs>
<clipPath id="clip0_484_170">
<rect width="16" height="16" fill="white"/>
</clipPath>
</defs>
</svg>
