<svg width="16" height="17" viewBox="0 0 16 17" fill="none" xmlns="http://www.w3.org/2000/svg">
<path d="M11.3333 9.44444C12.3353 9.44444 13.2962 9.84246 14.0046 10.5509C14.7131 11.2594 15.1111 12.2203 15.1111 13.2222V16.7167C15.1111 16.7918 15.0813 16.8639 15.0281 16.917C14.975 16.9701 14.9029 17 14.8278 17H0.283333C0.208189 17 0.136122 16.9701 0.0829864 16.917C0.0298511 16.8639 0 16.7918 0 16.7167V13.2222C4.40301e-09 12.2203 0.398015 11.2594 1.10649 10.5509C1.81496 9.84246 2.77585 9.44444 3.77778 9.44444H11.3333ZM7.55556 0C8.68273 0 9.76373 0.447767 10.5608 1.2448C11.3578 2.04183 11.8056 3.12283 11.8056 4.25C11.8056 5.37717 11.3578 6.45817 10.5608 7.2552C9.76373 8.05223 8.68273 8.5 7.55556 8.5C6.42839 8.5 5.34738 8.05223 4.55035 7.2552C3.75332 6.45817 3.30556 5.37717 3.30556 4.25C3.30556 3.12283 3.75332 2.04183 4.55035 1.2448C5.34738 0.447767 6.42839 0 7.55556 0Z" fill="#B5B7CF"/>
<path d="M7.7002 14.9372L8.85714 13.5527C8.89308 13.5097 8.91901 13.4593 8.93306 13.405C8.94711 13.3508 8.94892 13.2941 8.93836 13.2391L8.24136 9.59734C8.23301 9.55416 8.20985 9.51526 8.17589 9.48733C8.14192 9.4594 8.09928 9.4442 8.05531 9.44434H7.05608C7.01211 9.4442 6.96947 9.4594 6.9355 9.48733C6.90154 9.51526 6.87838 9.55416 6.87003 9.59734L6.17303 13.2391C6.16247 13.2941 6.16428 13.3508 6.17833 13.405C6.19238 13.4593 6.21831 13.5097 6.25425 13.5527L7.4112 14.9372C7.42893 14.9583 7.45105 14.9752 7.47601 14.9868C7.50097 14.9984 7.52816 15.0045 7.5557 15.0045C7.58323 15.0045 7.61042 14.9984 7.63538 14.9868C7.66035 14.9752 7.68246 14.9583 7.7002 14.9372Z" fill="white"/>
</svg>
