<svg width="84" height="29" viewBox="0 0 84 29" fill="none" xmlns="http://www.w3.org/2000/svg">
<path d="M23.2615 0H11.6308L0 14.5H11.6308L23.2615 0Z" fill="#A2F3B2"/>
<path d="M23.2615 14.5H11.6308L0 29H11.6308L23.2615 14.5Z" fill="#23B2EF"/>
<path d="M32.1009 19.9775C31.708 19.9775 31.3462 19.8796 31.0153 19.6837C30.6949 19.4878 30.4364 19.23 30.24 18.9103C30.0435 18.5804 29.9453 18.2195 29.9453 17.8277V10.9914C29.9453 10.5996 30.0435 10.2438 30.24 9.9242C30.4364 9.59425 30.6949 9.33131 31.0153 9.1354C31.3462 8.93949 31.708 8.84153 32.1009 8.84153H41.0798V10.8986H32.5351C32.3697 10.8986 32.2353 10.945 32.1319 11.0378C32.0389 11.1306 31.9923 11.2646 31.9923 11.4399V17.3791C31.9923 17.5441 32.0389 17.6782 32.1319 17.7813C32.2353 17.8741 32.3697 17.9205 32.5351 17.9205H41.0798V19.9775H32.1009Z" fill="white"/>
<path d="M45.0849 19.9775C44.6921 19.9775 44.3354 19.8796 44.0149 19.6837C43.6944 19.4878 43.436 19.23 43.2395 18.9103C43.0431 18.5907 42.9449 18.235 42.9449 17.8431V8.05273H44.9919V17.7658C44.9919 17.8174 45.0074 17.8638 45.0384 17.905C45.0798 17.9359 45.1263 17.9514 45.178 17.9514H46.8993V19.9775H45.0849Z" fill="white"/>
<path d="M48.6312 19.9775V11.0069H50.6627V19.9775H48.6312ZM48.6312 10.1098V8.0682H50.6627V10.1098H48.6312Z" fill="white"/>
<path d="M59.4704 23.5349V19.9775H54.4924C54.0892 19.9775 53.7274 19.8796 53.4069 19.6837C53.0864 19.4878 52.8279 19.23 52.6315 18.9103C52.4454 18.5907 52.3524 18.235 52.3524 17.8431V13.1413C52.3524 12.7494 52.4454 12.3937 52.6315 12.0741C52.8279 11.7544 53.0864 11.4966 53.4069 11.3007C53.7274 11.1048 54.0892 11.0069 54.4924 11.0069H61.5019V23.5349H59.4704ZM54.5855 17.9514H59.2843C59.336 17.9514 59.3773 17.9359 59.4084 17.905C59.4497 17.8638 59.4704 17.8174 59.4704 17.7658V13.2186C59.4704 13.167 59.4497 13.1258 59.4084 13.0949C59.3773 13.0536 59.336 13.033 59.2843 13.033H54.5855C54.5338 13.033 54.4872 13.0536 54.4459 13.0949C54.4149 13.1258 54.3994 13.167 54.3994 13.2186V17.7658C54.3994 17.8174 54.4149 17.8638 54.4459 17.905C54.4872 17.9359 54.5338 17.9514 54.5855 17.9514Z" fill="white"/>
<path d="M65.3095 19.9775C64.9167 19.9775 64.5548 19.8796 64.224 19.6837C63.9035 19.4878 63.645 19.23 63.4486 18.9103C63.2625 18.5907 63.1695 18.235 63.1695 17.8431V11.0069H65.201V17.7658C65.201 17.8174 65.2165 17.8638 65.2475 17.905C65.2888 17.9359 65.3354 17.9514 65.3871 17.9514H70.0859C70.1376 17.9514 70.1789 17.9359 70.2099 17.905C70.2513 17.8638 70.272 17.8174 70.272 17.7658V11.0069H72.3035V17.8431C72.3035 18.235 72.2053 18.5907 72.0088 18.9103C71.8227 19.23 71.5695 19.4878 71.249 19.6837C70.9285 19.8796 70.5666 19.9775 70.1634 19.9775H65.3095Z" fill="white"/>
<path d="M76.0382 19.9775C75.6453 19.9775 75.2886 19.8796 74.9681 19.6837C74.6476 19.4878 74.3892 19.23 74.1928 18.9103C73.9963 18.5907 73.8981 18.235 73.8981 17.8431V13.1413C73.8981 12.7494 73.9963 12.3937 74.1928 12.0741C74.3892 11.7544 74.6476 11.4966 74.9681 11.3007C75.2886 11.1048 75.6453 11.0069 76.0382 11.0069H80.8921C81.2849 11.0069 81.6416 11.1048 81.9621 11.3007C82.2929 11.4966 82.5514 11.7544 82.7375 12.0741C82.9339 12.3937 83.0321 12.7494 83.0321 13.1413V16.513H75.9296V17.7658C75.9296 17.8174 75.9451 17.8638 75.9761 17.905C76.0175 17.9359 76.064 17.9514 76.1157 17.9514H83.0321V19.9775H76.0382ZM75.9296 14.6879H81.0006V13.2186C81.0006 13.167 80.98 13.1258 80.9386 13.0949C80.9076 13.0536 80.8662 13.033 80.8145 13.033H76.1157C76.064 13.033 76.0175 13.0536 75.9761 13.0949C75.9451 13.1258 75.9296 13.167 75.9296 13.2186V14.6879Z" fill="white"/>
</svg>
