<svg width="56" height="56" viewBox="0 0 56 56" fill="none" xmlns="http://www.w3.org/2000/svg">
<circle cx="28" cy="28" r="28" fill="white"/>
<circle cx="28" cy="28" r="27.5" stroke="black" stroke-opacity="0.1"/>
<path d="M12 19.6713C12.0305 19.5479 12.0401 19.4198 12.077 19.298C12.2231 18.8094 12.5168 18.4457 12.9646 18.1926C13.6307 17.8145 14.2887 17.422 14.95 17.0359C16.571 16.0891 18.1905 15.1407 19.8116 14.1971C20.0298 14.0705 20.2162 14 20.5258 14C20.6486 14 21.0811 14.0016 21.2962 14.0016C21.4454 13.9968 21.5803 14.032 21.7119 14.0961C21.9895 14.2339 22.2512 14.4005 22.5176 14.5575C24.3666 15.6405 26.2155 16.7251 28.0645 17.8113C28.2972 17.9475 28.5396 18.0692 28.7498 18.239C29.2506 18.6412 29.5331 19.1618 29.5427 19.8058C29.5555 20.7446 29.5459 21.6835 29.5475 22.6239C29.5475 22.6687 29.5298 22.6895 29.4945 22.7104C28.4802 23.2951 27.4658 23.8831 26.4498 24.4678C26.4274 24.4806 26.4033 24.4919 26.3712 24.5079C26.3712 24.4694 26.3712 24.4406 26.3712 24.4134C26.3712 23.5514 26.3744 22.6895 26.3712 21.8276C26.368 21.0314 26.0358 20.4146 25.3488 19.9997C24.1675 19.2852 22.9879 18.5707 21.8034 17.861C21.5706 17.7216 21.3074 17.6495 21.0394 17.6126C20.6349 17.5582 20.2433 17.6046 19.8774 17.7889C19.6446 17.9058 19.4215 18.0452 19.1952 18.1766C18.2049 18.7517 17.2098 19.3188 16.226 19.9036C15.5487 20.3057 15.1827 20.9065 15.1795 21.7027C15.1747 23.074 15.1731 24.4454 15.1795 25.8168C15.1827 26.6018 15.5278 27.2041 16.2019 27.6127C17.3752 28.3224 18.5484 29.0369 19.7265 29.737C20.1165 29.9693 20.5515 30.0478 21.0073 30.0061C21.3299 29.9773 21.622 29.8619 21.8981 29.6953C23.3763 28.8062 24.8529 27.9154 26.3375 27.0391C26.949 26.6787 27.5766 26.3438 28.2009 26.0074C29.7369 25.1775 31.2279 24.2676 32.735 23.388C33.2246 23.1029 33.6996 22.7953 34.2004 22.5325C34.8793 22.1769 35.5807 22.14 36.2596 22.5325C38.4039 23.7677 40.5418 25.0125 42.6845 26.2509C42.9413 26.3999 43.1997 26.5441 43.4083 26.7604C43.7791 27.1465 43.9797 27.6046 43.9973 28.1381C44.0022 28.2791 43.999 28.4217 43.999 28.5627C43.999 31.0683 44.0022 33.5739 43.9973 36.0779C43.9957 36.7988 43.6956 37.3804 43.0969 37.7873C42.8129 37.9795 42.5047 38.1398 42.2078 38.3112C40.8226 39.1138 39.4359 39.9164 38.0508 40.7191C37.4602 41.0619 36.8679 41.4031 36.2773 41.746C35.7162 42.0732 34.765 42.0892 34.2116 41.7652C31.9743 40.4675 29.7337 39.1763 27.4995 37.8722C26.819 37.4749 26.4611 36.8661 26.4563 36.0715C26.4498 35.1936 26.4563 34.3157 26.4531 33.4377C26.4531 33.3688 26.4771 33.3352 26.5349 33.3032C27.4161 32.7953 28.2972 32.2858 29.1767 31.7764C29.3244 31.6915 29.4721 31.6066 29.631 31.5153C29.631 31.5569 29.631 31.5841 29.631 31.613C29.631 32.4749 29.631 33.3368 29.631 34.1987C29.631 34.29 29.6374 34.3813 29.6518 34.4694C29.761 35.1231 30.0964 35.6245 30.6758 35.9594C31.7159 36.5617 32.7543 37.1641 33.7927 37.7681C34.1298 37.9651 34.4636 38.1638 34.8569 38.2311C35.3512 38.3176 35.8215 38.2599 36.2564 38.002C37.404 37.3243 38.5484 36.6434 39.6927 35.9626C39.9977 35.7815 40.2513 35.5428 40.4391 35.24C40.6493 34.902 40.744 34.5335 40.744 34.1378C40.744 32.7985 40.744 31.4592 40.744 30.1199C40.744 30.0398 40.7424 29.9597 40.7344 29.8796C40.6718 29.1618 40.3363 28.6123 39.712 28.2471C38.7345 27.6751 37.7555 27.108 36.7748 26.5425C36.51 26.3887 36.2564 26.2109 35.9691 26.0987C35.3416 25.8536 34.7188 25.8456 34.125 26.1884C32.4574 27.1497 30.7946 28.1189 29.1302 29.0849C26.705 30.4915 24.2831 31.9014 21.8547 33.2999C21.2368 33.6556 20.5803 33.7085 19.9159 33.4201C19.6912 33.3224 19.4857 33.183 19.2739 33.0596C17.2147 31.8677 15.157 30.6758 13.0994 29.4839C12.589 29.1891 12.2327 28.7725 12.0738 28.199C12.0417 28.0853 12.0257 27.9651 12.0032 27.8498C12 25.1247 12 22.398 12 19.6713Z" fill="#794EDD"/>
</svg>
