<svg width="30" height="30" viewBox="0 0 30 30" fill="none" xmlns="http://www.w3.org/2000/svg">
<path d="M23.2879 13.9053C22.7915 13.4017 22.2119 12.995 21.5769 12.7049C22.3097 12.3151 22.9396 11.7445 23.4113 11.043C23.9848 10.1959 24.2923 9.18501 24.2915 8.14899C24.2915 5.30976 22.0049 3 19.1932 3C18.1285 3 17.109 3.32777 16.2445 3.94714C15.5003 4.476 14.9084 5.20547 14.5324 6.05739C14.0495 5.5346 13.4696 5.1192 12.8277 4.83636C12.1858 4.55352 11.4954 4.40913 10.7983 4.41194C7.98561 4.41304 5.69896 6.7228 5.69896 9.56423C5.69896 10.6013 6.00364 11.5999 6.57925 12.455C7.05157 13.1564 7.6812 13.7276 8.41363 14.1191C7.77821 14.4089 7.19851 14.8159 6.7026 15.3205C5.60619 16.4266 5 17.8978 5 19.4577V23.6749C5 24.9553 6.03316 26 7.30246 26H14.3005C15.223 26 16.0579 25.4365 16.4174 24.5859H22.6986C23.9658 24.5859 25 23.5444 25 22.2619V18.0414C24.9968 17.2678 24.8437 16.5027 24.5497 15.7921C24.2557 15.0814 23.8269 14.4397 23.289 13.9053H23.2879ZM16.8634 5.79648C17.4867 5.16583 18.3236 4.8154 19.1932 4.82084C20.0756 4.82084 20.9011 5.16615 21.5231 5.79648C21.8284 6.10069 22.0713 6.46598 22.2373 6.87036C22.4032 7.27475 22.4888 7.70987 22.4888 8.14954C22.4888 8.58921 22.4032 9.02433 22.2373 9.42872C22.0713 9.8331 21.8284 10.1984 21.5231 10.5026C20.9011 11.1329 20.0756 11.4782 19.1932 11.4782C18.3236 11.4837 17.4867 11.1332 16.8634 10.5026C16.5573 10.1988 16.3139 9.83355 16.1477 9.42897C15.9815 9.02439 15.8961 8.58893 15.8966 8.14899C15.8966 7.25776 16.2393 6.42353 16.8634 5.79648ZM7.49855 9.56313C7.49855 8.67189 7.84012 7.83657 8.46423 7.20952C9.08757 6.57887 9.92442 6.22844 10.7941 6.23388C11.6765 6.23388 12.503 6.57919 13.124 7.20952C13.4295 7.51357 13.6727 7.8788 13.8388 8.28321C14.005 8.68762 14.0906 9.12282 14.0906 9.56258C14.0906 10.0023 14.005 10.4375 13.8388 10.8419C13.6727 11.2464 13.4295 11.6116 13.124 11.9156C12.503 12.546 11.6765 12.8913 10.7941 12.8913C9.924 12.8957 9.08686 12.5454 8.46213 11.9156C8.15752 11.6114 7.91515 11.2462 7.74957 10.8422C7.58399 10.4381 7.49861 10.0034 7.49855 9.56423V9.56313ZM14.7907 23.6716C14.791 23.738 14.778 23.8038 14.7526 23.8647C14.7272 23.9256 14.6899 23.9805 14.6431 24.0257C14.5495 24.1207 14.4239 24.1738 14.2931 24.1737H7.29614C7.16656 24.1752 7.04167 24.1233 6.94867 24.0295C6.85567 23.9357 6.80208 23.8074 6.79959 23.6727V19.4544C6.79959 18.3823 7.21496 17.3705 7.97296 16.6042C8.72827 15.8403 9.74153 15.4149 10.7952 15.4192C11.8578 15.4192 12.8594 15.839 13.6174 16.6042C13.63 16.6174 13.6427 16.6305 13.65 16.6404L13.6585 16.6514C14.0166 17.0178 14.3012 17.4546 14.4958 17.9363C14.6903 18.4181 14.7909 18.9352 14.7918 19.4577V23.6727L14.7907 23.6716ZM14.3437 14.8305C13.9834 14.5455 13.5921 14.3056 13.1777 14.1158C14.1795 13.5825 14.981 12.7162 15.4549 11.6547C15.845 12.0779 16.3015 12.4331 16.8064 12.7027C16.1712 12.993 15.5913 13.3996 15.0944 13.9031C14.8159 14.1862 14.5645 14.4968 14.3437 14.8305ZM23.1888 22.2619C23.1863 22.3968 23.1326 22.5252 23.0394 22.619C22.9461 22.7129 22.821 22.7646 22.6912 22.7628H16.5966V19.4544C16.5978 18.2997 16.2598 17.1722 15.6278 16.2227C15.9718 15.5507 16.4856 14.9891 17.1139 14.5983C17.7422 14.2075 18.4611 14.0024 19.1932 14.0051C20.2559 14.0051 21.2574 14.426 22.0154 15.1912C22.3859 15.5593 22.6808 16.0016 22.8825 16.4915C23.0841 16.9813 23.1883 17.5085 23.1888 18.0414V22.2619Z" fill="#97B7EF"/>
</svg>
