<svg width="67" height="16" viewBox="0 0 67 16" fill="none" xmlns="http://www.w3.org/2000/svg">
<path d="M11.3227 4.74077C11.9898 10.2977 11.3227 15.7408 11.3227 15.7408H0.322671C0.322671 15.7408 -0.403343 11.1192 0.322671 4.74077C1.04868 -1.63764 10.6555 -0.816179 11.3227 4.74077Z" fill="#80829F"/>
<path d="M32.5312 2.88V14H30.7072V6.384L27.3152 14H26.0512L22.6432 6.384V14H20.8192V2.88H22.7872L26.6912 11.6L30.5792 2.88H32.5312ZM35.8566 4.016C35.5259 4.016 35.2486 3.904 35.0246 3.68C34.8006 3.456 34.6886 3.17867 34.6886 2.848C34.6886 2.51733 34.8006 2.24 35.0246 2.016C35.2486 1.792 35.5259 1.68 35.8566 1.68C36.1766 1.68 36.4486 1.792 36.6726 2.016C36.8966 2.24 37.0086 2.51733 37.0086 2.848C37.0086 3.17867 36.8966 3.456 36.6726 3.68C36.4486 3.904 36.1766 4.016 35.8566 4.016ZM36.7526 5.184V14H34.9286V5.184H36.7526ZM40.9713 6.464C41.238 6.016 41.59 5.66933 42.0273 5.424C42.4753 5.168 43.0033 5.04 43.6113 5.04V6.928H43.1473C42.4327 6.928 41.8887 7.10933 41.5153 7.472C41.1527 7.83467 40.9713 8.464 40.9713 9.36V14H39.1473V5.184H40.9713V6.464ZM47.112 6.464C47.3786 6.016 47.7306 5.66933 48.168 5.424C48.616 5.168 49.144 5.04 49.752 5.04V6.928H49.288C48.5733 6.928 48.0293 7.10933 47.656 7.472C47.2933 7.83467 47.112 8.464 47.112 9.36V14H45.288V5.184H47.112V6.464ZM55.2526 14.144C54.4206 14.144 53.6686 13.9573 52.9966 13.584C52.3246 13.2 51.7966 12.6667 51.4126 11.984C51.0286 11.2907 50.8366 10.4907 50.8366 9.584C50.8366 8.688 51.0339 7.89333 51.4286 7.2C51.8232 6.50667 52.3619 5.97333 53.0446 5.6C53.7272 5.22667 54.4899 5.04 55.3326 5.04C56.1752 5.04 56.9379 5.22667 57.6206 5.6C58.3032 5.97333 58.8419 6.50667 59.2366 7.2C59.6312 7.89333 59.8286 8.688 59.8286 9.584C59.8286 10.48 59.6259 11.2747 59.2206 11.968C58.8152 12.6613 58.2606 13.2 57.5566 13.584C56.8632 13.9573 56.0952 14.144 55.2526 14.144ZM55.2526 12.56C55.7219 12.56 56.1592 12.448 56.5646 12.224C56.9806 12 57.3166 11.664 57.5726 11.216C57.8286 10.768 57.9566 10.224 57.9566 9.584C57.9566 8.944 57.8339 8.40533 57.5886 7.968C57.3432 7.52 57.0179 7.184 56.6126 6.96C56.2072 6.736 55.7699 6.624 55.3006 6.624C54.8312 6.624 54.3939 6.736 53.9886 6.96C53.5939 7.184 53.2792 7.52 53.0446 7.968C52.8099 8.40533 52.6926 8.944 52.6926 9.584C52.6926 10.5333 52.9326 11.2693 53.4126 11.792C53.9032 12.304 54.5166 12.56 55.2526 12.56ZM63.4557 6.464C63.7224 6.016 64.0744 5.66933 64.5117 5.424C64.9597 5.168 65.4877 5.04 66.0957 5.04V6.928H65.6317C64.917 6.928 64.373 7.10933 63.9997 7.472C63.637 7.83467 63.4557 8.464 63.4557 9.36V14H61.6317V5.184H63.4557V6.464Z" fill="#80829F"/>
</svg>
