<svg width="493" height="46" viewBox="0 0 493 46" fill="none" xmlns="http://www.w3.org/2000/svg">
<path d="M34.3 45H22.61L21.28 38.14H13.02L11.69 45H0.56L8.54 1.53H26.32L34.3 45ZM19.95 29.95L17.5 14.41H17.01L14.56 29.95H19.95ZM52.5933 20.85C51.2399 20.85 50.3299 21.48 49.8633 22.74C49.3966 23.9533 49.1633 25.8667 49.1633 28.48C49.1633 31.0933 49.3733 32.9833 49.7933 34.15C50.2599 35.3167 51.1933 35.9 52.5933 35.9C54.0399 35.9 55.9066 35.6433 58.1933 35.13L59.4533 44.09C56.2333 45.1633 53.3633 45.7 50.8433 45.7C46.4099 45.7 43.0499 44.2067 40.7633 41.22C38.5233 38.2333 37.4033 34.0567 37.4033 28.69C37.4033 23.3233 38.5699 18.9833 40.9033 15.67C43.2366 12.31 46.6199 10.63 51.0533 10.63C54.3666 10.63 57.3533 11.19 60.0133 12.31L58.7533 22.6C56.0466 21.4333 53.9933 20.85 52.5933 20.85ZM77.7241 20.85C76.3708 20.85 75.4608 21.48 74.9941 22.74C74.5275 23.9533 74.2941 25.8667 74.2941 28.48C74.2941 31.0933 74.5041 32.9833 74.9241 34.15C75.3908 35.3167 76.3241 35.9 77.7241 35.9C79.1708 35.9 81.0375 35.6433 83.3241 35.13L84.5841 44.09C81.3641 45.1633 78.4941 45.7 75.9741 45.7C71.5408 45.7 68.1808 44.2067 65.8941 41.22C63.6541 38.2333 62.5341 34.0567 62.5341 28.69C62.5341 23.3233 63.7008 18.9833 66.0341 15.67C68.3675 12.31 71.7508 10.63 76.1841 10.63C79.4975 10.63 82.4841 11.19 85.1441 12.31L83.8841 22.6C81.1775 21.4333 79.1241 20.85 77.7241 20.85ZM87.665 28.13C87.665 21.97 88.8317 17.5133 91.165 14.76C93.545 12.0067 97.2317 10.63 102.225 10.63C107.265 10.63 110.928 11.9833 113.215 14.69C115.502 17.3967 116.645 21.8533 116.645 28.06C116.645 34.22 115.525 38.7 113.285 41.5C111.045 44.3 107.382 45.7 102.295 45.7C97.2083 45.7 93.4983 44.3 91.165 41.5C88.8317 38.7 87.665 34.2433 87.665 28.13ZM104.465 21.48C104.185 20.5467 103.438 20.08 102.225 20.08C101.012 20.08 100.242 20.5467 99.915 21.48C99.5883 22.4133 99.425 24.3733 99.425 27.36V29.04C99.425 32.3533 99.5883 34.5 99.915 35.48C100.242 36.46 100.988 36.95 102.155 36.95C103.368 36.95 104.138 36.46 104.465 35.48C104.792 34.5 104.955 32.4933 104.955 29.46V27.43C104.955 24.3967 104.792 22.4133 104.465 21.48ZM129.616 45.7C124.062 45.7 121.286 42.62 121.286 36.46V11.47H133.186V33.59C133.186 34.7567 133.699 35.34 134.726 35.34C136.032 35.34 137.129 35.0133 138.016 34.36V11.47H149.776V44.86H138.646V42.41H138.366C135.799 44.6033 132.882 45.7 129.616 45.7ZM166.651 13.92C169.218 11.7267 172.041 10.63 175.121 10.63C178.201 10.63 180.348 11.3533 181.561 12.8C182.821 14.2 183.451 16.3233 183.451 19.17V45H171.551V23.16C171.551 21.9933 171.038 21.41 170.011 21.41C168.705 21.41 167.608 21.7367 166.721 22.39V45H154.961V11.47H165.671L166.371 13.92H166.651ZM207.537 45.07C204.084 45.49 201.074 45.7 198.507 45.7C195.987 45.7 194.004 45.0467 192.557 43.74C191.157 42.3867 190.457 40.0767 190.457 36.81V20.57H187.097V11.89H191.017L191.647 5.45H202.217V11.89H208.447L207.957 20.57H202.147V34.5C202.147 35.48 202.614 35.97 203.547 35.97C203.64 35.97 205.087 35.9 207.887 35.76L207.537 45.07ZM254.711 14.48C250.231 13.1267 246.941 12.45 244.841 12.45C242.788 12.45 241.365 13.36 240.571 15.18C239.825 17 239.451 19.8933 239.451 23.86C239.451 27.78 239.801 30.65 240.501 32.47C241.248 34.2433 242.741 35.13 244.981 35.13C245.635 35.13 246.895 34.9433 248.761 34.57V29.25H245.611V20.99H258.981V45H250.721L249.601 42.76H249.321C248.528 43.4133 247.898 43.9033 247.431 44.23C246.125 45.21 244.281 45.7 241.901 45.7C232.148 45.7 227.271 38.3267 227.271 23.58C227.271 16.2067 228.555 10.5833 231.121 6.71C233.688 2.79 238.005 0.829997 244.071 0.829997C248.925 0.829997 253.101 1.57666 256.601 3.07L254.711 14.48ZM278.85 20.64C277.637 20.64 276.843 21.06 276.47 21.9C276.097 22.6933 275.91 23.93 275.91 25.61H282V23.93C282 21.7367 280.95 20.64 278.85 20.64ZM279.13 10.63C283.937 10.63 287.367 11.7967 289.42 14.13C291.52 16.4167 292.57 19.7067 292.57 24C292.57 24.56 292.407 27.08 292.08 31.56H276.12C276.12 35.06 277.73 36.81 280.95 36.81C282.49 36.81 285.5 36.2733 289.98 35.2L290.96 43.88C287.04 45.0933 283.12 45.7 279.2 45.7C274.393 45.7 270.707 44.1367 268.14 41.01C265.573 37.8367 264.29 33.5433 264.29 28.13C264.29 16.4633 269.237 10.63 279.13 10.63ZM308.507 13.92C311.073 11.7267 313.897 10.63 316.977 10.63C320.057 10.63 322.203 11.3533 323.417 12.8C324.677 14.2 325.307 16.3233 325.307 19.17V45H313.407V23.16C313.407 21.9933 312.893 21.41 311.867 21.41C310.56 21.41 309.463 21.7367 308.577 22.39V45H296.817V11.47H307.527L308.227 13.92H308.507ZM344.493 20.64C343.279 20.64 342.486 21.06 342.113 21.9C341.739 22.6933 341.553 23.93 341.553 25.61H347.643V23.93C347.643 21.7367 346.593 20.64 344.493 20.64ZM344.773 10.63C349.579 10.63 353.009 11.7967 355.063 14.13C357.163 16.4167 358.213 19.7067 358.213 24C358.213 24.56 358.049 27.08 357.723 31.56H341.763C341.763 35.06 343.373 36.81 346.593 36.81C348.133 36.81 351.143 36.2733 355.623 35.2L356.603 43.88C352.683 45.0933 348.763 45.7 344.843 45.7C340.036 45.7 336.349 44.1367 333.783 41.01C331.216 37.8367 329.933 33.5433 329.933 28.13C329.933 16.4633 334.879 10.63 344.773 10.63ZM374.079 26.17V45H362.459V11.47H372.679L373.379 13.5H373.659C374.733 12.2867 375.806 11.5167 376.879 11.19C377.999 10.8167 379.796 10.63 382.269 10.63L381.779 21.83H378.559C376.739 21.83 375.526 22.11 374.919 22.67C374.359 23.23 374.079 24.3967 374.079 26.17ZM410.673 20.22L410.323 34.71C410.323 35.5967 410.533 36.2033 410.953 36.53C411.419 36.81 412.189 36.95 413.263 36.95L412.213 45.42C409.506 45.6067 408.013 45.7 407.733 45.7C404.279 45.7 402.086 44.51 401.153 42.13H400.803C399.076 44.51 396.416 45.7 392.823 45.7C390.069 45.7 387.946 44.8133 386.453 43.04C385.006 41.2667 384.283 38.84 384.283 35.76C384.283 31.8867 385.473 29.2033 387.853 27.71C390.279 26.2167 394.083 25.2367 399.263 24.77V23.09C399.263 21.7833 398.609 21.13 397.303 21.13C395.063 21.13 391.563 21.8067 386.803 23.16L385.053 12.94C391.026 11.4 395.996 10.63 399.963 10.63C403.929 10.63 406.706 11.4 408.293 12.94C409.879 14.48 410.673 16.9067 410.673 20.22ZM397.163 37.51C398.889 37.51 399.753 36.6 399.753 34.78V31.35C398.026 31.5833 396.789 31.9567 396.043 32.47C395.343 32.9367 394.993 33.7533 394.993 34.92C394.993 36.6467 395.716 37.51 397.163 37.51ZM435.791 45.07C432.338 45.49 429.328 45.7 426.761 45.7C424.241 45.7 422.258 45.0467 420.811 43.74C419.411 42.3867 418.711 40.0767 418.711 36.81V20.57H415.351V11.89H419.271L419.901 5.45H430.471V11.89H436.701L436.211 20.57H430.401V34.5C430.401 35.48 430.868 35.97 431.801 35.97C431.894 35.97 433.341 35.9 436.141 35.76L435.791 45.07ZM439.548 28.13C439.548 21.97 440.714 17.5133 443.048 14.76C445.428 12.0067 449.114 10.63 454.108 10.63C459.148 10.63 462.811 11.9833 465.098 14.69C467.384 17.3967 468.528 21.8533 468.528 28.06C468.528 34.22 467.408 38.7 465.168 41.5C462.928 44.3 459.264 45.7 454.178 45.7C449.091 45.7 445.381 44.3 443.048 41.5C440.714 38.7 439.548 34.2433 439.548 28.13ZM456.348 21.48C456.068 20.5467 455.321 20.08 454.108 20.08C452.894 20.08 452.124 20.5467 451.798 21.48C451.471 22.4133 451.308 24.3733 451.308 27.36V29.04C451.308 32.3533 451.471 34.5 451.798 35.48C452.124 36.46 452.871 36.95 454.038 36.95C455.251 36.95 456.021 36.46 456.348 35.48C456.674 34.5 456.838 32.4933 456.838 29.46V27.43C456.838 24.3967 456.674 22.4133 456.348 21.48ZM484.788 26.17V45H473.168V11.47H483.388L484.088 13.5H484.368C485.442 12.2867 486.515 11.5167 487.588 11.19C488.708 10.8167 490.505 10.63 492.978 10.63L492.488 21.83H489.268C487.448 21.83 486.235 22.11 485.628 22.67C485.068 23.23 484.788 24.3967 484.788 26.17Z" fill="white"/>
</svg>
