<svg width="16" height="16" viewBox="0 0 16 16" fill="none" xmlns="http://www.w3.org/2000/svg">
<g clip-path="url(#clip0_732_3000)">
<path d="M16 8C16 12.418 12.418 16 8 16C3.58197 16 0 12.418 0 8C0 3.58197 3.58197 0 8 0C12.419 0 16 3.58197 16 8Z" fill="#2081E2"/>
<path d="M3.94698 8.26864L3.98149 8.21438L6.06261 4.95873C6.09303 4.91107 6.16453 4.916 6.18754 4.96777C6.53522 5.74696 6.83522 6.71602 6.69467 7.31931C6.63467 7.56754 6.47029 7.9037 6.28535 8.21438C6.26152 8.2596 6.23522 8.30398 6.20727 8.34672C6.19411 8.36645 6.17192 8.37795 6.14808 8.37795H4.00779C3.95026 8.37795 3.91656 8.31549 3.94698 8.26864Z" fill="white"/>
<path d="M13.2232 8.87395V9.3893C13.2232 9.41888 13.2051 9.44519 13.1788 9.45669C13.0177 9.52573 12.4662 9.77888 12.2369 10.0978C11.6517 10.9123 11.2046 12.077 10.2051 12.077H6.03547C4.55766 12.077 3.36011 10.8753 3.36011 9.39258V9.34492C3.36011 9.30546 3.39216 9.27341 3.43161 9.27341H5.75603C5.80204 9.27341 5.83574 9.31615 5.83164 9.36135C5.8152 9.51258 5.84315 9.66711 5.91465 9.80765C6.05273 10.0879 6.33876 10.263 6.6478 10.263H7.79851V9.36464H6.66096C6.6026 9.36464 6.56809 9.29724 6.60179 9.24957C6.61411 9.23066 6.62809 9.21095 6.64288 9.18876C6.75056 9.03588 6.90425 8.79834 7.05713 8.52792C7.16152 8.34546 7.2626 8.15066 7.34398 7.95504C7.36043 7.9197 7.37356 7.88352 7.38672 7.84818C7.40891 7.78572 7.43193 7.72736 7.44836 7.66901C7.46481 7.61968 7.47795 7.56791 7.4911 7.51941C7.52974 7.35338 7.54617 7.17749 7.54617 6.99503C7.54617 6.92352 7.54289 6.84872 7.53632 6.77722C7.53302 6.69914 7.52316 6.62104 7.51329 6.54296C7.50672 6.47392 7.4944 6.4057 7.48124 6.3342C7.46481 6.22981 7.44179 6.12626 7.41548 6.02186L7.40644 5.98242C7.38672 5.9109 7.37028 5.84269 7.34728 5.77119C7.28233 5.54679 7.20755 5.32816 7.12864 5.12351C7.09987 5.04213 7.06699 4.96405 7.03411 4.88597C6.98563 4.76844 6.9363 4.66159 6.8911 4.56048C6.86809 4.51445 6.84836 4.47253 6.82864 4.4298C6.80644 4.3813 6.78344 4.3328 6.76041 4.28679C6.74398 4.25144 6.72507 4.21856 6.71192 4.18568L6.57137 3.92596C6.55164 3.89061 6.58452 3.84869 6.62315 3.85938L7.50262 4.09773H7.50508C7.50672 4.09773 7.50755 4.09856 7.50836 4.09856L7.62425 4.13061L7.75166 4.16679L7.79851 4.17992V3.65719C7.79851 3.40485 8.0007 3.2002 8.25057 3.2002C8.3755 3.2002 8.48892 3.25116 8.5703 3.33416C8.65166 3.41719 8.70262 3.53061 8.70262 3.65719V4.43309L8.79633 4.45938C8.80372 4.46186 8.81112 4.46514 8.81769 4.47007C8.84072 4.48733 8.87358 4.5128 8.9155 4.54405C8.94838 4.57034 8.98372 4.6024 9.02646 4.63528C9.11112 4.70349 9.21222 4.79144 9.32318 4.89255C9.35276 4.91802 9.38153 4.94432 9.40784 4.97063C9.55086 5.10378 9.71113 5.25994 9.86401 5.43255C9.90675 5.48104 9.94867 5.53036 9.9914 5.58213C10.0341 5.63474 10.0794 5.68652 10.1188 5.73831C10.1706 5.80735 10.2265 5.87885 10.275 5.95365C10.298 5.989 10.3243 6.02516 10.3465 6.0605C10.4089 6.15501 10.464 6.25284 10.5166 6.35064C10.5388 6.39584 10.5618 6.44516 10.5815 6.49365C10.6399 6.62434 10.6859 6.75749 10.7155 6.89064C10.7246 6.91941 10.7311 6.95064 10.7344 6.9786V6.98517C10.7443 7.02461 10.7476 7.06653 10.7509 7.10927C10.764 7.24572 10.7574 7.38215 10.7279 7.51941C10.7155 7.57778 10.6991 7.63284 10.6794 7.6912C10.6596 7.74709 10.6399 7.80544 10.6144 7.86052C10.5651 7.97476 10.5067 8.08901 10.4377 8.19586C10.4155 8.23532 10.3892 8.27724 10.3629 8.31669C10.3341 8.3586 10.3046 8.39805 10.2783 8.43669C10.2421 8.486 10.2035 8.53778 10.164 8.58381C10.1287 8.63231 10.0925 8.6808 10.0531 8.72354C9.99798 8.78847 9.94537 8.85012 9.8903 8.9093C9.85744 8.94792 9.82209 8.98738 9.78592 9.02272C9.75059 9.06216 9.71441 9.09751 9.68153 9.13039C9.62648 9.18546 9.58044 9.2282 9.5418 9.26354L9.4514 9.34656C9.43825 9.35807 9.42099 9.36464 9.40291 9.36464H8.70262V10.263H9.58372C9.78099 10.263 9.9684 10.1931 10.1196 10.0649C10.1714 10.0197 10.3974 9.8241 10.6646 9.52903C10.6736 9.51915 10.6851 9.51176 10.6983 9.50848L13.132 8.80492C13.1772 8.79176 13.2232 8.82627 13.2232 8.87395Z" fill="white"/>
</g>
<defs>
<clipPath id="clip0_732_3000">
<rect width="16" height="16" fill="white"/>
</clipPath>
</defs>
</svg>
