<svg width="38" height="38" viewBox="0 0 38 38" fill="none" xmlns="http://www.w3.org/2000/svg">
<path fill-rule="evenodd" clip-rule="evenodd" d="M24.9828 6.592C22.9493 4.55852 19.6107 4.55852 17.5772 6.592L6.93711 17.2319L6.93072 17.2388C5.0441 19.2705 5.04388 22.5993 6.9305 24.631L12.4363 30.0087H6.28727C5.92133 30.0087 5.61257 30.1923 5.40175 30.4453C5.19202 30.697 5.06667 31.0304 5.06667 31.3675C5.06667 31.7662 5.18742 32.1016 5.40175 32.3588C5.61446 32.614 5.90649 32.7771 6.22583 32.8569L6.25609 32.8645H31.7127C32.1857 32.8645 32.6927 32.7033 33.029 32.1989C33.1892 31.9586 33.2788 31.7032 33.2788 31.4366C33.2788 31.17 33.1892 30.9146 33.029 30.6742C32.6927 30.1698 32.1857 30.0087 31.7127 30.0087H21.5461L31.3324 20.2225C32.3583 19.3385 32.9333 17.8864 32.9333 16.582C32.9333 15.2631 32.3479 13.9571 31.3391 12.9484L24.9828 6.592ZM19.5937 8.47027C20.1004 7.96354 20.7275 7.71538 21.3491 7.71538C21.9782 7.71538 22.5859 7.9673 22.9428 8.44314L22.9536 8.45754L29.3227 14.8266C29.8294 15.3334 30.0776 15.9604 30.0776 16.582C30.0776 17.2037 29.8294 17.8307 29.3227 18.3375L18.6827 28.9775C18.176 29.4842 17.5489 29.7324 16.9273 29.7324C16.3057 29.7324 15.6786 29.4842 15.1719 28.9775L8.8155 22.6211C8.30876 22.1144 8.06061 21.4873 8.06061 20.8657C8.06061 20.2443 8.30911 19.6169 8.8155 19.1103L19.5925 8.47142L19.5937 8.47027ZM25.2591 15.9884C24.9936 15.7228 24.6121 15.6033 24.2509 15.6033C23.8897 15.6033 23.5082 15.7228 23.2427 15.9884L17.8945 21.3365L15.0337 18.4756C14.7681 18.2101 14.3866 18.0905 14.0255 18.0905C13.6643 18.0905 13.2828 18.2101 13.0172 18.4756C12.7133 18.7796 12.5285 19.1166 12.5285 19.4839C12.5285 19.8511 12.7132 20.1881 13.0172 20.4921L16.888 24.2247C17.1915 24.5277 17.528 24.7117 17.8945 24.7117L17.9031 24.7117C18.0306 24.7118 18.2275 24.712 18.4196 24.5605C18.5044 24.5411 18.576 24.5049 18.618 24.4836L18.6297 24.4777C18.6988 24.4432 18.7192 24.4368 18.723 24.4356C18.7234 24.4355 18.7236 24.4354 18.7236 24.4354H18.8286L25.2591 18.0048C25.5631 17.7008 25.7479 17.3638 25.7479 16.9966C25.7479 16.6293 25.5631 16.2923 25.2591 15.9884Z" fill="#0049C6"/>
</svg>
