<svg width="30" height="30" viewBox="0 0 30 30" fill="none" xmlns="http://www.w3.org/2000/svg">
<path fill-rule="evenodd" clip-rule="evenodd" d="M19.7232 5.20403C18.1179 3.59866 15.4821 3.59866 13.8768 5.20403L5.47666 13.6039L5.47162 13.6094C3.98219 15.2134 3.98201 17.8413 5.47145 19.4453L9.8181 23.6909H4.96364C4.67474 23.6909 4.43097 23.8359 4.26454 24.0356C4.09897 24.2343 4 24.4975 4 24.7636C4 25.0784 4.09533 25.3432 4.26454 25.5462C4.43247 25.7477 4.66302 25.8765 4.91513 25.9395L4.93902 25.9455H25.0364C25.4097 25.9455 25.81 25.8182 26.0755 25.42C26.202 25.2303 26.2727 25.0287 26.2727 24.8182C26.2727 24.6077 26.202 24.4061 26.0755 24.2163C25.81 23.8181 25.4097 23.6909 25.0364 23.6909H17.0101L24.7361 15.9649C25.546 15.267 26 14.1207 26 13.0909C26 12.0497 25.5378 11.0186 24.7414 10.2222L19.7232 5.20403ZM15.4687 6.68688C15.8687 6.28682 16.3638 6.09091 16.8545 6.09091C17.3512 6.09091 17.831 6.28979 18.1127 6.66545L18.1213 6.67683L23.1495 11.7051C23.5495 12.1051 23.7455 12.6002 23.7455 13.0909C23.7455 13.5817 23.5495 14.0767 23.1495 14.4768L14.7495 22.8768C14.3494 23.2768 13.8544 23.4727 13.3636 23.4727C12.8729 23.4727 12.3778 23.2768 11.9778 22.8768L6.9596 17.8586C6.55955 17.4585 6.36364 16.9635 6.36364 16.4727C6.36364 15.9822 6.55982 15.4869 6.9596 15.0869L15.4678 6.68779L15.4687 6.68688ZM19.9414 12.6222C19.7318 12.4126 19.4306 12.3182 19.1455 12.3182C18.8603 12.3182 18.5591 12.4126 18.3495 12.6222L14.1273 16.8444L11.8687 14.5859C11.6591 14.3762 11.3579 14.2818 11.0727 14.2818C10.7876 14.2818 10.4864 14.3762 10.2768 14.5859C10.0368 14.8258 9.89091 15.0919 9.89091 15.3818C9.89091 15.6718 10.0368 15.9378 10.2767 16.1778L13.3326 19.1246C13.5723 19.3638 13.8379 19.5091 14.1273 19.5091L14.1341 19.5091C14.2347 19.5092 14.3901 19.5093 14.5418 19.3897C14.6088 19.3744 14.6653 19.3458 14.6984 19.329L14.7076 19.3243C14.7622 19.2971 14.7783 19.292 14.7813 19.2911C14.7816 19.291 14.7818 19.2909 14.7818 19.2909H14.8647L19.9414 14.2141C20.1814 13.9742 20.3273 13.7081 20.3273 13.4182C20.3273 13.1282 20.1814 12.8622 19.9414 12.6222Z" fill="#97B7EF"/>
</svg>
