<svg width="24" height="24" viewBox="0 0 24 24" fill="none" xmlns="http://www.w3.org/2000/svg">
<path d="M10.835 7.10318H8.61603C8.46247 7.10318 8.34466 7.06751 8.26259 6.99656C8.18013 6.92449 8.12031 6.83016 8.09034 6.72494C8.0559 6.60461 8.0392 6.47993 8.04078 6.3548C8.04078 6.21777 8.05175 6.08926 8.07409 5.96845C8.08466 5.84763 8.10659 5.71588 8.1395 5.57358C8.16663 5.44623 8.21395 5.32402 8.27966 5.21155C8.33978 5.11263 8.41941 5.04655 8.51772 5.01412C8.61644 4.98168 8.73709 5.00885 8.87928 5.09601C9.04422 5.19493 9.23028 5.30155 9.43869 5.41669C9.64709 5.53182 9.84941 5.64696 10.0468 5.76209C10.2439 5.87723 10.4271 5.98101 10.5973 6.07466C10.7671 6.16791 10.8959 6.2421 10.9832 6.29683C11.0929 6.37385 11.1754 6.45858 11.2298 6.55142C11.2847 6.64467 11.3066 6.73223 11.2957 6.81494C11.2897 6.85658 11.2748 6.89646 11.2521 6.93191C11.2294 6.96736 11.1994 6.99756 11.164 7.02048C11.0873 7.07521 10.9776 7.10318 10.835 7.10318ZM12.1167 7.08696H14.319C14.4725 7.08696 14.5903 7.05129 14.6724 6.97994C14.7545 6.90899 14.8122 6.81818 14.8451 6.70831C14.878 6.59885 14.8946 6.4752 14.8946 6.33858C14.8946 6.20155 14.8889 6.07264 14.8784 5.95223C14.8546 5.82325 14.8299 5.69446 14.804 5.56588C14.7812 5.44113 14.7367 5.32134 14.6724 5.21196C14.6199 5.11935 14.5352 5.04912 14.4343 5.01452C14.3356 4.98209 14.215 5.00398 14.0728 5.0802C13.8882 5.19034 13.7017 5.29725 13.5134 5.40088C13.3054 5.51601 13.0998 5.63115 12.8971 5.74628C12.6944 5.86142 12.5079 5.9652 12.3381 6.05885C12.2109 6.12617 12.0875 6.20034 11.9684 6.28101C11.8478 6.35804 11.76 6.44318 11.7056 6.53561C11.6507 6.62885 11.6284 6.71642 11.6397 6.79913C11.6457 6.84073 11.6605 6.8806 11.6831 6.91604C11.7057 6.95149 11.7357 6.98171 11.771 7.00467C11.8482 7.0594 11.9631 7.08696 12.1167 7.08696ZM10.6046 8.17224H5.8385C5.4875 8.17224 5.26041 8.22981 5.156 8.34494C5.052 8.46008 5 8.64373 5 8.8963V10.3436C5 10.6177 5.05769 10.8204 5.17266 10.9521C5.28762 11.0839 5.51472 11.1496 5.85475 11.1496H10.6038L10.6046 8.17224ZM12.3962 8.17224H17.0965C17.4471 8.17224 17.6856 8.24116 17.8115 8.37819C17.9374 8.51521 18 8.70981 18 8.96197V10.3768C18 10.64 17.9423 10.8346 17.8273 10.9606C17.7124 11.0863 17.4853 11.1496 17.1453 11.1496H12.3962V8.17224ZM10.6046 12.0216H5.559V17.2397C5.559 17.7992 5.71784 18.2326 6.03553 18.5395C6.35322 18.8464 6.84641 19 7.51509 19H10.6046V12.0216ZM12.3962 12.0216H17.4256V17.1903C17.4142 17.7497 17.2553 18.1912 16.9486 18.5147C16.6419 18.8382 16.1544 19 15.4861 19H12.3966L12.3962 12.0216Z" fill="#97B7EF"/>
</svg>
