<svg width="24" height="24" viewBox="0 0 24 24" fill="none" xmlns="http://www.w3.org/2000/svg">
<path d="M18.9899 16.566L18.2288 10.5535C18.1408 9.86262 17.5024 9.18831 16.7716 9.01846L16.703 9.006C16.6319 8.98892 16.4525 8.94969 16.4525 8.30585V7.38277C16.4525 6.61938 15.8067 6 14.9844 6H14.437C13.6147 6 12.9724 6.51554 12.9724 7.152V7.84431C12.9724 7.86923 12.961 7.89369 12.9654 7.91815C12.9908 8.06492 12.9883 8.46831 12.8312 8.63908C12.8048 8.66815 12.7278 8.76923 12.4976 8.76923H11.2547C11.1692 8.76923 10.9838 8.54169 10.9838 8.25969V7.33662C10.9838 6.57323 10.337 6 9.51469 6H9.01754C8.19525 6 7.50371 6.57323 7.50371 7.33662V7.79815C7.50371 8.13231 7.22232 8.57169 6.89867 8.72169L6.69683 8.81908C6.05202 9.11723 5.50565 9.84323 5.41914 10.5318L5.00999 16.566C4.96276 16.9371 5.08456 17.3058 5.34308 17.5754C5.6016 17.8449 5.98093 18 6.38312 18H8.86889C9.66533 18 10.3777 17.4005 10.4568 16.6648L10.7561 13.8868C10.7829 13.6375 11.0444 13.3842 11.1051 13.3842H12.5985C12.8889 13.3842 13.1683 13.6182 13.1971 13.8863L13.4964 16.6652C13.5754 17.4009 14.2879 18 15.0843 18H17.6188C18.0215 18 18.3998 17.8445 18.6583 17.5749C18.9168 17.3054 19.0372 16.9366 18.9899 16.566ZM9.49232 16.1538H6.01225C5.88039 16.1538 5.75394 16.1052 5.66071 16.0187C5.56747 15.9321 5.51509 15.8147 5.51509 15.6923C5.51509 15.5699 5.56747 15.4525 5.66071 15.366C5.75394 15.2794 5.88039 15.2308 6.01225 15.2308H9.49232C9.62417 15.2308 9.75063 15.2794 9.84386 15.366C9.93709 15.4525 9.98947 15.5699 9.98947 15.6923C9.98947 15.8147 9.93709 15.9321 9.84386 16.0187C9.75063 16.1052 9.62417 16.1538 9.49232 16.1538ZM17.9439 16.1538H14.4639C14.332 16.1538 14.2055 16.1052 14.1123 16.0187C14.0191 15.9321 13.9667 15.8147 13.9667 15.6923C13.9667 15.5699 14.0191 15.4525 14.1123 15.366C14.2055 15.2794 14.332 15.2308 14.4639 15.2308H17.9439C18.0758 15.2308 18.2022 15.2794 18.2955 15.366C18.3887 15.4525 18.4411 15.5699 18.4411 15.6923C18.4411 15.8147 18.3887 15.9321 18.2955 16.0187C18.2022 16.1052 18.0758 16.1538 17.9439 16.1538Z" fill="#97B7EF"/>
</svg>
