<svg width="87" height="80" viewBox="0 0 87 80" fill="none" xmlns="http://www.w3.org/2000/svg">
<path d="M83.6462 3.08391C84.9283 1.90501 87 2.81441 87 4.5561V70C87 75.5229 82.5229 80 77 80H5.12976C3.30727 80 2.43448 77.7614 3.77602 76.5278L83.6462 3.08391Z" fill="url(#paint0_linear_42_20264)"/>
<path d="M83.5 69C83.3333 71.5 81.5 75.5 76.5 75.5" stroke="#82D3E0" stroke-opacity="0.49" stroke-width="1.5" stroke-linecap="round"/>
<path d="M73 75.5H11.5L49 40V53H55" stroke="#82D3E0" stroke-opacity="0.49" stroke-width="1.5" stroke-linecap="round"/>
<path d="M44 50.5L27 67.5" stroke="#82D3E0" stroke-opacity="0.49" stroke-width="1.5" stroke-linecap="round"/>
<path d="M24.5 70.5H40V61L33.5 67" stroke="#82D3E0" stroke-opacity="0.49" stroke-width="1.5" stroke-linecap="round"/>
<path d="M51.9386 62.0352C51.8822 61.5079 51.6448 61.0974 51.2262 60.8036C50.8117 60.5098 50.2724 60.3629 49.6083 60.3629C49.1415 60.3629 48.741 60.4334 48.407 60.5742C48.0729 60.7151 47.8174 60.9062 47.6403 61.1477C47.4632 61.3892 47.3726 61.6649 47.3686 61.9748C47.3686 62.2324 47.427 62.4557 47.5437 62.6449C47.6644 62.834 47.8274 62.995 48.0327 63.1278C48.2379 63.2566 48.4653 63.3653 48.7148 63.4538C48.9644 63.5424 49.2159 63.6168 49.4695 63.6772L50.6286 63.967C51.0954 64.0756 51.5442 64.2225 51.9748 64.4077C52.4094 64.5928 52.7978 64.8262 53.1399 65.108C53.486 65.3897 53.7597 65.7298 53.9609 66.1282C54.1622 66.5266 54.2628 66.9935 54.2628 67.5288C54.2628 68.2532 54.0777 68.8911 53.7074 69.4425C53.3371 69.9898 52.8018 70.4184 52.1016 70.7283C51.4053 71.0342 50.5621 71.1871 49.5721 71.1871C48.6102 71.1871 47.7751 71.0382 47.0668 70.7404C46.3625 70.4426 45.8111 70.0079 45.4126 69.4364C45.0182 68.8649 44.8049 68.1687 44.7727 67.3477H46.9762C47.0084 67.7783 47.1412 68.1365 47.3746 68.4222C47.6081 68.708 47.9119 68.9213 48.2862 69.0621C48.6645 69.203 49.0871 69.2734 49.554 69.2734C50.041 69.2734 50.4676 69.201 50.8338 69.0561C51.2041 68.9072 51.4938 68.7019 51.7031 68.4403C51.9124 68.1747 52.0191 67.8648 52.0231 67.5107C52.0191 67.1887 51.9245 66.9231 51.7393 66.7138C51.5542 66.5005 51.2946 66.3234 50.9606 66.1825C50.6306 66.0376 50.2442 65.9089 49.8015 65.7962L48.3949 65.4339C47.3767 65.1723 46.5717 64.7759 45.9801 64.2447C45.3925 63.7094 45.0987 62.9991 45.0987 62.1136C45.0987 61.3852 45.2959 60.7473 45.6903 60.1999C46.0888 59.6526 46.6301 59.228 47.3143 58.9261C47.9985 58.6203 48.7732 58.4673 49.6385 58.4673C50.5159 58.4673 51.2846 58.6203 51.9446 58.9261C52.6087 59.228 53.1299 59.6486 53.5082 60.1879C53.8865 60.7231 54.0817 61.3389 54.0938 62.0352H51.9386ZM60.4491 71H56.2595V58.6364H60.5336C61.7612 58.6364 62.8156 58.8839 63.697 59.3789C64.5824 59.8699 65.2626 60.5762 65.7375 61.4979C66.2124 62.4195 66.4498 63.5223 66.4498 64.8061C66.4498 66.094 66.2104 67.2008 65.7314 68.1264C65.2565 69.0521 64.5703 69.7624 63.6729 70.2575C62.7794 70.7525 61.7048 71 60.4491 71ZM58.4992 69.0621H60.3405C61.2017 69.0621 61.9201 68.9052 62.4956 68.5913C63.0712 68.2733 63.5038 67.8004 63.7936 67.1726C64.0834 66.5407 64.2283 65.7519 64.2283 64.8061C64.2283 63.8603 64.0834 63.0755 63.7936 62.4517C63.5038 61.8239 63.0752 61.355 62.5077 61.0451C61.9443 60.7312 61.244 60.5742 60.4069 60.5742H58.4992V69.0621ZM68.5779 71V58.6364H70.8176V64.3171H70.9685L75.792 58.6364H78.5267L73.7455 64.1843L78.569 71H75.8765L72.1879 65.6996L70.8176 67.3175V71H68.5779Z" fill="white"/>
<path fill-rule="evenodd" clip-rule="evenodd" d="M59 53.443V39.557C59 39.2493 59.2487 38.9998 59.5556 39H77.4444C77.7513 39 78 39.2493 78 39.557V53.443C78 53.7507 77.7513 54 77.4444 54H59.5556C59.2487 54 59 53.7507 59 53.443ZM76.6398 42.4116V40.3636H60.3602V42.4116H76.6398ZM60.3602 43.7753V52.6362H76.6398V43.7753H60.3602ZM62 47.9051L64.5807 45.263C64.6605 45.1811 64.7902 45.1811 64.8702 45.2628L65.5571 45.9661C65.5761 45.9855 65.5912 46.0086 65.6015 46.0341C65.6118 46.0595 65.6171 46.0867 65.6171 46.1143C65.6171 46.1418 65.6118 46.1691 65.6015 46.1945C65.5912 46.2199 65.5761 46.243 65.5571 46.2625L63.9527 47.9051L65.5571 49.5478C65.5761 49.5672 65.5912 49.5903 65.6015 49.6158C65.6118 49.6412 65.6171 49.6685 65.6171 49.696C65.6171 49.7235 65.6118 49.7508 65.6015 49.7762C65.5912 49.8016 65.5761 49.8247 65.5571 49.8442L64.8702 50.5475C64.8512 50.5669 64.8287 50.5824 64.8038 50.5929C64.779 50.6035 64.7524 50.6089 64.7255 50.6089C64.6986 50.6089 64.672 50.6035 64.6471 50.5929C64.6223 50.5824 64.5997 50.5669 64.5807 50.5475L62 47.9051ZM73.0473 47.9051L71.4429 46.2625C71.3629 46.1808 71.3629 46.048 71.4427 45.9663L72.1296 45.263C72.1486 45.2435 72.1711 45.2281 72.196 45.2175C72.2208 45.207 72.2474 45.2016 72.2743 45.2016C72.3012 45.2016 72.3278 45.207 72.3527 45.2175C72.3775 45.2281 72.4001 45.2435 72.4191 45.263L75 47.9051L72.4193 50.5475C72.4003 50.5669 72.3777 50.5824 72.3529 50.5929C72.328 50.6035 72.3014 50.6089 72.2745 50.6089C72.2476 50.6089 72.221 50.6035 72.1962 50.5929C72.1713 50.5824 72.1488 50.5669 72.1298 50.5475L71.4429 49.8442C71.4239 49.8247 71.4088 49.8016 71.3985 49.7762C71.3882 49.7508 71.3829 49.7235 71.3829 49.696C71.3829 49.6685 71.3882 49.6412 71.3985 49.6158C71.4088 49.5903 71.4239 49.5672 71.4429 49.5478L73.0473 47.9051ZM67.7333 50.9826L66.8424 50.5868C66.7386 50.5406 66.6909 50.4171 66.736 50.3109L68.9332 45.1263C68.978 45.0201 69.0986 44.9712 69.2024 45.0174L70.0933 45.4132C70.1971 45.4592 70.2448 45.5826 70.1997 45.6889L68.0025 50.8737C67.9577 50.9799 67.8371 51.0288 67.7333 50.9826Z" fill="white"/>
<path d="M54 48.5V34.5H79.5" stroke="#82D3E0" stroke-opacity="0.49" stroke-width="1.5" stroke-linecap="round" stroke-linejoin="round"/>
<path d="M83.5 9V64.5" stroke="#82D3E0" stroke-opacity="0.49" stroke-width="1.5" stroke-linecap="round"/>
<path d="M59.5 31L80 11.5V29H67.5L75.5 20.5" stroke="#82D3E0" stroke-opacity="0.49" stroke-width="1.5" stroke-linecap="round"/>
<defs>
<linearGradient id="paint0_linear_42_20264" x1="35.5" y1="53.5" x2="87" y2="78.5" gradientUnits="userSpaceOnUse">
<stop stop-color="#48A1C8"/>
<stop offset="0.337689" stop-color="#08B7CF"/>
<stop offset="1" stop-color="#1D428A"/>
</linearGradient>
</defs>
</svg>
