<svg width="30" height="30" viewBox="0 0 30 30" fill="none" xmlns="http://www.w3.org/2000/svg">
<path fill-rule="evenodd" clip-rule="evenodd" d="M24.6727 11.7139C25.2154 11.7139 25.6392 12.1606 25.7699 12.8515C25.7792 12.9001 26 14.0692 26 15.0066C26 15.9428 25.7792 17.1115 25.7699 17.1597C25.6392 17.851 25.2147 18.2981 24.6883 18.2981H24.5786C23.1121 18.2981 21.9193 19.4909 21.9193 20.9574C21.9193 21.4175 22.1335 21.9299 22.151 21.9717L22.1518 21.9737C22.4216 22.5806 22.2132 23.3255 21.6658 23.708L21.6246 23.7346L18.8253 25.2772C18.648 25.3534 18.4544 25.3939 18.2499 25.3939C17.8121 25.3939 17.3845 25.2103 17.1061 24.9055C16.8044 24.5727 15.757 23.6256 14.9436 23.6256C14.1933 23.6256 13.1715 24.4717 12.7944 24.8791C12.3862 25.3254 11.6312 25.4857 11.0729 25.2399L11.0317 25.2213L8.33192 23.7065C7.78609 23.3255 7.57924 22.5806 7.84904 21.9706L7.84909 21.9705C7.85829 21.9487 8.08076 21.4232 8.08076 20.9574C8.08076 19.4909 6.88795 18.2981 5.42147 18.2981H5.32736C4.78463 18.2981 4.36084 17.851 4.23021 17.1597C4.22048 17.1114 4.00003 15.9428 4.00003 15.0066C4.00003 14.0692 4.22048 12.9001 4.23021 12.8515C4.36084 12.1606 4.78463 11.7139 5.31028 11.7139H5.42147C6.88795 11.7139 8.08076 10.5211 8.08076 9.0542C8.08076 8.5909 7.86356 8.07461 7.84877 8.03946L7.84828 8.03829C7.57921 7.43178 7.7876 6.68571 8.33502 6.30431L8.3778 6.27708L11.2276 4.7157C11.7843 4.47737 12.5301 4.63909 12.9398 5.06987C13.2384 5.38207 14.2648 6.27319 15.0564 6.27319C15.8379 6.27319 16.862 5.39959 17.159 5.09321C17.5695 4.66555 18.323 4.51274 18.8735 4.75148L18.914 4.77128L21.6658 6.30349C22.2132 6.68642 22.4208 7.43252 22.1502 8.04136L22.1494 8.04339C22.1323 8.08483 21.9193 8.60062 21.9193 9.05417C21.9193 10.5211 23.1121 11.7139 24.5786 11.7139H24.6727ZM24.2287 16.7157C24.2839 16.3907 24.4045 15.6123 24.4045 15.0066C24.4045 14.4035 24.2839 13.6216 24.2287 13.2959C22.0289 13.1159 20.3237 11.2773 20.3237 9.0542C20.3237 8.42436 20.5228 7.8233 20.6293 7.54881L18.274 6.24056C18.2682 6.24607 18.2615 6.25239 18.254 6.25947C18.1322 6.37481 17.7967 6.69244 17.3433 7.01112C16.5354 7.58031 15.7663 7.86879 15.0564 7.86879C14.3395 7.86879 13.565 7.57486 12.7517 6.99439C12.2742 6.65459 11.9251 6.31286 11.8186 6.20631L9.37155 7.55114C9.4773 7.82719 9.67637 8.4302 9.67637 9.0542C9.67637 11.2773 7.97114 13.1159 5.77216 13.2959C5.71617 13.6209 5.59563 14.3996 5.59563 15.0066C5.59563 15.6123 5.71617 16.3907 5.77216 16.7157C7.97114 16.8961 9.67637 18.7343 9.67637 20.9574C9.67637 21.5802 9.48273 22.1735 9.37075 22.4639L11.6677 23.75C11.7875 23.624 12.1296 23.2835 12.5992 22.9413C13.4243 22.3348 14.2127 22.0288 14.9436 22.0288C15.6808 22.0288 16.4755 22.3426 17.3044 22.9569C17.7764 23.3084 18.1232 23.6583 18.2406 23.7811L20.6286 22.4624C20.5228 22.1859 20.3237 21.5849 20.3237 20.9574C20.3237 18.7343 22.0289 16.8961 24.2287 16.7157ZM11.0386 14.9914C11.0386 12.8336 12.7944 11.0778 14.9522 11.0778C17.11 11.0778 18.8657 12.8336 18.8657 14.9914C18.8657 17.1495 17.11 18.9045 14.9522 18.9045C12.7944 18.9045 11.0386 17.1495 11.0386 14.9914ZM14.9522 17.3089C16.2305 17.3089 17.2702 16.2693 17.2702 14.9914C17.2702 13.7142 16.2305 12.6742 14.9522 12.6742C13.6738 12.6742 12.635 13.7142 12.635 14.9914C12.635 16.2693 13.6738 17.3089 14.9522 17.3089Z" fill="#97B7EF"/>
<path d="M25.7699 12.8515L25.5734 12.8887L25.5735 12.8891L25.7699 12.8515ZM25.7699 17.1597L25.5735 17.1217L25.5734 17.1226L25.7699 17.1597ZM22.151 21.9717L22.3356 21.8948L22.3355 21.8946L22.151 21.9717ZM22.1518 21.9737L21.9671 22.0506L21.9691 22.0549L22.1518 21.9737ZM21.6658 23.708L21.7741 23.8764L21.7804 23.872L21.6658 23.708ZM21.6246 23.7346L21.7214 23.9101L21.7328 23.9028L21.6246 23.7346ZM18.8253 25.2772L18.9043 25.461L18.9133 25.4571L18.9218 25.4524L18.8253 25.2772ZM17.1061 24.9055L16.958 25.0399L16.9584 25.0404L17.1061 24.9055ZM12.7944 24.8791L12.6477 24.7433L12.6469 24.7442L12.7944 24.8791ZM11.0729 25.2399L10.9903 25.4221L10.9923 25.423L11.0729 25.2399ZM11.0317 25.2213L10.9338 25.3957L10.9413 25.3999L10.9491 25.4034L11.0317 25.2213ZM8.33192 23.7065L8.21745 23.8705L8.2255 23.8761L8.23406 23.8809L8.33192 23.7065ZM7.84904 21.9706L8.03197 22.0515L8.03318 22.0486L7.84904 21.9706ZM7.84909 21.9705L8.03322 22.0485L8.03326 22.0484L7.84909 21.9705ZM4.23021 17.1597L4.42675 17.1225L4.42626 17.1201L4.23021 17.1597ZM4.23021 12.8515L4.42633 12.8908L4.42673 12.8887L4.23021 12.8515ZM7.84877 8.03946L7.6644 8.11697L7.66442 8.11702L7.84877 8.03946ZM7.84828 8.03829L8.03268 7.96077L8.03109 7.95719L7.84828 8.03829ZM8.33502 6.30431L8.22753 6.13544L8.22069 6.14021L8.33502 6.30431ZM8.3778 6.27708L8.28149 6.1013L8.2704 6.10836L8.3778 6.27708ZM11.2276 4.7157L11.1489 4.53184L11.14 4.53565L11.1315 4.5403L11.2276 4.7157ZM12.9398 5.06987L12.7949 5.20772L12.7953 5.2081L12.9398 5.06987ZM17.159 5.09321L17.3026 5.23243L17.3033 5.2317L17.159 5.09321ZM18.8735 4.75148L18.9616 4.57166L18.9531 4.56799L18.8735 4.75148ZM18.914 4.77128L19.0114 4.59629L19.0019 4.59164L18.914 4.77128ZM21.6658 6.30349L21.7805 6.13961L21.7721 6.13373L21.7631 6.12875L21.6658 6.30349ZM22.1502 8.04136L21.9674 7.96011L21.9654 7.96508L22.1502 8.04136ZM22.1494 8.04339L22.3343 8.11972L22.3343 8.11968L22.1494 8.04339ZM24.2287 16.7157L24.2451 16.915L24.3999 16.9023L24.4259 16.7492L24.2287 16.7157ZM24.2287 13.2959L24.4259 13.2624L24.3999 13.1092L24.245 13.0965L24.2287 13.2959ZM20.6293 7.54881L20.8157 7.62116L20.8788 7.45863L20.7264 7.37397L20.6293 7.54881ZM18.274 6.24056L18.3711 6.06572L18.2433 5.9947L18.1368 6.09501L18.274 6.24056ZM18.254 6.25947L18.3915 6.4047V6.4047L18.254 6.25947ZM17.3433 7.01112L17.2283 6.84748L17.2281 6.84762L17.3433 7.01112ZM12.7517 6.99439L12.8678 6.8316L12.8676 6.83145L12.7517 6.99439ZM11.8186 6.20631L11.96 6.06491L11.8539 5.95871L11.7223 6.03104L11.8186 6.20631ZM9.37155 7.55114L9.27522 7.37586L9.1224 7.45985L9.18478 7.62269L9.37155 7.55114ZM5.77216 13.2959L5.75584 13.0965L5.60137 13.1092L5.57506 13.2619L5.77216 13.2959ZM5.77216 16.7157L5.57506 16.7496L5.60136 16.9023L5.7558 16.915L5.77216 16.7157ZM9.37075 22.4639L9.18414 22.392L9.12178 22.5537L9.27304 22.6384L9.37075 22.4639ZM11.6677 23.75L11.57 23.9245L11.7056 24.0004L11.8126 23.8878L11.6677 23.75ZM12.5992 22.9413L12.717 23.103L12.7177 23.1025L12.5992 22.9413ZM17.3044 22.9569L17.4239 22.7965L17.4235 22.7962L17.3044 22.9569ZM18.2406 23.7811L18.096 23.9194L18.2025 24.0307L18.3373 23.9562L18.2406 23.7811ZM20.6286 22.4624L20.7252 22.6375L20.8775 22.5534L20.8154 22.3909L20.6286 22.4624ZM14.9522 12.6742L14.9522 12.4742H14.9522V12.6742ZM25.9664 12.8143C25.8256 12.0703 25.3482 11.5139 24.6727 11.5139V11.9139C25.0826 11.9139 25.4527 12.2509 25.5734 12.8887L25.9664 12.8143ZM26.2 15.0066C26.2 14.0481 25.9756 12.8621 25.9663 12.8138L25.5735 12.8891C25.5829 12.9381 25.8 14.0903 25.8 15.0066H26.2ZM25.9662 17.1977C25.9756 17.1494 26.2 15.9639 26.2 15.0066H25.8C25.8 15.9217 25.5828 17.0735 25.5735 17.1217L25.9662 17.1977ZM24.6883 18.4981C25.349 18.4981 25.8261 17.9393 25.9664 17.1969L25.5734 17.1226C25.4523 17.7627 25.0804 18.0981 24.6883 18.0981V18.4981ZM24.5786 18.4981H24.6883V18.0981H24.5786V18.4981ZM22.1193 20.9574C22.1193 19.6014 23.2226 18.4981 24.5786 18.4981V18.0981C23.0017 18.0981 21.7193 19.3805 21.7193 20.9574H22.1193ZM22.3355 21.8946C22.3173 21.851 22.1193 21.3727 22.1193 20.9574H21.7193C21.7193 21.4624 21.9498 22.0089 21.9665 22.0489L22.3355 21.8946ZM22.3365 21.8968L22.3356 21.8948L21.9664 22.0486L21.9672 22.0506L22.3365 21.8968ZM21.7804 23.872C22.4057 23.435 22.6435 22.5874 22.3346 21.8925L21.9691 22.0549C22.1997 22.5738 22.0206 23.2161 21.5513 23.5441L21.7804 23.872ZM21.7328 23.9028L21.774 23.8762L21.5576 23.5398L21.5164 23.5664L21.7328 23.9028ZM18.9218 25.4524L21.7211 23.9097L21.5281 23.5594L18.7288 25.1021L18.9218 25.4524ZM18.2499 25.5939C18.4812 25.5939 18.7017 25.548 18.9043 25.461L18.7464 25.0935C18.5943 25.1588 18.4276 25.1939 18.2499 25.1939V25.5939ZM16.9584 25.0404C17.2769 25.3891 17.7593 25.5939 18.2499 25.5939V25.1939C17.865 25.1939 17.4921 25.0316 17.2538 24.7707L16.9584 25.0404ZM14.9436 23.8256C15.2852 23.8256 15.7069 24.0305 16.1027 24.3051C16.4907 24.5743 16.8166 24.884 16.958 25.0399L17.2543 24.7712C17.0939 24.5943 16.7453 24.264 16.3307 23.9765C15.9241 23.6943 15.4154 23.4256 14.9436 23.4256V23.8256ZM12.9412 25.015C13.119 24.8229 13.4566 24.5199 13.8395 24.2663C14.2301 24.0077 14.6309 23.8256 14.9436 23.8256V23.4256C14.5061 23.4256 14.0208 23.6665 13.6187 23.9328C13.2088 24.2042 12.8469 24.528 12.6477 24.7433L12.9412 25.015ZM10.9923 25.423C11.629 25.7032 12.4758 25.5238 12.942 25.0141L12.6469 24.7442C12.2966 25.1271 11.6334 25.2681 11.1534 25.0569L10.9923 25.423ZM10.9491 25.4034L10.9903 25.4221L11.1554 25.0578L11.1142 25.0391L10.9491 25.4034ZM8.23406 23.8809L10.9338 25.3957L11.1295 25.0468L8.42979 23.5321L8.23406 23.8809ZM7.66614 21.8897C7.35782 22.5868 7.5928 23.4345 8.21745 23.8705L8.4464 23.5425C7.97938 23.2165 7.80066 22.5744 8.03195 22.0515L7.66614 21.8897ZM7.66495 21.8924L7.66491 21.8925L8.03318 22.0486L8.03322 22.0485L7.66495 21.8924ZM7.88076 20.9574C7.88076 21.3779 7.67483 21.8691 7.66491 21.8925L8.03326 22.0484C8.04174 22.0284 8.28076 21.4685 8.28076 20.9574H7.88076ZM5.42147 18.4981C6.77749 18.4981 7.88076 19.6014 7.88076 20.9574H8.28076C8.28076 19.3804 6.99841 18.0981 5.42147 18.0981V18.4981ZM5.32736 18.4981H5.42147V18.0981H5.32736V18.4981ZM4.03369 17.1968C4.17434 17.9411 4.65176 18.4981 5.32736 18.4981V18.0981C4.9175 18.0981 4.54734 17.7608 4.42674 17.1225L4.03369 17.1968ZM3.80003 15.0066C3.80003 15.9638 4.024 17.1489 4.03417 17.1992L4.42626 17.1201C4.41696 17.074 4.20003 15.9217 4.20003 15.0066H3.80003ZM4.03411 12.8122C4.02402 12.8626 3.80003 14.0481 3.80003 15.0066H4.20003C4.20003 14.0903 4.41694 12.9376 4.42632 12.8908L4.03411 12.8122ZM5.31028 11.5139C4.6502 11.5139 4.17396 12.0725 4.0337 12.8143L4.42673 12.8887C4.54772 12.2487 4.91906 11.9139 5.31028 11.9139V11.5139ZM5.42147 11.5139H5.31028V11.9139H5.42147V11.5139ZM7.88076 9.0542C7.88076 10.4107 6.77747 11.5139 5.42147 11.5139V11.9139C6.99843 11.9139 8.28076 10.6316 8.28076 9.0542H7.88076ZM7.66442 8.11702C7.67991 8.15385 7.88076 8.63597 7.88076 9.0542H8.28076C8.28076 8.54584 8.0472 7.99538 8.03312 7.96191L7.66442 8.11702ZM7.66391 8.1158L7.6644 8.11697L8.03314 7.96196L8.03265 7.96078L7.66391 8.1158ZM8.22069 6.14021C7.59491 6.57621 7.35741 7.42501 7.66546 8.1194L8.03109 7.95719C7.80101 7.43855 7.98029 6.79521 8.44935 6.46841L8.22069 6.14021ZM8.2704 6.10836L8.22763 6.13559L8.44242 6.47303L8.48519 6.4458L8.2704 6.10836ZM11.1315 4.5403L8.2817 6.10168L8.4739 6.45248L11.3237 4.8911L11.1315 4.5403ZM13.0848 4.93203C12.6183 4.44162 11.7836 4.26012 11.1489 4.53184L11.3063 4.89956C11.7851 4.69462 12.4419 4.83656 12.7949 5.20772L13.0848 4.93203ZM15.0564 6.07319C14.7235 6.07319 14.3114 5.88024 13.9241 5.62217C13.5445 5.36918 13.2244 5.07805 13.0844 4.93164L12.7953 5.2081C12.9539 5.37389 13.2962 5.68442 13.7023 5.95503C14.1008 6.22057 14.5977 6.47319 15.0564 6.47319V6.07319ZM17.0154 4.95399C16.8764 5.09738 16.5573 5.38281 16.1796 5.63092C15.7942 5.88401 15.385 6.07319 15.0564 6.07319V6.47319C15.5093 6.47319 16.0028 6.22557 16.3992 5.96526C16.8031 5.69997 17.1446 5.39542 17.3026 5.23243L17.0154 4.95399ZM18.9531 4.56799C18.3261 4.29607 17.4832 4.46661 17.0147 4.95471L17.3033 5.2317C17.6558 4.86449 18.32 4.72941 18.794 4.93497L18.9531 4.56799ZM19.0019 4.59164L18.9615 4.57185L18.7856 4.93112L18.826 4.95091L19.0019 4.59164ZM21.7631 6.12875L19.0113 4.59654L18.8167 4.94602L21.5685 6.47823L21.7631 6.12875ZM22.333 8.12259C22.6425 7.42607 22.4061 6.57729 21.7805 6.13961L21.5512 6.46736C22.0203 6.79555 22.1991 7.43897 21.9675 7.96014L22.333 8.12259ZM22.3343 8.11968L22.3351 8.11765L21.9654 7.96508L21.9645 7.9671L22.3343 8.11968ZM22.1193 9.05417C22.1193 8.64521 22.3162 8.16347 22.3343 8.11972L21.9645 7.96706C21.9484 8.00618 21.7193 8.55604 21.7193 9.05417H22.1193ZM24.5786 11.5139C23.2226 11.5139 22.1193 10.4107 22.1193 9.05417H21.7193C21.7193 10.6315 23.0016 11.9139 24.5786 11.9139V11.5139ZM24.6727 11.5139H24.5786V11.9139H24.6727V11.5139ZM24.2045 15.0066C24.2045 15.5937 24.0867 16.3573 24.0315 16.6822L24.4259 16.7492C24.4811 16.424 24.6045 15.6308 24.6045 15.0066H24.2045ZM24.0315 13.3293C24.0867 13.6549 24.2045 14.4221 24.2045 15.0066H24.6045C24.6045 14.385 24.4811 13.5884 24.4259 13.2624L24.0315 13.3293ZM20.1237 9.0542C20.1237 11.3817 21.909 13.3067 24.2124 13.4952L24.245 13.0965C22.1488 12.925 20.5237 11.1729 20.5237 9.0542H20.1237ZM20.4428 7.47645C20.3329 7.75966 20.1237 8.38784 20.1237 9.0542H20.5237C20.5237 8.46087 20.7126 7.88694 20.8157 7.62116L20.4428 7.47645ZM18.1769 6.4154L20.5322 7.72365L20.7264 7.37397L18.3711 6.06572L18.1769 6.4154ZM18.3915 6.4047C18.3991 6.39756 18.4055 6.39142 18.4112 6.38611L18.1368 6.09501C18.1308 6.10071 18.1239 6.10721 18.1165 6.11424L18.3915 6.4047ZM17.4583 7.17475C17.924 6.84744 18.268 6.52163 18.3915 6.4047L18.1165 6.11424C17.9964 6.228 17.6695 6.53745 17.2283 6.84748L17.4583 7.17475ZM15.0564 8.06879C15.8209 8.06879 16.6297 7.75851 17.4585 7.17462L17.2281 6.84762C16.441 7.40211 15.7118 7.66879 15.0564 7.66879V8.06879ZM12.6355 7.15719C13.4698 7.75257 14.2843 8.06879 15.0564 8.06879V7.66879C14.3947 7.66879 13.6603 7.39714 12.8678 6.8316L12.6355 7.15719ZM11.6772 6.34772C11.7873 6.45785 12.1453 6.80831 12.6357 7.15733L12.8676 6.83145C12.4032 6.50087 12.063 6.16788 11.96 6.06491L11.6772 6.34772ZM9.46787 7.72641L11.9149 6.38159L11.7223 6.03104L9.27522 7.37586L9.46787 7.72641ZM9.87637 9.0542C9.87637 8.39364 9.66708 7.7635 9.55831 7.47959L9.18478 7.62269C9.28753 7.89089 9.47637 8.46675 9.47637 9.0542H9.87637ZM5.78847 13.4952C8.09103 13.3067 9.87637 11.3816 9.87637 9.0542H9.47637C9.47637 11.1729 7.85125 12.925 5.75584 13.0965L5.78847 13.4952ZM5.79563 15.0066C5.79563 14.4182 5.91338 13.6542 5.96925 13.3298L5.57506 13.2619C5.51896 13.5876 5.39563 14.3811 5.39563 15.0066H5.79563ZM5.96925 16.6817C5.91337 16.3573 5.79563 15.5937 5.79563 15.0066H5.39563C5.39563 15.6309 5.51896 16.424 5.57506 16.7496L5.96925 16.6817ZM9.87637 20.9574C9.87637 18.6299 8.09101 16.7052 5.78851 16.5163L5.7558 16.915C7.85128 17.0869 9.47637 18.8386 9.47637 20.9574H9.87637ZM9.55736 22.5359C9.67273 22.2366 9.87637 21.6164 9.87637 20.9574H9.47637C9.47637 21.544 9.29273 22.1103 9.18414 22.392L9.55736 22.5359ZM11.7654 23.5755L9.46846 22.2894L9.27304 22.6384L11.57 23.9245L11.7654 23.5755ZM12.4815 22.7797C11.9993 23.131 11.6481 23.4804 11.5228 23.6122L11.8126 23.8878C11.9269 23.7677 12.2599 23.436 12.717 23.103L12.4815 22.7797ZM14.9436 21.8288C14.1562 21.8288 13.3269 22.1581 12.4808 22.7802L12.7177 23.1025C13.5216 22.5115 14.2692 22.2288 14.9436 22.2288V21.8288ZM17.4235 22.7962C16.5738 22.1665 15.738 21.8288 14.9436 21.8288V22.2288C15.6235 22.2288 16.3771 22.5187 17.1853 23.1176L17.4235 22.7962ZM18.3852 23.6429C18.2635 23.5157 17.9081 23.1571 17.4239 22.7965L17.1849 23.1173C17.6446 23.4596 17.9828 23.8009 18.096 23.9194L18.3852 23.6429ZM20.5319 22.2873L18.1439 23.6061L18.3373 23.9562L20.7252 22.6375L20.5319 22.2873ZM20.1237 20.9574C20.1237 21.6214 20.333 22.2496 20.4418 22.5339L20.8154 22.3909C20.7126 22.1222 20.5237 21.5483 20.5237 20.9574H20.1237ZM24.2124 16.5163C21.9091 16.7052 20.1237 18.6299 20.1237 20.9574H20.5237C20.5237 18.8387 22.1488 17.0869 24.2451 16.915L24.2124 16.5163ZM14.9522 10.8778C12.6839 10.8778 10.8386 12.7231 10.8386 14.9914H11.2386C11.2386 12.944 12.9049 11.2778 14.9522 11.2778V10.8778ZM19.0657 14.9914C19.0657 12.7231 17.2204 10.8778 14.9522 10.8778V11.2778C16.9995 11.2778 18.6657 12.944 18.6657 14.9914H19.0657ZM14.9522 19.1045C17.2204 19.1045 19.0657 17.26 19.0657 14.9914H18.6657C18.6657 17.039 16.9995 18.7045 14.9522 18.7045V19.1045ZM10.8386 14.9914C10.8386 17.26 12.684 19.1045 14.9522 19.1045V18.7045C12.9049 18.7045 11.2386 17.039 11.2386 14.9914H10.8386ZM17.0702 14.9914C17.0702 16.1588 16.1201 17.1089 14.9522 17.1089V17.5089C16.341 17.5089 17.4702 16.3798 17.4702 14.9914H17.0702ZM14.9522 12.8742C16.1201 12.8742 17.0702 13.8247 17.0702 14.9914H17.4702C17.4702 13.6037 16.341 12.4742 14.9522 12.4742L14.9522 12.8742ZM12.835 14.9914C12.835 13.8246 13.7844 12.8742 14.9522 12.8742V12.4742C13.5633 12.4742 12.435 13.6038 12.435 14.9914H12.835ZM14.9522 17.1089C13.7844 17.1089 12.835 16.1589 12.835 14.9914H12.435C12.435 16.3797 13.5633 17.5089 14.9522 17.5089V17.1089Z" fill="#97B7EF"/>
</svg>
