<svg width="101" height="17" viewBox="0 0 101 17" fill="none" xmlns="http://www.w3.org/2000/svg">
<path d="M32.884 0.879999V2.368H29.924V12H28.1V2.368H25.124V0.879999H32.884ZM42.8113 7.376C42.8113 7.70667 42.7899 8.00533 42.7473 8.272H36.0113C36.0646 8.976 36.3259 9.54133 36.7953 9.968C37.2646 10.3947 37.8406 10.608 38.5233 10.608C39.5046 10.608 40.1979 10.1973 40.6033 9.376H42.5712C42.3046 10.1867 41.8193 10.8533 41.1153 11.376C40.4219 11.888 39.5579 12.144 38.5233 12.144C37.6806 12.144 36.9233 11.9573 36.2513 11.584C35.5899 11.2 35.0673 10.6667 34.6833 9.984C34.3099 9.29067 34.1233 8.49067 34.1233 7.584C34.1233 6.67733 34.3046 5.88267 34.6673 5.2C35.0406 4.50667 35.5579 3.97333 36.2193 3.6C36.8913 3.22667 37.6593 3.04 38.5233 3.04C39.3553 3.04 40.0966 3.22133 40.7473 3.584C41.3979 3.94667 41.9046 4.45867 42.2673 5.12C42.6299 5.77067 42.8113 6.52267 42.8113 7.376ZM40.9073 6.8C40.8966 6.128 40.6566 5.58933 40.1873 5.184C39.7179 4.77867 39.1366 4.576 38.4433 4.576C37.8139 4.576 37.2753 4.77867 36.8273 5.184C36.3793 5.57867 36.1126 6.11733 36.0273 6.8H40.9073ZM46.4303 0.16V12H44.6063V0.16H46.4303ZM56.905 7.376C56.905 7.70667 56.8837 8.00533 56.841 8.272H50.105C50.1583 8.976 50.4197 9.54133 50.889 9.968C51.3583 10.3947 51.9343 10.608 52.617 10.608C53.5983 10.608 54.2917 10.1973 54.697 9.376H56.665C56.3983 10.1867 55.913 10.8533 55.209 11.376C54.5157 11.888 53.6517 12.144 52.617 12.144C51.7743 12.144 51.017 11.9573 50.345 11.584C49.6837 11.2 49.161 10.6667 48.777 9.984C48.4037 9.29067 48.217 8.49067 48.217 7.584C48.217 6.67733 48.3983 5.88267 48.761 5.2C49.1343 4.50667 49.6517 3.97333 50.313 3.6C50.985 3.22667 51.753 3.04 52.617 3.04C53.449 3.04 54.1903 3.22133 54.841 3.584C55.4917 3.94667 55.9983 4.45867 56.361 5.12C56.7237 5.77067 56.905 6.52267 56.905 7.376ZM55.001 6.8C54.9903 6.128 54.7503 5.58933 54.281 5.184C53.8117 4.77867 53.2303 4.576 52.537 4.576C51.9077 4.576 51.369 4.77867 50.921 5.184C50.473 5.57867 50.2063 6.11733 50.121 6.8H55.001ZM62.252 3.04C62.9347 3.04 63.5373 3.17867 64.06 3.456C64.5933 3.72267 65.0093 4.05867 65.308 4.464V3.184H67.148V12.144C67.148 12.9547 66.9773 13.6747 66.636 14.304C66.2947 14.944 65.7987 15.4453 65.148 15.808C64.508 16.1707 63.74 16.352 62.844 16.352C61.6493 16.352 60.6573 16.0693 59.868 15.504C59.0787 14.9493 58.6307 14.192 58.524 13.232H60.332C60.4707 13.6907 60.764 14.0587 61.212 14.336C61.6707 14.624 62.2147 14.768 62.844 14.768C63.58 14.768 64.172 14.544 64.62 14.096C65.0787 13.648 65.308 12.9973 65.308 12.144V10.672C64.9987 11.088 64.5773 11.44 64.044 11.728C63.5213 12.0053 62.924 12.144 62.252 12.144C61.484 12.144 60.78 11.952 60.14 11.568C59.5107 11.1733 59.0093 10.6293 58.636 9.936C58.2733 9.232 58.092 8.43733 58.092 7.552C58.092 6.66667 58.2733 5.88267 58.636 5.2C59.0093 4.51733 59.5107 3.98933 60.14 3.616C60.78 3.232 61.484 3.04 62.252 3.04ZM65.308 7.584C65.308 6.976 65.18 6.448 64.924 6C64.6787 5.552 64.3533 5.21067 63.948 4.976C63.5427 4.74133 63.1053 4.624 62.636 4.624C62.1667 4.624 61.7293 4.74133 61.324 4.976C60.9187 5.2 60.588 5.536 60.332 5.984C60.0867 6.42133 59.964 6.944 59.964 7.552C59.964 8.16 60.0867 8.69333 60.332 9.152C60.588 9.61067 60.9187 9.96267 61.324 10.208C61.74 10.4427 62.1773 10.56 62.636 10.56C63.1053 10.56 63.5427 10.4427 63.948 10.208C64.3533 9.97333 64.6787 9.632 64.924 9.184C65.18 8.72533 65.308 8.192 65.308 7.584ZM71.3678 4.464C71.6344 4.016 71.9864 3.66933 72.4238 3.424C72.8718 3.168 73.3998 3.04 74.0078 3.04V4.928H73.5438C72.8291 4.928 72.2851 5.10933 71.9118 5.472C71.5491 5.83467 71.3678 6.464 71.3678 7.36V12H69.5438V3.184H71.3678V4.464ZM75.0764 7.552C75.0764 6.66667 75.2577 5.88267 75.6204 5.2C75.9937 4.51733 76.495 3.98933 77.1244 3.616C77.7644 3.232 78.4684 3.04 79.2364 3.04C79.9297 3.04 80.5324 3.17867 81.0444 3.456C81.567 3.72267 81.983 4.05867 82.2924 4.464V3.184H84.1324V12H82.2924V10.688C81.983 11.104 81.5617 11.4507 81.0284 11.728C80.495 12.0053 79.887 12.144 79.2044 12.144C78.447 12.144 77.7537 11.952 77.1244 11.568C76.495 11.1733 75.9937 10.6293 75.6204 9.936C75.2577 9.232 75.0764 8.43733 75.0764 7.552ZM82.2924 7.584C82.2924 6.976 82.1644 6.448 81.9084 6C81.663 5.552 81.3377 5.21067 80.9324 4.976C80.527 4.74133 80.0897 4.624 79.6204 4.624C79.151 4.624 78.7137 4.74133 78.3084 4.976C77.903 5.2 77.5724 5.536 77.3164 5.984C77.071 6.42133 76.9484 6.944 76.9484 7.552C76.9484 8.16 77.071 8.69333 77.3164 9.152C77.5724 9.61067 77.903 9.96267 78.3084 10.208C78.7244 10.4427 79.1617 10.56 79.6204 10.56C80.0897 10.56 80.527 10.4427 80.9324 10.208C81.3377 9.97333 81.663 9.632 81.9084 9.184C82.1644 8.72533 82.2924 8.192 82.2924 7.584ZM97.2001 3.04C97.8935 3.04 98.5121 3.184 99.0561 3.472C99.6108 3.76 100.043 4.18667 100.352 4.752C100.672 5.31733 100.832 6 100.832 6.8V12H99.0241V7.072C99.0241 6.28267 98.8268 5.68 98.4321 5.264C98.0375 4.83733 97.4988 4.624 96.8161 4.624C96.1335 4.624 95.5895 4.83733 95.1841 5.264C94.7895 5.68 94.5921 6.28267 94.5921 7.072V12H92.7841V7.072C92.7841 6.28267 92.5868 5.68 92.1921 5.264C91.7975 4.83733 91.2588 4.624 90.5761 4.624C89.8935 4.624 89.3495 4.83733 88.9441 5.264C88.5495 5.68 88.3521 6.28267 88.3521 7.072V12H86.5281V3.184H88.3521V4.192C88.6508 3.82933 89.0295 3.54667 89.4881 3.344C89.9468 3.14133 90.4375 3.04 90.9601 3.04C91.6641 3.04 92.2935 3.18933 92.8481 3.488C93.4028 3.78667 93.8295 4.21867 94.1281 4.784C94.3948 4.25067 94.8108 3.82933 95.3761 3.52C95.9415 3.2 96.5495 3.04 97.2001 3.04Z" fill="#80829F"/>
<path d="M12.7767 0.85288L0.956659 5.41088C0.149992 5.73488 0.154659 6.18488 0.808659 6.38555L3.84333 7.33221L10.8647 2.90221C11.1967 2.70021 11.5 2.80888 11.2507 3.03021L5.56199 8.16421H5.56066L5.56199 8.16488L5.35266 11.2929C5.65933 11.2929 5.79466 11.1522 5.96666 10.9862L7.44066 9.55288L10.5067 11.8175C11.072 12.1289 11.478 11.9689 11.6187 11.2942L13.6313 1.80888C13.8373 0.98288 13.316 0.60888 12.7767 0.85288Z" fill="#80829F"/>
</svg>
