<svg width="15" height="15" viewBox="0 0 15 15" fill="none" xmlns="http://www.w3.org/2000/svg">
<path d="M7.37951 10.5156L0.541193 3.53854C0.640262 3.49873 0.745794 3.4783 0.852273 3.47833H5.45455V6.60875C5.45455 6.65442 5.46336 6.69965 5.4805 6.74185C5.49763 6.78405 5.52274 6.8224 5.5544 6.85469C5.58605 6.88699 5.62363 6.91261 5.66499 6.93009C5.70636 6.94757 5.75069 6.95657 5.79545 6.95657H9.20455C9.24931 6.95657 9.29364 6.94757 9.335 6.93009C9.37637 6.91261 9.41395 6.88699 9.4456 6.85469C9.47726 6.8224 9.50237 6.78405 9.5195 6.74185C9.53664 6.69965 9.54545 6.65442 9.54545 6.60875V3.47833H14.1477C14.2542 3.4783 14.3597 3.49873 14.4588 3.53854L7.62049 10.5156C7.58853 10.5482 7.54519 10.5665 7.5 10.5665C7.45481 10.5665 7.41147 10.5482 7.37951 10.5156ZM5.11364 2.78268H6.13636V6.26092H8.86364V2.78268H9.88636C9.95603 2.7827 10.024 2.76094 10.0812 2.72033C10.1384 2.67972 10.182 2.62221 10.2062 2.55555C10.2304 2.48888 10.2339 2.41626 10.2164 2.34746C10.1989 2.27865 10.1612 2.21698 10.1083 2.17073L7.72191 0.08378C7.66012 0.0297179 7.5814 0 7.5 0C7.4186 0 7.33988 0.0297179 7.27809 0.08378L4.89173 2.17073C4.83882 2.21698 4.80107 2.27865 4.78357 2.34746C4.76606 2.41626 4.76964 2.48888 4.79381 2.55555C4.81799 2.62221 4.8616 2.67972 4.91878 2.72033C4.97596 2.76094 5.04397 2.7827 5.11364 2.78268ZM14.941 4.0305L8.10266 11.0075C8.02352 11.0883 7.92957 11.1523 7.82616 11.196C7.72276 11.2397 7.61193 11.2622 7.5 11.2622C7.38807 11.2622 7.27725 11.2397 7.17384 11.196C7.07043 11.1523 6.97648 11.0883 6.89734 11.0075L0.0590199 4.0305C0.0199935 4.13158 -2.86646e-05 4.23925 3.08007e-08 4.34789V14.1304C0.000253807 14.361 0.0901281 14.582 0.249905 14.745C0.409682 14.908 0.626314 14.9997 0.852273 15H14.1477C14.3737 14.9997 14.5903 14.908 14.7501 14.745C14.9099 14.582 14.9997 14.361 15 14.1304V4.34789C15 4.23925 14.98 4.13158 14.941 4.0305Z" fill="#97B7EF"/>
</svg>
