<svg width="30" height="30" viewBox="0 0 30 30" fill="none" xmlns="http://www.w3.org/2000/svg">
<path fill-rule="evenodd" clip-rule="evenodd" d="M17.4277 3.5153L24.0661 7.34802C25.2564 8.03509 25.9958 9.31579 25.9955 10.6902V18.3559C25.9955 19.7305 25.2561 21.011 24.0658 21.6983L17.4274 25.531C16.8323 25.8745 16.165 26.0464 15.4978 26.0464C14.8305 26.0464 14.1632 25.8745 13.5681 25.531L6.92969 21.6983C5.73938 21.011 5 19.7303 5 18.3559V10.6904C5 9.31605 5.73938 8.03534 6.92969 7.34802L13.5683 3.5153C14.7586 2.82823 16.2374 2.82823 17.4277 3.5153ZM23.2536 20.2906C23.9427 19.8928 24.3708 19.1514 24.3708 18.3556H24.3705V10.6902C24.3705 9.89444 23.9424 9.15304 23.2533 8.75517L16.6149 4.92245C16.2704 4.72364 15.8839 4.62411 15.4978 4.62411C15.1116 4.62411 14.7251 4.72364 14.3806 4.92245L7.74219 8.75517C7.05309 9.15304 6.625 9.89444 6.625 10.6902V18.3556C6.625 19.1514 7.05309 19.8928 7.74219 20.2906L14.3808 24.1234C15.0699 24.5212 15.9261 24.5212 16.6152 24.1234L23.2536 20.2906ZM16.2759 10.5046V13.7955C17.3078 13.9808 18.2049 14.4513 18.8041 15.1361C19.3246 15.731 19.5757 16.4584 19.5115 17.1843C19.431 18.0938 18.8871 18.9081 17.9802 19.4771C17.4797 19.7912 16.897 20.0098 16.2759 20.1225V21.0168C16.2759 21.4655 15.9121 21.8293 15.4634 21.8293C15.0148 21.8293 14.6509 21.4655 14.6509 21.0168V20.1748C13.4388 20.0362 12.3551 19.5028 11.7011 18.7098C11.4154 18.3637 11.4647 17.8516 11.8107 17.566C12.1568 17.2803 12.6689 17.3296 12.9546 17.6756C13.309 18.1053 13.9354 18.4171 14.6509 18.5344V15.2407C13.6508 15.0462 12.7827 14.5823 12.1982 13.9143C11.6777 13.3194 11.4266 12.5919 11.4908 11.866C11.5713 10.9565 12.1152 10.1423 13.0221 9.57325C13.5025 9.27186 14.0581 9.05858 14.6509 8.94229V8.02036C14.6509 7.5717 15.0148 7.20786 15.4634 7.20786C15.9121 7.20786 16.2759 7.5717 16.2759 8.02036V8.86789C17.516 8.99256 18.6302 9.52983 19.2982 10.337C19.5843 10.6826 19.5361 11.1947 19.1903 11.4808C18.8447 11.767 18.3326 11.7188 18.0464 11.3729C17.6793 10.9294 17.0214 10.6115 16.2759 10.5046ZM13.1095 12.0097C13.0838 12.2982 13.1887 12.579 13.421 12.8446C13.7072 13.1716 14.1406 13.423 14.6509 13.5705V10.6145C14.3714 10.6958 14.1116 10.8082 13.8859 10.9499C13.4197 11.2424 13.144 11.6187 13.1095 12.0097ZM17.1164 18.1007C17.5825 17.8082 17.8583 17.4319 17.8928 17.0409C17.9182 16.7527 17.8133 16.4716 17.5813 16.206C17.2812 15.863 16.819 15.6033 16.2759 15.4593V18.4572C16.5842 18.3749 16.8706 18.2551 17.1164 18.1007Z" fill="#97B7EF"/>
<path d="M24.0661 7.34802L23.9661 7.52122L23.9661 7.52123L24.0661 7.34802ZM17.4277 3.5153L17.5277 3.3421L17.5277 3.34209L17.4277 3.5153ZM25.9955 10.6902L25.7955 10.6901V10.6902H25.9955ZM24.0658 21.6983L24.1658 21.8715L24.1658 21.8715L24.0658 21.6983ZM17.4274 25.531L17.5274 25.7042L17.5274 25.7042L17.4274 25.531ZM13.5681 25.531L13.4681 25.7042L13.4681 25.7042L13.5681 25.531ZM6.92969 21.6983L6.82968 21.8715L6.82969 21.8715L6.92969 21.6983ZM6.92969 7.34802L6.82969 7.17481L6.82968 7.17482L6.92969 7.34802ZM13.5683 3.5153L13.4683 3.34209L13.4683 3.3421L13.5683 3.5153ZM24.3708 18.3556H24.5708V18.1556H24.3708V18.3556ZM23.2536 20.2906L23.3536 20.4638L23.3536 20.4638L23.2536 20.2906ZM24.3705 18.3556H24.1705V18.5556H24.3705V18.3556ZM23.2533 8.75517L23.3533 8.58196L23.3533 8.58196L23.2533 8.75517ZM16.6149 4.92245L16.7149 4.74925L16.7149 4.74922L16.6149 4.92245ZM14.3806 4.92245L14.2806 4.74922L14.2806 4.74925L14.3806 4.92245ZM7.74219 8.75517L7.64219 8.58196L7.64218 8.58196L7.74219 8.75517ZM7.74219 20.2906L7.64218 20.4638L7.64219 20.4638L7.74219 20.2906ZM14.3808 24.1234L14.4808 23.9501L14.4808 23.9501L14.3808 24.1234ZM16.6152 24.1234L16.5152 23.9501L16.5152 23.9501L16.6152 24.1234ZM16.2759 13.7955H16.0759V13.9627L16.2406 13.9923L16.2759 13.7955ZM16.2759 10.5046L16.3043 10.3066L16.0759 10.2738V10.5046H16.2759ZM18.8041 15.1361L18.9546 15.0044L18.9546 15.0044L18.8041 15.1361ZM19.5115 17.1843L19.7107 17.202V17.202L19.5115 17.1843ZM17.9802 19.4771L17.8739 19.3077L17.8738 19.3077L17.9802 19.4771ZM16.2759 20.1225L16.2402 19.9258L16.0759 19.9556V20.1225H16.2759ZM14.6509 20.1748H14.8509V19.9964L14.6737 19.9761L14.6509 20.1748ZM11.7011 18.7098L11.8553 18.5825L11.8553 18.5825L11.7011 18.7098ZM12.9546 17.6756L13.1089 17.5484L13.1088 17.5483L12.9546 17.6756ZM14.6509 18.5344L14.6186 18.7317L14.8509 18.7698V18.5344H14.6509ZM14.6509 15.2407H14.8509V15.0758L14.6891 15.0444L14.6509 15.2407ZM12.1982 13.9143L12.0477 14.046H12.0477L12.1982 13.9143ZM11.4908 11.866L11.2916 11.8484V11.8484L11.4908 11.866ZM13.0221 9.57325L12.9158 9.40383L13.0221 9.57325ZM14.6509 8.94229L14.6894 9.13855L14.8509 9.10687V8.94229H14.6509ZM16.2759 8.86789H16.0759V9.0488L16.2559 9.06689L16.2759 8.86789ZM19.2982 10.337L19.1441 10.4645L19.1441 10.4646L19.2982 10.337ZM19.1903 11.4808L19.0628 11.3268L19.0627 11.3268L19.1903 11.4808ZM18.0464 11.3729L18.2005 11.2454L18.2005 11.2454L18.0464 11.3729ZM13.421 12.8446L13.2705 12.9763L13.2705 12.9763L13.421 12.8446ZM13.1095 12.0097L13.3087 12.0274L13.3087 12.0273L13.1095 12.0097ZM14.6509 13.5705L14.5954 13.7626L14.8509 13.8365V13.5705H14.6509ZM14.6509 10.6145H14.8509V10.3481L14.5951 10.4225L14.6509 10.6145ZM13.8859 10.9499L13.9922 11.1193L13.9922 11.1193L13.8859 10.9499ZM17.8928 17.0409L18.092 17.0585L18.092 17.0584L17.8928 17.0409ZM17.1164 18.1007L17.0101 17.9313L17.01 17.9313L17.1164 18.1007ZM17.5813 16.206L17.7319 16.0744L17.7318 16.0743L17.5813 16.206ZM16.2759 15.4593L16.3272 15.266L16.0759 15.1994V15.4593H16.2759ZM16.2759 18.4572H16.0759V18.7175L16.3275 18.6504L16.2759 18.4572ZM24.1661 7.17481L17.5277 3.3421L17.3277 3.68851L23.9661 7.52122L24.1661 7.17481ZM26.1955 10.6902C26.1958 9.24435 25.4183 7.8976 24.1661 7.1748L23.9661 7.52123C25.0945 8.17257 25.7957 9.38723 25.7955 10.6901L26.1955 10.6902ZM26.1955 18.3559V10.6902H25.7955V18.3559H26.1955ZM24.1658 21.8715C25.418 21.1484 26.1955 19.802 26.1955 18.3559H25.7955C25.7955 19.6591 25.0943 20.8735 23.9658 21.5251L24.1658 21.8715ZM17.5274 25.7042L24.1658 21.8715L23.9658 21.5251L17.3274 25.3578L17.5274 25.7042ZM15.4978 26.2464C16.1993 26.2464 16.9012 26.0657 17.5274 25.7042L17.3275 25.3578C16.7634 25.6834 16.1308 25.8464 15.4978 25.8464V26.2464ZM13.4681 25.7042C14.0944 26.0657 14.7962 26.2464 15.4978 26.2464V25.8464C14.8648 25.8464 14.2321 25.6834 13.668 25.3578L13.4681 25.7042ZM6.82969 21.8715L13.4681 25.7042L13.6681 25.3578L7.02969 21.5251L6.82969 21.8715ZM4.8 18.3559C4.8 19.8017 5.57749 21.1484 6.82968 21.8715L7.0297 21.5251C5.90126 20.8735 5.2 19.6588 5.2 18.3559H4.8ZM4.8 10.6904V18.3559H5.2V10.6904H4.8ZM6.82968 7.17482C5.57749 7.89787 4.8 9.24459 4.8 10.6904H5.2C5.2 9.3875 5.90126 8.17282 7.0297 7.52122L6.82968 7.17482ZM13.4683 3.3421L6.82969 7.17481L7.02969 7.52122L13.6683 3.68851L13.4683 3.3421ZM17.5277 3.34209C16.2755 2.6193 14.7205 2.6193 13.4683 3.34209L13.6683 3.68852C14.7967 3.03716 16.1993 3.03716 17.3277 3.68852L17.5277 3.34209ZM24.1708 18.3556C24.1708 19.0799 23.7808 19.7553 23.1536 20.1174L23.3536 20.4638C24.1046 20.0302 24.5708 19.2228 24.5708 18.3556H24.1708ZM24.3705 18.5556H24.3708V18.1556H24.3705V18.5556ZM24.1705 10.6902V18.3556H24.5705V10.6902H24.1705ZM23.1533 8.92837C23.7805 9.29052 24.1705 9.9659 24.1705 10.6902H24.5705C24.5705 9.82299 24.1043 9.01556 23.3533 8.58196L23.1533 8.92837ZM16.5149 5.09566L23.1533 8.92837L23.3533 8.58196L16.7149 4.74925L16.5149 5.09566ZM15.4978 4.82411C15.8497 4.82411 16.2015 4.91482 16.515 5.09568L16.7149 4.74922C16.3392 4.53246 15.9182 4.42411 15.4978 4.42411V4.82411ZM14.4805 5.09568C14.794 4.91482 15.1458 4.82411 15.4978 4.82411V4.42411C15.0773 4.42411 14.6563 4.53246 14.2806 4.74922L14.4805 5.09568ZM7.84219 8.92837L14.4806 5.09566L14.2806 4.74925L7.64219 8.58196L7.84219 8.92837ZM6.825 10.6902C6.825 9.9659 7.21496 9.29052 7.84219 8.92837L7.64218 8.58196C6.89121 9.01556 6.425 9.82299 6.425 10.6902H6.825ZM6.825 18.3556V10.6902H6.425V18.3556H6.825ZM7.84219 20.1174C7.21496 19.7553 6.825 19.0799 6.825 18.3556H6.425C6.425 19.2228 6.89121 20.0302 7.64218 20.4638L7.84219 20.1174ZM14.4808 23.9501L7.84219 20.1174L7.64219 20.4638L14.2808 24.2966L14.4808 23.9501ZM16.5152 23.9501C15.888 24.3123 15.108 24.3123 14.4808 23.9501L14.2808 24.2966C15.0318 24.7302 15.9642 24.7302 16.7152 24.2966L16.5152 23.9501ZM23.1536 20.1174L16.5152 23.9501L16.7152 24.2966L23.3536 20.4638L23.1536 20.1174ZM16.4759 13.7955V10.5046H16.0759V13.7955H16.4759ZM18.9546 15.0044C18.3204 14.2796 17.3796 13.7905 16.3113 13.5986L16.2406 13.9923C17.236 14.1711 18.0893 14.6229 18.6536 15.2678L18.9546 15.0044ZM19.7107 17.202C19.7802 16.4168 19.5077 15.6365 18.9546 15.0044L18.6536 15.2678C19.1415 15.8255 19.3712 16.5 19.3122 17.1667L19.7107 17.202ZM18.0864 19.6465C19.0361 19.0508 19.6237 18.1851 19.7107 17.202L19.3122 17.1667C19.2383 18.0026 18.7381 18.7655 17.8739 19.3077L18.0864 19.6465ZM16.3117 20.3193C16.9554 20.2025 17.5625 19.9754 18.0865 19.6465L17.8738 19.3077C17.3969 19.607 16.8386 19.8171 16.2402 19.9258L16.3117 20.3193ZM16.4759 21.0168V20.1225H16.0759V21.0168H16.4759ZM15.4634 22.0293C16.0225 22.0293 16.4759 21.5759 16.4759 21.0168H16.0759C16.0759 21.355 15.8016 21.6293 15.4634 21.6293V22.0293ZM14.4509 21.0168C14.4509 21.5759 14.9043 22.0293 15.4634 22.0293V21.6293C15.1252 21.6293 14.8509 21.355 14.8509 21.0168H14.4509ZM14.4509 20.1748V21.0168H14.8509V20.1748H14.4509ZM11.5468 18.8371C12.2403 19.6779 13.3758 20.2303 14.6282 20.3736L14.6737 19.9761C13.5018 19.8421 12.4699 19.3276 11.8553 18.5825L11.5468 18.8371ZM11.6834 17.4117C11.2523 17.7676 11.1908 18.4058 11.5468 18.8371L11.8553 18.5825C11.64 18.3217 11.6771 17.9356 11.9381 17.7202L11.6834 17.4117ZM13.1088 17.5483C12.753 17.1172 12.1148 17.0557 11.6834 17.4117L11.9381 17.7202C12.1988 17.505 12.5849 17.542 12.8003 17.803L13.1088 17.5483ZM14.6833 18.337C13.999 18.2248 13.4233 17.9294 13.1089 17.5484L12.8003 17.8029C13.1948 18.2811 13.8719 18.6093 14.6186 18.7317L14.6833 18.337ZM14.4509 15.2407V18.5344H14.8509V15.2407H14.4509ZM12.0477 14.046C12.6663 14.753 13.577 15.2356 14.6128 15.437L14.6891 15.0444C13.7246 14.8568 12.8991 14.4116 12.3487 13.7826L12.0477 14.046ZM11.2916 11.8484C11.2221 12.6335 11.4946 13.4139 12.0477 14.046L12.3487 13.7826C11.8608 13.2249 11.631 12.5504 11.69 11.8836L11.2916 11.8484ZM12.9158 9.40383C11.9662 9.9996 11.3786 10.8653 11.2916 11.8484L11.69 11.8836C11.764 11.0477 12.2641 10.2849 13.1284 9.74266L12.9158 9.40383ZM14.6124 8.74603C13.9977 8.8666 13.4188 9.08826 12.9158 9.40383L13.1284 9.74266C13.5862 9.45546 14.1184 9.25056 14.6894 9.13855L14.6124 8.74603ZM14.4509 8.02036V8.94229H14.8509V8.02036H14.4509ZM15.4634 7.00786C14.9043 7.00786 14.4509 7.46125 14.4509 8.02036H14.8509C14.8509 7.68216 15.1252 7.40786 15.4634 7.40786V7.00786ZM16.4759 8.02036C16.4759 7.46125 16.0225 7.00786 15.4634 7.00786V7.40786C15.8016 7.40786 16.0759 7.68216 16.0759 8.02036H16.4759ZM16.4759 8.86789V8.02036H16.0759V8.86789H16.4759ZM19.4523 10.2095C18.744 9.35369 17.5769 8.79768 16.2959 8.6689L16.2559 9.06689C17.4551 9.18745 18.5163 9.70597 19.1441 10.4645L19.4523 10.2095ZM19.3178 11.6349C19.7487 11.2784 19.8089 10.6401 19.4522 10.2094L19.1441 10.4646C19.3598 10.725 19.3235 11.111 19.0628 11.3268L19.3178 11.6349ZM17.8923 11.5004C18.2489 11.9314 18.8871 11.9915 19.3178 11.6349L19.0627 11.3268C18.8023 11.5425 18.4162 11.5061 18.2005 11.2454L17.8923 11.5004ZM16.2476 10.7025C16.961 10.8048 17.5664 11.1067 17.8924 11.5005L18.2005 11.2454C17.7921 10.752 17.0818 10.4181 16.3043 10.3066L16.2476 10.7025ZM13.5715 12.7129C13.3667 12.4787 13.2889 12.2499 13.3087 12.0274L12.9103 11.992C12.8788 12.3464 13.0107 12.6793 13.2705 12.9763L13.5715 12.7129ZM14.7065 13.3784C14.2229 13.2386 13.8264 13.0041 13.5715 12.7129L13.2705 12.9763C13.588 13.3391 14.0583 13.6074 14.5954 13.7626L14.7065 13.3784ZM14.4509 10.6145V13.5705H14.8509V10.6145H14.4509ZM13.9922 11.1193C14.2001 10.9888 14.4424 10.8834 14.7068 10.8066L14.5951 10.4225C14.3003 10.5081 14.0231 10.6277 13.7796 10.7805L13.9922 11.1193ZM13.3087 12.0273C13.3357 11.7212 13.5564 11.3928 13.9922 11.1193L13.7796 10.7805C13.2831 11.0921 12.9523 11.5162 12.9102 11.9921L13.3087 12.0273ZM17.6936 17.0233C17.6666 17.3294 17.4459 17.6578 17.0101 17.9313L17.2227 18.2701C17.7192 17.9586 18.05 17.5344 18.092 17.0585L17.6936 17.0233ZM17.4307 16.3376C17.6353 16.5718 17.7132 16.8009 17.6936 17.0233L18.092 17.0584C18.1232 16.7045 17.9914 16.3714 17.7319 16.0744L17.4307 16.3376ZM16.2247 15.6526C16.7402 15.7893 17.1634 16.0321 17.4307 16.3377L17.7318 16.0743C17.3989 15.6939 16.8979 15.4173 16.3272 15.266L16.2247 15.6526ZM16.4759 18.4572V15.4593H16.0759V18.4572H16.4759ZM17.01 17.9313C16.7836 18.0735 16.5162 18.1861 16.2244 18.2639L16.3275 18.6504C16.6522 18.5638 16.9576 18.4366 17.2227 18.2701L17.01 17.9313Z" fill="#97B7EF"/>
</svg>
