<svg width="79" height="14" viewBox="0 0 79 14" fill="none" xmlns="http://www.w3.org/2000/svg">
<path d="M33.384 1.88V3.368H30.424V13H28.6V3.368H25.624V1.88H33.384ZM47.0713 4.184L44.3353 13H42.4153L40.6393 6.488L38.8633 13H36.9433L34.1913 4.184H36.0473L37.8873 11.272L39.7593 4.184H41.6633L43.4553 11.24L45.2793 4.184H47.0713ZM49.3624 3.016C49.0317 3.016 48.7544 2.904 48.5304 2.68C48.3064 2.456 48.1944 2.17867 48.1944 1.848C48.1944 1.51733 48.3064 1.24 48.5304 1.016C48.7544 0.791999 49.0317 0.679999 49.3624 0.679999C49.6824 0.679999 49.9544 0.791999 50.1784 1.016C50.4024 1.24 50.5144 1.51733 50.5144 1.848C50.5144 2.17867 50.4024 2.456 50.1784 2.68C49.9544 2.904 49.6824 3.016 49.3624 3.016ZM50.2584 4.184V13H48.4344V4.184H50.2584ZM54.7811 5.672V10.552C54.7811 10.8827 54.8558 11.1227 55.0051 11.272C55.1651 11.4107 55.4318 11.48 55.8051 11.48H56.9251V13H55.4851C54.6638 13 54.0345 12.808 53.5971 12.424C53.1598 12.04 52.9411 11.416 52.9411 10.552V5.672H51.9011V4.184H52.9411V1.992H54.7811V4.184H56.9251V5.672H54.7811ZM60.7343 5.672V10.552C60.7343 10.8827 60.8089 11.1227 60.9583 11.272C61.1183 11.4107 61.3849 11.48 61.7583 11.48H62.8783V13H61.4383C60.6169 13 59.9876 12.808 59.5503 12.424C59.1129 12.04 58.8943 11.416 58.8943 10.552V5.672H57.8543V4.184H58.8943V1.992H60.7343V4.184H62.8783V5.672H60.7343ZM72.6394 8.376C72.6394 8.70667 72.618 9.00533 72.5754 9.272H65.8394C65.8927 9.976 66.154 10.5413 66.6234 10.968C67.0927 11.3947 67.6687 11.608 68.3514 11.608C69.3327 11.608 70.026 11.1973 70.4314 10.376H72.3994C72.1327 11.1867 71.6474 11.8533 70.9434 12.376C70.25 12.888 69.386 13.144 68.3514 13.144C67.5087 13.144 66.7514 12.9573 66.0794 12.584C65.418 12.2 64.8954 11.6667 64.5114 10.984C64.138 10.2907 63.9514 9.49067 63.9514 8.584C63.9514 7.67733 64.1327 6.88267 64.4954 6.2C64.8687 5.50667 65.386 4.97333 66.0474 4.6C66.7194 4.22667 67.4874 4.04 68.3514 4.04C69.1834 4.04 69.9247 4.22133 70.5754 4.584C71.226 4.94667 71.7327 5.45867 72.0954 6.12C72.458 6.77067 72.6394 7.52267 72.6394 8.376ZM70.7354 7.8C70.7247 7.128 70.4847 6.58933 70.0154 6.184C69.546 5.77867 68.9647 5.576 68.2714 5.576C67.642 5.576 67.1034 5.77867 66.6554 6.184C66.2074 6.57867 65.9407 7.11733 65.8554 7.8H70.7354ZM76.2584 5.464C76.525 5.016 76.877 4.66933 77.3144 4.424C77.7624 4.168 78.2904 4.04 78.8984 4.04V5.928H78.4344C77.7197 5.928 77.1757 6.10933 76.8024 6.472C76.4397 6.83467 76.2584 7.464 76.2584 8.36V13H74.4344V4.184H76.2584V5.464Z" fill="#80829F"/>
<path d="M15.262 2.29122C14.7053 2.53789 14.1073 2.70456 13.4787 2.77989C14.1273 2.39175 14.6126 1.78087 14.844 1.06122C14.2346 1.42321 13.5676 1.67802 12.872 1.81456C12.4043 1.31513 11.7847 0.984106 11.1095 0.872871C10.4344 0.761636 9.7414 0.876416 9.13816 1.19939C8.53492 1.52236 8.05518 2.03546 7.77343 2.65902C7.49169 3.28259 7.42369 3.98172 7.58 4.64789C6.34512 4.58589 5.13708 4.26492 4.03428 3.70583C2.93148 3.14673 1.95856 2.362 1.17866 1.40256C0.911998 1.86256 0.758664 2.39589 0.758664 2.96389C0.758367 3.47522 0.884286 3.97872 1.12525 4.42971C1.36621 4.8807 1.71477 5.26525 2.14 5.54922C1.64685 5.53353 1.16458 5.40028 0.733331 5.16055V5.20055C0.733281 5.91772 0.981353 6.61281 1.43545 7.16789C1.88955 7.72296 2.52171 8.10384 3.22466 8.24589C2.76719 8.3697 2.28756 8.38794 1.822 8.29922C2.02033 8.9163 2.40666 9.45591 2.92691 9.84251C3.44716 10.2291 4.07528 10.4433 4.72333 10.4552C3.62322 11.3188 2.26459 11.7873 0.865998 11.7852C0.618252 11.7853 0.370715 11.7708 0.124664 11.7419C1.54432 12.6547 3.19689 13.1391 4.88466 13.1372C10.598 13.1372 13.7213 8.40522 13.7213 4.30122C13.7213 4.16789 13.718 4.03322 13.712 3.89989C14.3195 3.46054 14.8439 2.91649 15.2607 2.29322L15.262 2.29122Z" fill="#80829F"/>
</svg>
