<svg width="16" height="16" viewBox="0 0 16 16" fill="none" xmlns="http://www.w3.org/2000/svg">
<path d="M15.7623 3.29134C15.2057 3.53801 14.6077 3.70468 13.979 3.78001C14.6277 3.39187 15.113 2.78099 15.3443 2.06134C14.7349 2.42334 14.0679 2.67814 13.3723 2.81468C12.9046 2.31525 12.285 1.98423 11.6099 1.87299C10.9347 1.76176 10.2417 1.87654 9.63849 2.19951C9.03525 2.52249 8.55552 3.03559 8.27377 3.65915C7.99202 4.28271 7.92402 4.98184 8.08033 5.64801C6.84546 5.58601 5.63742 5.26504 4.53462 4.70595C3.43181 4.14685 2.45889 3.36212 1.679 2.40268C1.41233 2.86268 1.259 3.39601 1.259 3.96401C1.2587 4.47534 1.38462 4.97884 1.62559 5.42983C1.86655 5.88083 2.21511 6.26537 2.64033 6.54934C2.14718 6.53365 1.66492 6.4004 1.23367 6.16068V6.20068C1.23362 6.91784 1.48169 7.61293 1.93579 8.16801C2.38989 8.72309 3.02205 9.10396 3.725 9.24601C3.26752 9.36982 2.78789 9.38806 2.32233 9.29934C2.52067 9.91642 2.907 10.456 3.42725 10.8426C3.94749 11.2292 4.57561 11.4435 5.22367 11.4553C4.12356 12.319 2.76493 12.7874 1.36633 12.7853C1.11859 12.7854 0.871051 12.7709 0.625 12.742C2.04465 13.6548 3.69723 14.1392 5.385 14.1373C11.0983 14.1373 14.2217 9.40534 14.2217 5.30134C14.2217 5.16801 14.2183 5.03334 14.2123 4.90001C14.8199 4.46066 15.3443 3.91661 15.761 3.29334L15.7623 3.29134V3.29134Z" fill="#808191"/>
</svg>
