<svg width="428" height="38" viewBox="0 0 428 38" fill="none" xmlns="http://www.w3.org/2000/svg">
<path d="M11.2393 37L0.976562 0.636363H8.06108L14.6129 27.3587H14.9503L21.946 0.636363H28.3913L35.4048 27.3764H35.7244L42.2763 0.636363H49.3608L39.098 37H32.5994L25.3196 11.4851H25.0355L17.7379 37H11.2393ZM61.935 37.5327C59.2006 37.5327 56.8391 36.9645 54.8505 35.8281C52.8737 34.6799 51.3526 33.0582 50.2873 30.9631C49.2219 28.8561 48.6893 26.3762 48.6893 23.5234C48.6893 20.718 49.2219 18.2559 50.2873 16.1371C51.3645 14.0064 52.8678 12.3492 54.7972 11.1655C56.7267 9.96993 58.9935 9.37216 61.5977 9.37216C63.2785 9.37216 64.8647 9.64441 66.3562 10.1889C67.8595 10.7216 69.1853 11.5502 70.3335 12.6747C71.4935 13.7992 72.4049 15.2315 73.0678 16.9716C73.7307 18.6998 74.0621 20.7595 74.0621 23.1506V25.1214H51.7077V20.7891H67.9009C67.8891 19.558 67.6228 18.4631 67.1019 17.5043C66.5811 16.5336 65.8531 15.7701 64.918 15.2138C63.9947 14.6574 62.9175 14.3793 61.6864 14.3793C60.3725 14.3793 59.2184 14.6989 58.2241 15.3381C57.2298 15.9654 56.4544 16.794 55.8981 17.8239C55.3536 18.8419 55.0754 19.9605 55.0636 21.1797V24.9616C55.0636 26.5478 55.3536 27.9091 55.9336 29.0455C56.5136 30.17 57.3245 31.0341 58.3661 31.6378C59.4078 32.2296 60.627 32.5256 62.0238 32.5256C62.9589 32.5256 63.8053 32.3954 64.5629 32.1349C65.3204 31.8627 65.9774 31.4661 66.5337 30.9453C67.0901 30.4245 67.5103 29.7794 67.7944 29.0099L73.7958 29.6847C73.417 31.2708 72.695 32.6558 71.6296 33.8395C70.5761 35.0114 69.2267 35.9228 67.5813 36.5739C65.936 37.2131 64.0539 37.5327 61.935 37.5327ZM84.9274 0.636363V37H78.4998V0.636363H84.9274ZM102.433 37.5327C99.7107 37.5327 97.3729 36.9349 95.4197 35.7393C93.4785 34.5438 91.9811 32.8925 90.9276 30.7855C89.8859 28.6667 89.3651 26.2282 89.3651 23.4702C89.3651 20.7003 89.8977 18.2559 90.9631 16.1371C92.0284 14.0064 93.5317 12.3492 95.473 11.1655C97.4261 9.96993 99.7344 9.37216 102.398 9.37216C104.611 9.37216 106.57 9.78054 108.275 10.5973C109.991 11.4022 111.358 12.5445 112.376 14.0241C113.394 15.492 113.974 17.2083 114.116 19.1733H107.973C107.724 17.8594 107.133 16.7644 106.197 15.8885C105.274 15.0007 104.037 14.5568 102.487 14.5568C101.173 14.5568 100.018 14.9119 99.0241 15.6222C98.0298 16.3205 97.2545 17.3267 96.6982 18.6406C96.1536 19.9545 95.8814 21.5289 95.8814 23.3636C95.8814 25.2221 96.1536 26.8201 96.6982 28.1577C97.2427 29.4834 98.0062 30.5073 98.9886 31.2294C99.983 31.9396 101.149 32.2947 102.487 32.2947C103.433 32.2947 104.28 32.1172 105.026 31.7621C105.783 31.3951 106.416 30.8684 106.925 30.1818C107.434 29.4953 107.784 28.6607 107.973 27.6783H114.116C113.963 29.6077 113.394 31.3182 112.412 32.8097C111.429 34.2893 110.092 35.4493 108.399 36.2898C106.706 37.1184 104.718 37.5327 102.433 37.5327ZM130.291 37.5327C127.627 37.5327 125.319 36.9467 123.366 35.7749C121.413 34.603 119.898 32.9635 118.82 30.8565C117.755 28.7495 117.222 26.2874 117.222 23.4702C117.222 20.6529 117.755 18.1849 118.82 16.0661C119.898 13.9472 121.413 12.3018 123.366 11.13C125.319 9.9581 127.627 9.37216 130.291 9.37216C132.954 9.37216 135.262 9.9581 137.215 11.13C139.169 12.3018 140.678 13.9472 141.743 16.0661C142.82 18.1849 143.359 20.6529 143.359 23.4702C143.359 26.2874 142.82 28.7495 141.743 30.8565C140.678 32.9635 139.169 34.603 137.215 35.7749C135.262 36.9467 132.954 37.5327 130.291 37.5327ZM130.326 32.3835C131.77 32.3835 132.978 31.987 133.948 31.1939C134.919 30.389 135.641 29.3118 136.115 27.9624C136.6 26.6129 136.843 25.1096 136.843 23.4524C136.843 21.7834 136.6 20.2741 136.115 18.9247C135.641 17.5634 134.919 16.4804 133.948 15.6754C132.978 14.8705 131.77 14.468 130.326 14.468C128.847 14.468 127.615 14.8705 126.633 15.6754C125.662 16.4804 124.934 17.5634 124.449 18.9247C123.976 20.2741 123.739 21.7834 123.739 23.4524C123.739 25.1096 123.976 26.6129 124.449 27.9624C124.934 29.3118 125.662 30.389 126.633 31.1939C127.615 31.987 128.847 32.3835 130.326 32.3835ZM147.814 37V9.72727H153.958V14.3615H154.277C154.846 12.799 155.787 11.5798 157.1 10.7038C158.414 9.81605 159.983 9.37216 161.806 9.37216C163.652 9.37216 165.209 9.82197 166.475 10.7216C167.754 11.6094 168.654 12.8227 169.174 14.3615H169.458C170.062 12.8464 171.08 11.639 172.512 10.7393C173.957 9.82789 175.667 9.37216 177.644 9.37216C180.153 9.37216 182.201 10.1652 183.787 11.7514C185.373 13.3376 186.167 15.6518 186.167 18.6939V37H179.721V19.6882C179.721 17.9955 179.271 16.7585 178.372 15.9773C177.472 15.1842 176.371 14.7876 175.069 14.7876C173.519 14.7876 172.305 15.273 171.429 16.2436C170.565 17.2024 170.133 18.4512 170.133 19.9901V37H163.83V19.4219C163.83 18.0133 163.404 16.8887 162.551 16.0483C161.711 15.2079 160.61 14.7876 159.249 14.7876C158.326 14.7876 157.485 15.0244 156.728 15.4979C155.97 15.9595 155.366 16.6165 154.917 17.4688C154.467 18.3092 154.242 19.2917 154.242 20.4162V37H147.814ZM203.761 37.5327C201.027 37.5327 198.665 36.9645 196.677 35.8281C194.7 34.6799 193.179 33.0582 192.113 30.9631C191.048 28.8561 190.515 26.3762 190.515 23.5234C190.515 20.718 191.048 18.2559 192.113 16.1371C193.191 14.0064 194.694 12.3492 196.623 11.1655C198.553 9.96993 200.82 9.37216 203.424 9.37216C205.105 9.37216 206.691 9.64441 208.182 10.1889C209.686 10.7216 211.011 11.5502 212.16 12.6747C213.32 13.7992 214.231 15.2315 214.894 16.9716C215.557 18.6998 215.888 20.7595 215.888 23.1506V25.1214H193.534V20.7891H209.727C209.715 19.558 209.449 18.4631 208.928 17.5043C208.407 16.5336 207.679 15.7701 206.744 15.2138C205.821 14.6574 204.744 14.3793 203.513 14.3793C202.199 14.3793 201.045 14.6989 200.05 15.3381C199.056 15.9654 198.281 16.794 197.724 17.8239C197.18 18.8419 196.902 19.9605 196.89 21.1797V24.9616C196.89 26.5478 197.18 27.9091 197.76 29.0455C198.34 30.17 199.151 31.0341 200.192 31.6378C201.234 32.2296 202.453 32.5256 203.85 32.5256C204.785 32.5256 205.631 32.3954 206.389 32.1349C207.147 31.8627 207.804 31.4661 208.36 30.9453C208.916 30.4245 209.336 29.7794 209.621 29.0099L215.622 29.6847C215.243 31.2708 214.521 32.6558 213.456 33.8395C212.402 35.0114 211.053 35.9228 209.407 36.5739C207.762 37.2131 205.88 37.5327 203.761 37.5327ZM245.347 9.72727V14.6989H229.669V9.72727H245.347ZM233.539 3.19318H239.967V28.7969C239.967 29.661 240.097 30.3239 240.358 30.7855C240.63 31.2353 240.985 31.5431 241.423 31.7088C241.861 31.8745 242.346 31.9574 242.879 31.9574C243.281 31.9574 243.648 31.9278 243.98 31.8686C244.323 31.8094 244.583 31.7562 244.761 31.7088L245.844 36.7337C245.501 36.852 245.01 36.9822 244.37 37.1243C243.743 37.2663 242.974 37.3492 242.062 37.3729C240.452 37.4202 239.002 37.1776 237.712 36.6449C236.422 36.1004 235.398 35.2599 234.64 34.1236C233.895 32.9872 233.528 31.5668 233.539 29.8622V3.19318ZM261.326 37.5327C258.662 37.5327 256.354 36.9467 254.401 35.7749C252.448 34.603 250.933 32.9635 249.856 30.8565C248.79 28.7495 248.258 26.2874 248.258 23.4702C248.258 20.6529 248.79 18.1849 249.856 16.0661C250.933 13.9472 252.448 12.3018 254.401 11.13C256.354 9.9581 258.662 9.37216 261.326 9.37216C263.989 9.37216 266.297 9.9581 268.251 11.13C270.204 12.3018 271.713 13.9472 272.778 16.0661C273.855 18.1849 274.394 20.6529 274.394 23.4702C274.394 26.2874 273.855 28.7495 272.778 30.8565C271.713 32.9635 270.204 34.603 268.251 35.7749C266.297 36.9467 263.989 37.5327 261.326 37.5327ZM261.361 32.3835C262.805 32.3835 264.013 31.987 264.983 31.1939C265.954 30.389 266.676 29.3118 267.15 27.9624C267.635 26.6129 267.878 25.1096 267.878 23.4524C267.878 21.7834 267.635 20.2741 267.15 18.9247C266.676 17.5634 265.954 16.4804 264.983 15.6754C264.013 14.8705 262.805 14.468 261.361 14.468C259.882 14.468 258.651 14.8705 257.668 15.6754C256.698 16.4804 255.97 17.5634 255.484 18.9247C255.011 20.2741 254.774 21.7834 254.774 23.4524C254.774 25.1096 255.011 26.6129 255.484 27.9624C255.97 29.3118 256.698 30.389 257.668 31.1939C258.651 31.987 259.882 32.3835 261.361 32.3835Z" fill="white"/>
<path d="M298.189 37L287.926 0.636363H295.01L301.562 27.3587H301.9L308.895 0.636363H315.341L322.354 27.3764H322.674L329.225 0.636363H336.31L326.047 37H319.549L312.269 11.4851H311.985L304.687 37H298.189ZM339.878 37V0.636363H363.528V6.15838H346.465V16.0305H362.303V21.5526H346.465V31.478H363.67V37H339.878ZM369.249 37V0.636363H383.169C385.797 0.636363 387.981 1.05066 389.721 1.87926C391.473 2.69602 392.781 3.81463 393.645 5.23508C394.521 6.65554 394.959 8.26539 394.959 10.0646C394.959 11.5443 394.675 12.8108 394.107 13.8643C393.539 14.906 392.775 15.7524 391.816 16.4034C390.857 17.0544 389.786 17.522 388.602 17.8061V18.1612C389.893 18.2322 391.13 18.6288 392.313 19.3509C393.509 20.0611 394.485 21.0672 395.243 22.3693C396.001 23.6714 396.379 25.2457 396.379 27.0923C396.379 28.9744 395.924 30.6671 395.012 32.1705C394.101 33.6619 392.728 34.8397 390.893 35.7038C389.058 36.5679 386.75 37 383.968 37H369.249ZM375.836 31.4957H382.921C385.312 31.4957 387.034 31.04 388.088 30.1286C389.153 29.2053 389.686 28.0215 389.686 26.5774C389.686 25.5002 389.419 24.5296 388.887 23.6655C388.354 22.7895 387.596 22.103 386.614 21.6058C385.631 21.0968 384.459 20.8423 383.098 20.8423H375.836V31.4957ZM375.836 16.1016H382.352C383.489 16.1016 384.513 15.8944 385.424 15.4801C386.336 15.054 387.052 14.4562 387.573 13.6868C388.105 12.9055 388.372 11.9822 388.372 10.9169C388.372 9.50828 387.874 8.34825 386.88 7.43679C385.898 6.52533 384.436 6.0696 382.494 6.0696H375.836V16.1016ZM413.805 37.4972C411.249 37.4972 408.976 37.0592 406.987 36.1832C405.01 35.3073 403.448 34.0881 402.3 32.5256C401.152 30.9631 400.542 29.1579 400.471 27.1101H407.147C407.206 28.0926 407.532 28.9508 408.124 29.6847C408.715 30.4067 409.503 30.969 410.485 31.3714C411.468 31.7739 412.568 31.9751 413.788 31.9751C415.09 31.9751 416.244 31.7502 417.25 31.3004C418.256 30.8388 419.043 30.1996 419.612 29.3828C420.18 28.5661 420.458 27.625 420.446 26.5597C420.458 25.4588 420.174 24.4882 419.594 23.6477C419.014 22.8073 418.173 22.1503 417.072 21.6768C415.983 21.2034 414.67 20.9666 413.131 20.9666H409.917V15.8885H413.131C414.397 15.8885 415.504 15.6695 416.451 15.2315C417.41 14.7936 418.161 14.178 418.706 13.3849C419.25 12.58 419.517 11.6508 419.505 10.5973C419.517 9.56747 419.286 8.67377 418.812 7.91619C418.351 7.14678 417.694 6.549 416.842 6.12287C416.001 5.69673 415.013 5.48366 413.876 5.48366C412.764 5.48366 411.734 5.68489 410.787 6.08736C409.84 6.48982 409.076 7.06392 408.496 7.80966C407.916 8.54356 407.609 9.41951 407.573 10.4375H401.234C401.282 8.40151 401.868 6.61411 402.992 5.07528C404.129 3.52462 405.644 2.31723 407.538 1.45312C409.432 0.577177 411.556 0.139203 413.912 0.139203C416.339 0.139203 418.446 0.594932 420.233 1.50639C422.032 2.40601 423.423 3.61932 424.406 5.14631C425.388 6.67329 425.879 8.36008 425.879 10.2067C425.891 12.2545 425.287 13.9709 424.068 15.3558C422.861 16.7408 421.275 17.6463 419.31 18.0724V18.3565C421.866 18.7116 423.826 19.6586 425.187 21.1974C426.56 22.7244 427.241 24.6243 427.229 26.897C427.229 28.933 426.649 30.7559 425.489 32.3658C424.34 33.9638 422.754 35.2185 420.73 36.13C418.718 37.0414 416.41 37.4972 413.805 37.4972Z" fill="#97EAEF"/>
</svg>
