<svg width="86" height="13" viewBox="0 0 86 13" fill="none" xmlns="http://www.w3.org/2000/svg">
<path d="M9.78281 3.89707C9.875 3.89707 9.96719 3.90019 10.0578 3.90488C9.67656 1.89395 7.58437 0.356445 5.05937 0.356445C2.26562 0.356445 0 2.24082 0 4.56582C0 5.83301 0.68125 6.97519 1.74844 7.74707C1.79245 7.77815 1.82835 7.81935 1.8531 7.86721C1.87784 7.91508 1.89072 7.96819 1.89062 8.02207C1.89062 8.05957 1.88281 8.09395 1.87344 8.12988C1.7875 8.44707 1.65156 8.95488 1.64531 8.97832C1.63438 9.01894 1.61875 9.05957 1.61875 9.10176C1.61875 9.19394 1.69375 9.27051 1.7875 9.27051C1.82344 9.27051 1.85313 9.25644 1.88438 9.23926L2.99219 8.60019C3.075 8.55176 3.16406 8.52207 3.26094 8.52207C3.31094 8.52207 3.36094 8.52988 3.40938 8.54394C3.92656 8.69238 4.48438 8.77519 5.06094 8.77519C5.15469 8.77519 5.24688 8.77363 5.33906 8.76894C5.22813 8.44082 5.16875 8.09551 5.16875 7.7377C5.16875 5.61582 7.23437 3.89707 9.78281 3.89707ZM6.74687 2.54551C7.11875 2.54551 7.42188 2.84707 7.42188 3.21895C7.42188 3.59082 7.12031 3.89238 6.74687 3.89238C6.375 3.89238 6.07188 3.59082 6.07188 3.21895C6.07188 2.84707 6.375 2.54551 6.74687 2.54551ZM3.37344 3.89238C3.00156 3.89238 2.69844 3.59082 2.69844 3.21895C2.69844 2.84707 3 2.54551 3.37344 2.54551C3.74687 2.54551 4.04844 2.84707 4.04844 3.21895C4.04844 3.59082 3.74531 3.89238 3.37344 3.89238ZM12.5422 10.3861C13.4313 9.74238 13.9984 8.79238 13.9984 7.73457C13.9984 5.79707 12.1109 4.22676 9.78125 4.22676C7.45312 4.22676 5.56406 5.79707 5.56406 7.73457C5.56406 9.67207 7.45156 11.2424 9.78125 11.2424C10.2625 11.2424 10.7281 11.1736 11.1578 11.0502C11.1984 11.0377 11.2391 11.0314 11.2812 11.0314C11.3625 11.0314 11.4359 11.0564 11.5047 11.0955L12.4281 11.6268C12.4547 11.6424 12.4797 11.6533 12.5094 11.6533C12.5279 11.6535 12.5463 11.65 12.5634 11.643C12.5806 11.636 12.5962 11.6257 12.6094 11.6127C12.6224 11.5995 12.6327 11.5839 12.6397 11.5667C12.6466 11.5496 12.6501 11.5312 12.65 11.5127C12.65 11.4783 12.6359 11.4439 12.6281 11.4096C12.6234 11.3908 12.5094 10.9674 12.4375 10.7018C12.4297 10.6721 12.4234 10.6424 12.4234 10.6127C12.425 10.5205 12.4719 10.4377 12.5422 10.3861ZM8.37813 7.1752C8.06719 7.1752 7.81563 6.92363 7.81563 6.61426C7.81563 6.30488 8.06719 6.05332 8.37813 6.05332C8.68906 6.05332 8.94063 6.30488 8.94063 6.61426C8.94063 6.92363 8.6875 7.1752 8.37813 7.1752ZM11.1891 7.1752C10.8781 7.1752 10.6266 6.92363 10.6266 6.61426C10.6266 6.30488 10.8781 6.05332 11.1891 6.05332C11.5 6.05332 11.7516 6.30488 11.7516 6.61426C11.7508 6.76307 11.6913 6.90555 11.5859 7.01063C11.4805 7.11571 11.3379 7.17487 11.1891 7.1752Z" fill="#80829F"/>
<path d="M38.68 0.879999L35.384 12H33.32L30.984 3.584L28.504 12L26.456 12.016L23.304 0.879999H25.24L27.544 9.936L30.04 0.879999H32.088L34.408 9.888L36.728 0.879999H38.68ZM48.2644 7.376C48.2644 7.70667 48.243 8.00533 48.2004 8.272H41.4644C41.5177 8.976 41.779 9.54133 42.2484 9.968C42.7177 10.3947 43.2937 10.608 43.9764 10.608C44.9577 10.608 45.651 10.1973 46.0564 9.376H48.0244C47.7577 10.1867 47.2724 10.8533 46.5684 11.376C45.875 11.888 45.011 12.144 43.9764 12.144C43.1337 12.144 42.3764 11.9573 41.7044 11.584C41.043 11.2 40.5204 10.6667 40.1364 9.984C39.763 9.29067 39.5764 8.49067 39.5764 7.584C39.5764 6.67733 39.7577 5.88267 40.1204 5.2C40.4937 4.50667 41.011 3.97333 41.6724 3.6C42.3444 3.22667 43.1124 3.04 43.9764 3.04C44.8084 3.04 45.5497 3.22133 46.2004 3.584C46.851 3.94667 47.3577 4.45867 47.7204 5.12C48.083 5.77067 48.2644 6.52267 48.2644 7.376ZM46.3604 6.8C46.3497 6.128 46.1097 5.58933 45.6404 5.184C45.171 4.77867 44.5897 4.576 43.8964 4.576C43.267 4.576 42.7284 4.77867 42.2804 5.184C41.8324 5.57867 41.5657 6.11733 41.4804 6.8H46.3604ZM49.4514 7.584C49.4514 6.67733 49.6327 5.88267 49.9954 5.2C50.3687 4.50667 50.8807 3.97333 51.5314 3.6C52.182 3.22667 52.9287 3.04 53.7714 3.04C54.838 3.04 55.718 3.296 56.4114 3.808C57.1154 4.30933 57.59 5.02933 57.8354 5.968H55.8674C55.7074 5.53067 55.4514 5.18933 55.0994 4.944C54.7474 4.69867 54.3047 4.576 53.7714 4.576C53.0247 4.576 52.4274 4.84267 51.9794 5.376C51.542 5.89867 51.3234 6.63467 51.3234 7.584C51.3234 8.53333 51.542 9.27467 51.9794 9.808C52.4274 10.3413 53.0247 10.608 53.7714 10.608C54.8274 10.608 55.526 10.144 55.8674 9.216H57.8354C57.5794 10.112 57.0994 10.8267 56.3954 11.36C55.6914 11.8827 54.8167 12.144 53.7714 12.144C52.9287 12.144 52.182 11.9573 51.5314 11.584C50.8807 11.2 50.3687 10.6667 49.9954 9.984C49.6327 9.29067 49.4514 8.49067 49.4514 7.584ZM64.2131 3.04C64.8851 3.04 65.4825 3.184 66.0051 3.472C66.5385 3.76 66.9545 4.18667 67.2531 4.752C67.5625 5.31733 67.7171 6 67.7171 6.8V12H65.9091V7.072C65.9091 6.28267 65.7118 5.68 65.3171 5.264C64.9225 4.83733 64.3838 4.624 63.7011 4.624C63.0185 4.624 62.4745 4.83733 62.0691 5.264C61.6745 5.68 61.4771 6.28267 61.4771 7.072V12H59.6531V0.16H61.4771V4.208C61.7865 3.83467 62.1758 3.54667 62.6451 3.344C63.1251 3.14133 63.6478 3.04 64.2131 3.04ZM69.4358 7.552C69.4358 6.66667 69.6171 5.88267 69.9798 5.2C70.3531 4.51733 70.8544 3.98933 71.4838 3.616C72.1238 3.232 72.8278 3.04 73.5958 3.04C74.2891 3.04 74.8918 3.17867 75.4038 3.456C75.9264 3.72267 76.3424 4.05867 76.6518 4.464V3.184H78.4918V12H76.6518V10.688C76.3424 11.104 75.9211 11.4507 75.3878 11.728C74.8544 12.0053 74.2464 12.144 73.5638 12.144C72.8064 12.144 72.1131 11.952 71.4838 11.568C70.8544 11.1733 70.3531 10.6293 69.9798 9.936C69.6171 9.232 69.4358 8.43733 69.4358 7.552ZM76.6518 7.584C76.6518 6.976 76.5238 6.448 76.2678 6C76.0224 5.552 75.6971 5.21067 75.2918 4.976C74.8864 4.74133 74.4491 4.624 73.9798 4.624C73.5104 4.624 73.0731 4.74133 72.6678 4.976C72.2624 5.2 71.9318 5.536 71.6758 5.984C71.4304 6.42133 71.3078 6.944 71.3078 7.552C71.3078 8.16 71.4304 8.69333 71.6758 9.152C71.9318 9.61067 72.2624 9.96267 72.6678 10.208C73.0838 10.4427 73.5211 10.56 73.9798 10.56C74.4491 10.56 74.8864 10.4427 75.2918 10.208C75.6971 9.97333 76.0224 9.632 76.2678 9.184C76.5238 8.72533 76.6518 8.192 76.6518 7.584ZM83.0155 4.672V9.552C83.0155 9.88267 83.0902 10.1227 83.2395 10.272C83.3995 10.4107 83.6662 10.48 84.0395 10.48H85.1595V12H83.7195C82.8982 12 82.2688 11.808 81.8315 11.424C81.3942 11.04 81.1755 10.416 81.1755 9.552V4.672H80.1355V3.184H81.1755V0.992H83.0155V3.184H85.1595V4.672H83.0155Z" fill="#80829F"/>
</svg>
