<svg width="24" height="24" viewBox="0 0 24 24" fill="none" xmlns="http://www.w3.org/2000/svg">
<rect width="24" height="24" rx="6" fill="#121212"/>
<path d="M15.9359 10.8339C15.5977 10.5113 15.5977 9.9996 15.9359 9.677C16.2741 9.35439 16.8105 9.35439 17.1487 9.677C17.4869 9.9996 17.4869 10.5113 17.1487 10.8339C16.8105 11.1565 16.2741 11.1565 15.9359 10.8339ZM13.0671 13.5816C12.8222 13.348 12.8222 12.9587 13.0671 12.7139C13.312 12.4803 13.7201 12.4803 13.9767 12.7139C14.2216 12.9476 14.2216 13.3369 13.9767 13.5816C13.7201 13.8153 13.312 13.8153 13.0671 13.5816ZM17.6035 12.1355C17.3586 11.9019 17.3586 11.5125 17.6035 11.2678C17.8484 11.0342 18.2566 11.0342 18.5131 11.2678C18.758 11.5014 18.758 11.8907 18.5131 12.1355C18.2566 12.3802 17.8484 12.3802 17.6035 12.1355ZM16.0875 13.5816C15.8426 13.348 15.8426 12.9587 16.0875 12.7139C16.3324 12.4803 16.7405 12.4803 16.9971 12.7139C17.242 12.9476 17.242 13.3369 16.9971 13.5816C16.7405 13.8153 16.344 13.8153 16.0875 13.5816ZM19.2711 13.437C19.1079 13.2813 19.1079 13.0143 19.2711 12.8586C19.4344 12.7028 19.7143 12.7028 19.8776 12.8586C20.0408 13.0143 20.0408 13.2813 19.8776 13.437C19.7026 13.5928 19.4344 13.5928 19.2711 13.437ZM17.7551 14.8832C17.5918 14.7275 17.5918 14.4605 17.7551 14.3047C17.9184 14.149 18.1983 14.149 18.3615 14.3047C18.5248 14.4605 18.5248 14.7275 18.3615 14.8832C18.1866 15.0389 17.9184 15.0389 17.7551 14.8832ZM14.4198 12.2801C14.0816 11.9575 14.0816 11.4458 14.4198 11.1232C14.758 10.8006 15.2945 10.8006 15.6327 11.1232C15.9708 11.4458 15.9708 11.9575 15.6327 12.2801C15.3061 12.6027 14.758 12.6027 14.4198 12.2801ZM14.4198 9.39889C14.0816 9.07628 14.0816 8.56456 14.4198 8.24195C14.758 7.91935 15.2945 7.91935 15.6327 8.24195C15.9708 8.56456 15.9708 9.07628 15.6327 9.39889C15.3061 9.71037 14.758 9.71037 14.4198 9.39889ZM12.9155 10.8339C12.5773 10.5113 12.5773 9.9996 12.9155 9.677C13.2536 9.35439 13.7901 9.35439 14.1283 9.677C14.4665 9.9996 14.4665 10.5113 14.1283 10.8339C13.7901 11.1565 13.242 11.1565 12.9155 10.8339ZM9.87172 10.8339C9.53353 10.5113 9.53353 9.9996 9.87172 9.677C10.2099 9.35439 10.7464 9.35439 11.0845 9.677C11.4227 9.9996 11.4227 10.5113 11.0845 10.8339C10.7464 11.1565 10.2099 11.1565 9.87172 10.8339ZM6.99125 13.5816C6.74636 13.348 6.74636 12.9587 6.99125 12.7139C7.23615 12.4803 7.64432 12.4803 7.90087 12.7139C8.14577 12.9476 8.14577 13.3369 7.90087 13.5816C7.65598 13.8153 7.24781 13.8153 6.99125 13.5816ZM11.5394 12.1355C11.2945 11.9019 11.2945 11.5125 11.5394 11.2678C11.7843 11.0342 12.1924 11.0342 12.449 11.2678C12.6939 11.5014 12.6939 11.8907 12.449 12.1355C12.1924 12.3802 11.7843 12.3802 11.5394 12.1355ZM10.0233 13.5816C9.77843 13.348 9.77843 12.9587 10.0233 12.7139C10.2682 12.4803 10.6764 12.4803 10.9329 12.7139C11.1778 12.9476 11.1778 13.3369 10.9329 13.5816C10.6764 13.8153 10.2682 13.8153 10.0233 13.5816ZM4.12245 13.437C3.95918 13.2813 3.95918 13.0143 4.12245 12.8586C4.28571 12.7028 4.5656 12.7028 4.72886 12.8586C4.89213 13.0143 4.89213 13.2813 4.72886 13.437C4.55394 13.5928 4.28571 13.5928 4.12245 13.437ZM5.63848 14.8832C5.47522 14.7275 5.47522 14.4605 5.63848 14.3047C5.80175 14.149 6.08163 14.149 6.2449 14.3047C6.40816 14.4605 6.40816 14.7275 6.2449 14.8832C6.06997 15.0389 5.80175 15.0389 5.63848 14.8832ZM11.691 14.8832C11.5277 14.7275 11.5277 14.4605 11.691 14.3047C11.8542 14.149 12.1341 14.149 12.2974 14.3047C12.4606 14.4605 12.4606 14.7275 12.2974 14.8832C12.1224 15.0389 11.8542 15.0389 11.691 14.8832ZM5.48688 12.1355C5.24198 11.9019 5.24198 11.5125 5.48688 11.2678C5.73178 11.0342 6.13994 11.0342 6.3965 11.2678C6.6414 11.5014 6.6414 11.8907 6.3965 12.1355C6.13994 12.3802 5.73178 12.3802 5.48688 12.1355ZM8.35569 12.2801C8.01749 11.9575 8.01749 11.4458 8.35569 11.1232C8.69388 10.8006 9.23032 10.8006 9.56851 11.1232C9.90671 11.4458 9.90671 11.9575 9.56851 12.2801C9.23032 12.6027 8.69388 12.6027 8.35569 12.2801ZM8.35569 9.39889C8.01749 9.07628 8.01749 8.56456 8.35569 8.24195C8.69388 7.91935 9.23032 7.91935 9.56851 8.24195C9.90671 8.56456 9.90671 9.07628 9.56851 9.39889C9.23032 9.71037 8.69388 9.71037 8.35569 9.39889ZM6.83965 10.8339C6.50146 10.5113 6.50146 9.9996 6.83965 9.677C7.17784 9.35439 7.71429 9.35439 8.05248 9.677C8.39067 9.9996 8.39067 10.5113 8.05248 10.8339C7.72595 11.1565 7.17784 11.1565 6.83965 10.8339Z" fill="white"/>
</svg>
