<svg width="24" height="24" viewBox="0 0 24 24" fill="none" xmlns="http://www.w3.org/2000/svg">
<rect width="24" height="24" rx="6" fill="#3375BB"/>
<path d="M11.7903 5.37441L12.1212 4.94679C12.0265 4.8735 11.9101 4.83374 11.7903 4.83374C11.6705 4.83374 11.5541 4.8735 11.4594 4.94679L11.7903 5.37441ZM17.4612 7.04041L18.0024 7.04923C18.0035 6.97745 17.9904 6.90616 17.9637 6.83951C17.937 6.77287 17.8973 6.7122 17.8469 6.66104C17.7965 6.60988 17.7365 6.56926 17.6703 6.54153C17.6041 6.5138 17.533 6.49953 17.4612 6.49954V7.04041ZM11.7903 18.6252L11.4907 19.0756C11.5794 19.1348 11.6837 19.1664 11.7903 19.1664C11.897 19.1664 12.0012 19.1348 12.09 19.0756L11.7903 18.6252ZM6.12791 7.04041V6.49954C6.05615 6.49958 5.98511 6.51389 5.91893 6.54164C5.85275 6.56939 5.79275 6.61002 5.74242 6.66117C5.69208 6.71232 5.65243 6.77298 5.62575 6.8396C5.59908 6.90622 5.58592 6.97748 5.58704 7.04923L6.12791 7.04041ZM11.4594 5.80203C13.9145 7.70409 16.7236 7.58165 17.4616 7.58165V6.49954C16.6982 6.49954 14.2505 6.59587 12.122 4.94679L11.4594 5.80203ZM16.9207 7.03158C16.8802 9.54437 16.7736 11.317 16.5703 12.63C16.3692 13.9294 16.082 14.7078 15.7121 15.2549C15.3374 15.823 14.8664 16.1602 14.1711 16.5764C13.4685 16.9971 12.5812 17.4504 11.491 18.1748L12.0904 19.0756C13.1276 18.3843 13.9924 17.9439 14.7267 17.5048C15.4668 17.061 16.1177 16.5727 16.6085 15.8609C17.1042 15.1277 17.4263 14.1725 17.638 12.7955C17.8484 11.4321 17.9601 9.58592 18.0017 7.04923L16.9207 7.03158ZM12.09 18.1748C10.9998 17.4504 10.1129 16.9982 9.41137 16.5764C8.71571 16.1606 8.24653 15.8234 7.87296 15.2553C7.50527 14.7086 7.21774 13.9316 7.01735 12.6304C6.81439 11.317 6.70849 9.54437 6.66768 7.03158L5.58594 7.04923C5.62749 9.58629 5.73853 11.4321 5.94811 12.7951C6.16027 14.1721 6.48163 15.1274 6.97764 15.8605C7.46703 16.5724 8.11748 17.061 8.8569 17.5048C9.59007 17.9435 10.4545 18.3843 11.4921 19.0756L12.09 18.1748ZM6.12681 7.58165C6.85741 7.58165 9.66655 7.70409 12.1201 5.80203L11.4583 4.94679C9.32938 6.59587 6.88167 6.49954 6.12681 6.49954V7.58165Z" fill="white"/>
</svg>
